JetBrains Mono-Regular.ufo
<glyph name="exclam" format="2">
	<advance width="600"/>
	<unicode hex="0021"/>
	<outline>
		<contour>
			<point x="258" y="215" type="line"/>
			<point x="322" y="215" type="line"/>
			<point x="406" y="610" type="line"/>
			<point x="425" y="730" type="line"/>
			<point x="319" y="730" type="line"/>
			<point x="300" y="610" type="line"/>
		</contour>
		<contour>
			<point x="240" y="-5" type="curve" smooth="yes"/>
			<point x="270" y="-5" type="line" smooth="yes"/>
			<point x="305" y="-5"/>
			<point x="334" y="21"/>
			<point x="340" y="56" type="curve" smooth="yes"/>
			<point x="345" y="90"/>
			<point x="327" y="115"/>
			<point x="289" y="115" type="curve" smooth="yes"/>
			<point x="259" y="115" type="line" smooth="yes"/>
			<point x="224" y="115"/>
			<point x="195" y="90"/>
			<point x="190" y="55" type="curve" smooth="yes"/>
			<point x="184" y="20"/>
			<point x="205" y="-5"/>
		</contour>
	</outline>
</glyph>
<glyph name="quotedbl" format="2">
	<advance width="600"/>
	<unicode hex="0022"/>
	<outline>
		<contour>
			<point x="389" y="430" type="line"/>
			<point x="463" y="430" type="line"/>
			<point x="498" y="580" type="line"/>
			<point x="522" y="730" type="line"/>
			<point x="425" y="730" type="line"/>
			<point x="401" y="580" type="line"/>
		</contour>
		<contour>
			<point x="186" y="430" type="line"/>
			<point x="260" y="430" type="line"/>
			<point x="295" y="580" type="line"/>
			<point x="319" y="730" type="line"/>
			<point x="222" y="730" type="line"/>
			<point x="198" y="580" type="line"/>
		</contour>
	</outline>
</glyph>
<glyph name="numbersign" format="2">
	<advance width="600"/>
	<unicode hex="0023"/>
	<outline>
		<contour>
			<point x="39" y="0" type="line"/>
			<point x="109" y="0" type="line"/>
			<point x="177" y="200" type="line"/>
			<point x="337" y="200" type="line"/>
			<point x="269" y="0" type="line"/>
			<point x="339" y="0" type="line"/>
			<point x="407" y="200" type="line"/>
			<point x="518" y="200" type="line"/>
			<point x="528" y="265" type="line"/>
			<point x="430" y="265" type="line"/>
			<point x="498" y="465" type="line"/>
			<point x="595" y="465" type="line"/>
			<point x="605" y="530" type="line"/>
			<point x="520" y="530" type="line"/>
			<point x="589" y="730" type="line"/>
			<point x="519" y="730" type="line"/>
			<point x="450" y="530" type="line"/>
			<point x="290" y="530" type="line"/>
			<point x="359" y="730" type="line"/>
			<point x="289" y="730" type="line"/>
			<point x="220" y="530" type="line"/>
			<point x="110" y="530" type="line"/>
			<point x="100" y="465" type="line"/>
			<point x="198" y="465" type="line"/>
			<point x="130" y="265" type="line"/>
			<point x="33" y="265" type="line"/>
			<point x="23" y="200" type="line"/>
			<point x="107" y="200" type="line"/>
		</contour>
		<contour>
			<point x="200" y="265" type="line"/>
			<point x="268" y="465" type="line"/>
			<point x="428" y="465" type="line"/>
			<point x="360" y="265" type="line"/>
		</contour>
	</outline>
</glyph>
<glyph name="percent" format="2">
	<advance width="600"/>
	<unicode hex="0025"/>
	<outline>
		<contour>
			<point x="-25" y="0" type="line"/>
			<point x="49" y="0" type="line"/>
			<point x="662" y="730" type="line"/>
			<point x="588" y="730" type="line"/>
		</contour>
		<contour>
			<point x="405" y="-5" type="curve" smooth="yes"/>
			<point x="489" y="-5"/>
			<point x="552" y="46"/>
			<point x="565" y="130" type="curve" smooth="yes"/>
			<point x="576" y="195" type="line" smooth="yes"/>
			<point x="589" y="279"/>
			<point x="542" y="330"/>
			<point x="458" y="330" type="curve" smooth="yes"/>
			<point x="374" y="330"/>
			<point x="311" y="279"/>
			<point x="298" y="195" type="curve" smooth="yes"/>
			<point x="287" y="130" type="line" smooth="yes"/>
			<point x="274" y="46"/>
			<point x="321" y="-5"/>
		</contour>
		<contour>
			<point x="416" y="64" type="curve" smooth="yes"/>
			<point x="372" y="64"/>
			<point x="354" y="85"/>
			<point x="361" y="130" type="curve" smooth="yes"/>
			<point x="372" y="195" type="line" smooth="yes"/>
			<point x="379" y="240"/>
			<point x="403" y="262"/>
			<point x="447" y="262" type="curve" smooth="yes"/>
			<point x="492" y="262"/>
			<point x="509" y="240"/>
			<point x="502" y="195" type="curve" smooth="yes"/>
			<point x="491" y="130" type="line" smooth="yes"/>
			<point x="484" y="85"/>
			<point x="460" y="64"/>
		</contour>
		<contour>
			<point x="179" y="400" type="curve" smooth="yes"/>
			<point x="263" y="400"/>
			<point x="326" y="451"/>
			<point x="339" y="535" type="curve" smooth="yes"/>
			<point x="350" y="600" type="line" smooth="yes"/>
			<point x="363" y="684"/>
			<point x="317" y="735"/>
			<point x="232" y="735" type="curve" smooth="yes"/>
			<point x="148" y="735"/>
			<point x="85" y="684"/>
			<point x="72" y="600" type="curve" smooth="yes"/>
			<point x="61" y="535" type="line" smooth="yes"/>
			<point x="48" y="451"/>
			<point x="95" y="400"/>
		</contour>
		<contour>
			<point x="190" y="468" type="curve" smooth="yes"/>
			<point x="147" y="468"/>
			<point x="128" y="490"/>
			<point x="135" y="535" type="curve" smooth="yes"/>
			<point x="146" y="600" type="line" smooth="yes"/>
			<point x="153" y="645"/>
			<point x="179" y="667"/>
			<point x="221" y="667" type="curve" smooth="yes"/>
			<point x="264" y="667"/>
			<point x="283" y="645"/>
			<point x="276" y="600" type="curve" smooth="yes"/>
			<point x="265" y="535" type="line" smooth="yes"/>
			<point x="258" y="490"/>
			<point x="232" y="468"/>
		</contour>
	</outline>
</glyph>
<glyph name="ampersand" format="2">
	<advance width="600"/>
	<unicode hex="0026"/>
	<outline>
		<contour>
			<point x="178" y="431" type="curve" smooth="yes"/>
			<point x="423" y="0" type="line"/>
			<point x="522" y="0" type="line"/>
			<point x="255" y="470" type="line" smooth="yes"/>
			<point x="236" y="504"/>
			<point x="228" y="546"/>
			<point x="233" y="579" type="curve" smooth="yes"/>
			<point x="241" y="630"/>
			<point x="281" y="662"/>
			<point x="336" y="662" type="curve" smooth="yes"/>
			<point x="397" y="662"/>
			<point x="429" y="627"/>
			<point x="420" y="569" type="curve"/>
			<point x="510" y="569" type="line"/>
			<point x="527" y="674"/>
			<point x="464" y="740"/>
			<point x="348" y="740" type="curve" smooth="yes"/>
			<point x="240" y="740"/>
			<point x="158" y="677"/>
			<point x="143" y="581" type="curve" smooth="yes"/>
			<point x="135" y="533"/>
			<point x="146" y="487"/>
		</contour>
		<contour>
			<point x="184" y="-10" type="curve" smooth="yes"/>
			<point x="263" y="-10"/>
			<point x="344" y="41"/>
			<point x="410" y="132" type="curve"/>
			<point x="575" y="360" type="line"/>
			<point x="481" y="360" type="line"/>
			<point x="335" y="155" type="line" smooth="yes"/>
			<point x="297" y="102"/>
			<point x="247" y="70"/>
			<point x="202" y="70" type="curve" smooth="yes"/>
			<point x="145" y="70"/>
			<point x="117" y="101"/>
			<point x="126" y="155" type="curve" smooth="yes"/>
			<point x="145" y="280" type="line" smooth="yes"/>
			<point x="154" y="332"/>
			<point x="188" y="360"/>
			<point x="244" y="360" type="curve" smooth="yes"/>
			<point x="258" y="360" type="line"/>
			<point x="269" y="430" type="line"/>
			<point x="254" y="430" type="line" smooth="yes"/>
			<point x="144" y="430"/>
			<point x="70" y="371"/>
			<point x="55" y="280" type="curve" smooth="yes"/>
			<point x="36" y="155" type="line" smooth="yes"/>
			<point x="19" y="52"/>
			<point x="75" y="-10"/>
		</contour>
	</outline>
</glyph>
<glyph name="quotesingle" format="2">
	<advance width="600"/>
	<unicode hex="0027"/>
	<outline>
		<contour>
			<point x="282" y="430" type="line"/>
			<point x="356" y="430" type="line"/>
			<point x="391" y="580" type="line"/>
			<point x="415" y="730" type="line"/>
			<point x="318" y="730" type="line"/>
			<point x="294" y="580" type="line"/>
		</contour>
	</outline>
</glyph>
<glyph name="parenleft" format="2">
	<advance width="600"/>
	<unicode hex="0028"/>
	<outline>
		<contour>
			<point x="420" y="-125" type="curve"/>
			<point x="434" y="-36" type="line"/>
			<point x="309" y="-6"/>
			<point x="247" y="110"/>
			<point x="271" y="265" type="curve" smooth="yes"/>
			<point x="301" y="455" type="line" smooth="yes"/>
			<point x="326" y="612"/>
			<point x="427" y="730"/>
			<point x="560" y="760" type="curve"/>
			<point x="573" y="845" type="line"/>
			<point x="381" y="799"/>
			<point x="242" y="650"/>
			<point x="211" y="455" type="curve" smooth="yes"/>
			<point x="181" y="265" type="line" smooth="yes"/>
			<point x="150" y="66"/>
			<point x="238" y="-78"/>
		</contour>
	</outline>
</glyph>
<glyph name="parenright" format="2">
	<advance width="600"/>
	<unicode hex="0029"/>
	<outline>
		<contour>
			<point x="65" y="-36" type="curve"/>
			<point x="51" y="-125" type="line"/>
			<point x="248" y="-78"/>
			<point x="381" y="66"/>
			<point x="413" y="265" type="curve" smooth="yes"/>
			<point x="443" y="455" type="line" smooth="yes"/>
			<point x="474" y="650"/>
			<point x="383" y="799"/>
			<point x="205" y="845" type="curve"/>
			<point x="191" y="760" type="line"/>
			<point x="315" y="730"/>
			<point x="378" y="612"/>
			<point x="353" y="455" type="curve" smooth="yes"/>
			<point x="323" y="265" type="line" smooth="yes"/>
			<point x="298" y="110"/>
			<point x="199" y="-6"/>
		</contour>
	</outline>
</glyph>
<glyph name="asterisk" format="2">
	<advance width="600"/>
	<unicode hex="002A"/>
	<outline>
		<contour>
			<point x="52" y="387" type="line"/>
			<point x="136" y="355" type="line" smooth="yes"/>
			<point x="175" y="340"/>
			<point x="231" y="333"/>
			<point x="269" y="330" type="curve"/>
			<point x="271" y="325" type="line"/>
			<point x="236" y="302"/>
			<point x="183" y="264"/>
			<point x="152" y="227" type="curve" smooth="yes"/>
			<point x="86" y="149" type="line"/>
			<point x="155" y="94" type="line"/>
			<point x="221" y="172" type="line" smooth="yes"/>
			<point x="252" y="209"/>
			<point x="282" y="264"/>
			<point x="300" y="300" type="curve"/>
			<point x="308" y="300" type="line"/>
			<point x="316" y="264"/>
			<point x="330" y="209"/>
			<point x="350" y="173" type="curve" smooth="yes"/>
			<point x="393" y="95" type="line"/>
			<point x="468" y="142" type="line"/>
			<point x="425" y="220" type="line" smooth="yes"/>
			<point x="405" y="256"/>
			<point x="369" y="296"/>
			<point x="344" y="321" type="curve"/>
			<point x="349" y="330" type="line"/>
			<point x="387" y="332"/>
			<point x="446" y="338"/>
			<point x="489" y="353" type="curve" smooth="yes"/>
			<point x="582" y="385" type="line"/>
			<point x="565" y="472" type="line"/>
			<point x="472" y="440" type="line" smooth="yes"/>
			<point x="428" y="425"/>
			<point x="372" y="391"/>
			<point x="338" y="368" type="curve"/>
			<point x="334" y="371" type="line"/>
			<point x="350" y="407"/>
			<point x="376" y="469"/>
			<point x="383" y="515" type="curve" smooth="yes"/>
			<point x="398" y="610" type="line"/>
			<point x="310" y="610" type="line"/>
			<point x="295" y="515" type="line" smooth="yes"/>
			<point x="288" y="469"/>
			<point x="292" y="408"/>
			<point x="297" y="371" type="curve"/>
			<point x="292" y="367" type="line"/>
			<point x="264" y="390"/>
			<point x="219" y="423"/>
			<point x="179" y="438" type="curve" smooth="yes"/>
			<point x="95" y="470" type="line"/>
		</contour>
	</outline>
</glyph>
<glyph name="plus" format="2">
	<advance width="600"/>
	<unicode hex="002B"/>
	<outline>
		<contour>
			<point x="225" y="95" type="line"/>
			<point x="313" y="95" type="line"/>
			<point x="344" y="290" type="line"/>
			<point x="535" y="290" type="line"/>
			<point x="547" y="370" type="line"/>
			<point x="356" y="370" type="line"/>
			<point x="387" y="565" type="line"/>
			<point x="299" y="565" type="line"/>
			<point x="268" y="370" type="line"/>
			<point x="77" y="370" type="line"/>
			<point x="65" y="290" type="line"/>
			<point x="256" y="290" type="line"/>
		</contour>
	</outline>
</glyph>
<glyph name="comma" format="2">
	<advance width="600"/>
	<unicode hex="002C"/>
	<outline>
		<contour>
			<point x="116" y="-160" type="line"/>
			<point x="196" y="-160" type="line"/>
			<point x="375" y="151" type="line"/>
			<point x="245" y="151" type="line"/>
		</contour>
	</outline>
</glyph>
<glyph name="hyphen" format="2">
	<advance width="600"/>
	<unicode hex="002D"/>
	<outline>
		<contour>
			<point x="86" y="290" type="line"/>
			<point x="516" y="290" type="line"/>
			<point x="529" y="370" type="line"/>
			<point x="99" y="370" type="line"/>
		</contour>
	</outline>
</glyph>
<glyph name="period" format="2">
	<advance width="600"/>
	<unicode hex="002E"/>
	<outline>
		<contour>
			<point x="244" y="-10" type="curve" smooth="yes"/>
			<point x="264" y="-10" type="line" smooth="yes"/>
			<point x="308" y="-10"/>
			<point x="345" y="24"/>
			<point x="352" y="70" type="curve" smooth="yes"/>
			<point x="359" y="116"/>
			<point x="333" y="150"/>
			<point x="290" y="150" type="curve" smooth="yes"/>
			<point x="270" y="150" type="line" smooth="yes"/>
			<point x="226" y="150"/>
			<point x="189" y="116"/>
			<point x="182" y="70" type="curve" smooth="yes"/>
			<point x="175" y="24"/>
			<point x="201" y="-10"/>
		</contour>
	</outline>
</glyph>
<glyph name="slash" format="2">
	<advance width="600"/>
	<unicode hex="002F"/>
	<outline>
		<contour>
			<point x="14" y="-110" type="line"/>
			<point x="112" y="-110" type="line"/>
			<point x="612" y="830" type="line"/>
			<point x="514" y="830" type="line"/>
		</contour>
	</outline>
</glyph>
<glyph name="zero" format="2">
	<advance width="600"/>
	<unicode hex="0030"/>
	<outline>
		<contour>
			<point x="254" y="-10" type="curve" smooth="yes"/>
			<point x="388" y="-10"/>
			<point x="487" y="75"/>
			<point x="508" y="205" type="curve" smooth="yes"/>
			<point x="559" y="525" type="line" smooth="yes"/>
			<point x="580" y="656"/>
			<point x="508" y="740"/>
			<point x="373" y="740" type="curve" smooth="yes"/>
			<point x="238" y="740"/>
			<point x="140" y="656"/>
			<point x="119" y="525" type="curve" smooth="yes"/>
			<point x="68" y="205" type="line" smooth="yes"/>
			<point x="47" y="74"/>
			<point x="119" y="-10"/>
		</contour>
		<contour>
			<point x="267" y="67" type="curve" smooth="yes"/>
			<point x="187" y="67"/>
			<point x="142" y="124"/>
			<point x="155" y="205" type="curve" smooth="yes"/>
			<point x="206" y="525" type="line" smooth="yes"/>
			<point x="219" y="606"/>
			<point x="281" y="663"/>
			<point x="361" y="663" type="curve" smooth="yes"/>
			<point x="441" y="663"/>
			<point x="485" y="606"/>
			<point x="472" y="525" type="curve" smooth="yes"/>
			<point x="421" y="205" type="line" smooth="yes"/>
			<point x="408" y="124"/>
			<point x="347" y="67"/>
		</contour>
		<contour>
			<point x="304" y="305" type="curve" smooth="yes"/>
			<point x="334" y="305"/>
			<point x="359" y="327"/>
			<point x="363" y="360" type="curve" smooth="yes"/>
			<point x="365" y="375" type="line" smooth="yes"/>
			<point x="369" y="408"/>
			<point x="354" y="430"/>
			<point x="324" y="430" type="curve" smooth="yes"/>
			<point x="294" y="430"/>
			<point x="269" y="408"/>
			<point x="265" y="375" type="curve" smooth="yes"/>
			<point x="263" y="360" type="line" smooth="yes"/>
			<point x="259" y="327"/>
			<point x="274" y="305"/>
		</contour>
	</outline>
</glyph>
<glyph name="one" format="2">
	<advance width="600"/>
	<unicode hex="0031"/>
	<outline>
		<contour>
			<point x="46" y="0" type="line"/>
			<point x="496" y="0" type="line"/>
			<point x="509" y="82" type="line"/>
			<point x="347" y="82" type="line"/>
			<point x="450" y="730" type="line"/>
			<point x="327" y="730" type="line"/>
			<point x="142" y="607" type="line"/>
			<point x="126" y="507" type="line"/>
			<point x="348" y="655" type="line"/>
			<point x="257" y="82" type="line"/>
			<point x="59" y="82" type="line"/>
		</contour>
	</outline>
</glyph>
<glyph name="two" format="2">
	<advance width="600"/>
	<unicode hex="0032"/>
	<outline>
		<contour>
			<point x="48" y="0" type="line"/>
			<point x="482" y="0" type="line"/>
			<point x="495" y="82" type="line"/>
			<point x="166" y="82" type="line"/>
			<point x="372" y="266" type="line" smooth="yes"/>
			<point x="489" y="370"/>
			<point x="541" y="447"/>
			<point x="554" y="530" type="curve" smooth="yes"/>
			<point x="574" y="657"/>
			<point x="502" y="740"/>
			<point x="372" y="740" type="curve" smooth="yes"/>
			<point x="237" y="740"/>
			<point x="136" y="657"/>
			<point x="111" y="525" type="curve"/>
			<point x="201" y="525" type="line"/>
			<point x="215" y="609"/>
			<point x="274" y="660"/>
			<point x="360" y="660" type="curve" smooth="yes"/>
			<point x="437" y="660"/>
			<point x="477" y="608"/>
			<point x="464" y="529" type="curve" smooth="yes"/>
			<point x="454" y="470"/>
			<point x="412" y="410"/>
			<point x="323" y="329" type="curve" smooth="yes"/>
			<point x="63" y="92" type="line"/>
		</contour>
	</outline>
</glyph>
<glyph name="three" format="2">
	<advance width="600"/>
	<unicode hex="0033"/>
	<outline>
		<contour>
			<point x="243" y="-10" type="curve" smooth="yes"/>
			<point x="376" y="-10"/>
			<point x="478" y="74"/>
			<point x="498" y="200" type="curve" smooth="yes"/>
			<point x="506" y="252" type="line" smooth="yes"/>
			<point x="526" y="380"/>
			<point x="454" y="462"/>
			<point x="321" y="462" type="curve"/>
			<point x="319" y="451" type="line"/>
			<point x="544" y="640" type="line"/>
			<point x="559" y="730" type="line"/>
			<point x="172" y="730" type="line"/>
			<point x="159" y="648" type="line"/>
			<point x="455" y="648" type="line"/>
			<point x="246" y="472" type="line"/>
			<point x="232" y="382" type="line"/>
			<point x="307" y="382" type="line" smooth="yes"/>
			<point x="389" y="382"/>
			<point x="429" y="334"/>
			<point x="416" y="252" type="curve" smooth="yes"/>
			<point x="408" y="200" type="line" smooth="yes"/>
			<point x="395" y="122"/>
			<point x="339" y="70"/>
			<point x="257" y="70" type="curve" smooth="yes"/>
			<point x="176" y="70"/>
			<point x="135" y="119"/>
			<point x="148" y="200" type="curve"/>
			<point x="58" y="200" type="line"/>
			<point x="38" y="74"/>
			<point x="112" y="-10"/>
		</contour>
	</outline>
</glyph>
<glyph name="four" format="2">
	<advance width="600"/>
	<unicode hex="0034"/>
	<outline>
		<contour>
			<point x="366" y="0" type="line"/>
			<point x="456" y="0" type="line"/>
			<point x="523" y="420" type="line"/>
			<point x="433" y="420" type="line"/>
			<point x="404" y="242" type="line"/>
			<point x="164" y="242" type="line"/>
			<point x="170" y="280" type="line"/>
			<point x="542" y="730" type="line"/>
			<point x="441" y="730" type="line"/>
			<point x="84" y="301" type="line"/>
			<point x="61" y="160" type="line"/>
			<point x="391" y="160" type="line"/>
		</contour>
	</outline>
</glyph>
<glyph name="five" format="2">
	<advance width="600"/>
	<unicode hex="0035"/>
	<outline>
		<contour>
			<point x="252" y="-10" type="curve" smooth="yes"/>
			<point x="389" y="-10"/>
			<point x="483" y="71"/>
			<point x="503" y="200" type="curve" smooth="yes"/>
			<point x="514" y="271" type="line" smooth="yes"/>
			<point x="534" y="403"/>
			<point x="477" y="481"/>
			<point x="358" y="480" type="curve" smooth="yes"/>
			<point x="275" y="480"/>
			<point x="215" y="441"/>
			<point x="205" y="379" type="curve"/>
			<point x="237" y="405" type="line"/>
			<point x="209" y="405" type="line"/>
			<point x="251" y="648" type="line"/>
			<point x="548" y="648" type="line"/>
			<point x="561" y="730" type="line"/>
			<point x="177" y="730" type="line"/>
			<point x="108" y="326" type="line"/>
			<point x="198" y="326" type="line"/>
			<point x="222" y="371"/>
			<point x="268" y="401"/>
			<point x="320" y="401" type="curve" smooth="yes"/>
			<point x="403" y="401"/>
			<point x="437" y="354"/>
			<point x="424" y="271" type="curve" smooth="yes"/>
			<point x="413" y="200" type="line" smooth="yes"/>
			<point x="400" y="117"/>
			<point x="350" y="70"/>
			<point x="266" y="70" type="curve" smooth="yes"/>
			<point x="192" y="70"/>
			<point x="154" y="103"/>
			<point x="156" y="160" type="curve"/>
			<point x="66" y="160" type="line"/>
			<point x="63" y="56"/>
			<point x="133" y="-10"/>
		</contour>
	</outline>
</glyph>
<glyph name="six" format="2">
	<advance width="600"/>
	<unicode hex="0036"/>
	<outline>
		<contour>
			<point x="255" y="-10" type="curve" smooth="yes"/>
			<point x="394" y="-10"/>
			<point x="501" y="84"/>
			<point x="524" y="225" type="curve" smooth="yes"/>
			<point x="546" y="364"/>
			<point x="483" y="453"/>
			<point x="364" y="453" type="curve" smooth="yes"/>
			<point x="308" y="453"/>
			<point x="259" y="432"/>
			<point x="229" y="395" type="curve"/>
			<point x="225" y="398" type="line"/>
			<point x="485" y="730" type="line"/>
			<point x="385" y="730" type="line"/>
			<point x="155" y="435" type="line" smooth="yes"/>
			<point x="104" y="370"/>
			<point x="71" y="298"/>
			<point x="60" y="225" type="curve" smooth="yes"/>
			<point x="37" y="84"/>
			<point x="116" y="-10"/>
		</contour>
		<contour>
			<point x="267" y="70" type="curve" smooth="yes"/>
			<point x="182" y="70"/>
			<point x="135" y="132"/>
			<point x="150" y="225" type="curve" smooth="yes"/>
			<point x="164" y="318"/>
			<point x="231" y="380"/>
			<point x="316" y="380" type="curve" smooth="yes"/>
			<point x="401" y="380"/>
			<point x="448" y="318"/>
			<point x="434" y="225" type="curve" smooth="yes"/>
			<point x="419" y="132"/>
			<point x="352" y="70"/>
		</contour>
	</outline>
</glyph>
<glyph name="seven" format="2">
	<advance width="600"/>
	<unicode hex="0037"/>
	<outline>
		<contour>
			<point x="138" y="0" type="line"/>
			<point x="238" y="0" type="line"/>
			<point x="593" y="642" type="line"/>
			<point x="607" y="730" type="line"/>
			<point x="152" y="730" type="line"/>
			<point x="122" y="540" type="line"/>
			<point x="212" y="540" type="line"/>
			<point x="229" y="648" type="line"/>
			<point x="501" y="648" type="line"/>
		</contour>
	</outline>
</glyph>
<glyph name="eight" format="2">
	<advance width="600"/>
	<unicode hex="0038"/>
	<outline>
		<contour>
			<point x="254" y="-10" type="curve" smooth="yes"/>
			<point x="396" y="-10"/>
			<point x="497" y="71"/>
			<point x="517" y="198" type="curve" smooth="yes"/>
			<point x="535" y="307"/>
			<point x="478" y="389"/>
			<point x="383" y="389" type="curve"/>
			<point x="381" y="380" type="line"/>
			<point x="468" y="380"/>
			<point x="542" y="451"/>
			<point x="558" y="550" type="curve" smooth="yes"/>
			<point x="576" y="662"/>
			<point x="502" y="740"/>
			<point x="373" y="740" type="curve" smooth="yes"/>
			<point x="244" y="740"/>
			<point x="146" y="662"/>
			<point x="128" y="550" type="curve" smooth="yes"/>
			<point x="112" y="451"/>
			<point x="164" y="380"/>
			<point x="251" y="380" type="curve"/>
			<point x="253" y="389" type="line"/>
			<point x="158" y="389"/>
			<point x="74" y="306"/>
			<point x="57" y="195" type="curve" smooth="yes"/>
			<point x="37" y="69"/>
			<point x="113" y="-10"/>
		</contour>
		<contour>
			<point x="266" y="65" type="curve" smooth="yes"/>
			<point x="179" y="65"/>
			<point x="137" y="117"/>
			<point x="152" y="207" type="curve" smooth="yes"/>
			<point x="166" y="297"/>
			<point x="224" y="348"/>
			<point x="311" y="348" type="curve" smooth="yes"/>
			<point x="398" y="348"/>
			<point x="440" y="297"/>
			<point x="426" y="207" type="curve" smooth="yes"/>
			<point x="411" y="117"/>
			<point x="354" y="65"/>
		</contour>
		<contour>
			<point x="322" y="414" type="curve" smooth="yes"/>
			<point x="243" y="414"/>
			<point x="207" y="460"/>
			<point x="220" y="542" type="curve" smooth="yes"/>
			<point x="232" y="621"/>
			<point x="283" y="665"/>
			<point x="361" y="665" type="curve" smooth="yes"/>
			<point x="440" y="665"/>
			<point x="476" y="621"/>
			<point x="464" y="542" type="curve" smooth="yes"/>
			<point x="451" y="460"/>
			<point x="400" y="414"/>
		</contour>
	</outline>
</glyph>
<glyph name="nine" format="2">
	<advance width="600"/>
	<unicode hex="0039"/>
	<outline>
		<contour>
			<point x="143" y="0" type="line"/>
			<point x="243" y="0" type="line"/>
			<point x="473" y="295" type="line" smooth="yes"/>
			<point x="524" y="360"/>
			<point x="556" y="432"/>
			<point x="568" y="505" type="curve" smooth="yes"/>
			<point x="590" y="646"/>
			<point x="512" y="740"/>
			<point x="372" y="740" type="curve" smooth="yes"/>
			<point x="234" y="740"/>
			<point x="126" y="646"/>
			<point x="104" y="505" type="curve" smooth="yes"/>
			<point x="82" y="366"/>
			<point x="145" y="277"/>
			<point x="264" y="277" type="curve" smooth="yes"/>
			<point x="319" y="277"/>
			<point x="369" y="298"/>
			<point x="399" y="335" type="curve"/>
			<point x="403" y="332" type="line"/>
		</contour>
		<contour>
			<point x="311" y="350" type="curve" smooth="yes"/>
			<point x="226" y="350"/>
			<point x="179" y="412"/>
			<point x="194" y="505" type="curve" smooth="yes"/>
			<point x="209" y="598"/>
			<point x="275" y="660"/>
			<point x="361" y="660" type="curve" smooth="yes"/>
			<point x="446" y="660"/>
			<point x="493" y="598"/>
			<point x="478" y="505" type="curve" smooth="yes"/>
			<point x="463" y="412"/>
			<point x="397" y="350"/>
		</contour>
	</outline>
</glyph>
<glyph name="colon" format="2">
	<advance width="600"/>
	<unicode hex="003A"/>
	<outline>
		<contour>
			<point x="311" y="410" type="curve" smooth="yes"/>
			<point x="331" y="410" type="line" smooth="yes"/>
			<point x="375" y="410"/>
			<point x="411" y="441"/>
			<point x="418" y="485" type="curve" smooth="yes"/>
			<point x="425" y="528"/>
			<point x="398" y="560"/>
			<point x="355" y="560" type="curve" smooth="yes"/>
			<point x="335" y="560" type="line" smooth="yes"/>
			<point x="291" y="560"/>
			<point x="255" y="528"/>
			<point x="248" y="485" type="curve" smooth="yes"/>
			<point x="241" y="441"/>
			<point x="267" y="410"/>
		</contour>
		<contour>
			<point x="244" y="-10" type="curve" smooth="yes"/>
			<point x="264" y="-10" type="line" smooth="yes"/>
			<point x="308" y="-10"/>
			<point x="344" y="21"/>
			<point x="351" y="65" type="curve" smooth="yes"/>
			<point x="358" y="108"/>
			<point x="331" y="140"/>
			<point x="288" y="140" type="curve" smooth="yes"/>
			<point x="268" y="140" type="line" smooth="yes"/>
			<point x="225" y="140"/>
			<point x="188" y="108"/>
			<point x="181" y="65" type="curve" smooth="yes"/>
			<point x="174" y="21"/>
			<point x="201" y="-10"/>
		</contour>
	</outline>
</glyph>
<glyph name="semicolon" format="2">
	<advance width="600"/>
	<unicode hex="003B"/>
	<outline>
		<contour>
			<point x="101" y="-160" type="line"/>
			<point x="181" y="-160" type="line"/>
			<point x="360" y="151" type="line"/>
			<point x="230" y="151" type="line"/>
		</contour>
		<contour>
			<point x="311" y="410" type="curve" smooth="yes"/>
			<point x="331" y="410" type="line" smooth="yes"/>
			<point x="375" y="410"/>
			<point x="411" y="441"/>
			<point x="418" y="485" type="curve" smooth="yes"/>
			<point x="425" y="528"/>
			<point x="398" y="560"/>
			<point x="355" y="560" type="curve" smooth="yes"/>
			<point x="335" y="560" type="line" smooth="yes"/>
			<point x="291" y="560"/>
			<point x="255" y="528"/>
			<point x="248" y="485" type="curve" smooth="yes"/>
			<point x="241" y="441"/>
			<point x="267" y="410"/>
		</contour>
	</outline>
</glyph>
<glyph name="less" format="2">
	<advance width="600"/>
	<unicode hex="003C"/>
	<outline>
		<contour>
			<point x="481" y="65" type="line"/>
			<point x="495" y="150" type="line"/>
			<point x="209" y="303" type="line" smooth="yes"/>
			<point x="179" y="319"/>
			<point x="153" y="327"/>
			<point x="153" y="327" type="curve"/>
			<point x="153" y="327"/>
			<point x="180" y="334"/>
			<point x="216" y="351" type="curve" smooth="yes"/>
			<point x="551" y="503" type="line"/>
			<point x="565" y="595" type="line"/>
			<point x="101" y="380" type="line"/>
			<point x="85" y="280" type="line"/>
		</contour>
	</outline>
</glyph>
<glyph name="equal" format="2">
	<advance width="600"/>
	<unicode hex="003D"/>
	<outline>
		<contour>
			<point x="106" y="410" type="line"/>
			<point x="536" y="410" type="line"/>
			<point x="549" y="490" type="line"/>
			<point x="119" y="490" type="line"/>
		</contour>
		<contour>
			<point x="68" y="170" type="line"/>
			<point x="498" y="170" type="line"/>
			<point x="511" y="250" type="line"/>
			<point x="81" y="250" type="line"/>
		</contour>
	</outline>
</glyph>
<glyph name="greater" format="2">
	<advance width="600"/>
	<unicode hex="003E"/>
	<outline>
		<contour>
			<point x="51" y="65" type="line"/>
			<point x="515" y="280" type="line"/>
			<point x="531" y="380" type="line"/>
			<point x="135" y="595" type="line"/>
			<point x="122" y="511" type="line"/>
			<point x="408" y="358" type="line" smooth="yes"/>
			<point x="437" y="342"/>
			<point x="464" y="334"/>
			<point x="464" y="334" type="curve"/>
			<point x="464" y="334"/>
			<point x="437" y="327"/>
			<point x="400" y="310" type="curve" smooth="yes"/>
			<point x="66" y="158" type="line"/>
		</contour>
	</outline>
</glyph>
<glyph name="question" format="2">
	<advance width="600"/>
	<unicode hex="003F"/>
	<outline>
		<contour>
			<point x="199" y="205" type="line"/>
			<point x="289" y="205" type="line"/>
			<point x="306" y="310" type="line"/>
			<point x="419" y="316"/>
			<point x="509" y="400"/>
			<point x="528" y="515" type="curve" smooth="yes"/>
			<point x="548" y="646"/>
			<point x="472" y="730"/>
			<point x="332" y="730" type="curve" smooth="yes"/>
			<point x="207" y="730" type="line"/>
			<point x="193" y="645" type="line"/>
			<point x="318" y="645" type="line" smooth="yes"/>
			<point x="404" y="645"/>
			<point x="450" y="594"/>
			<point x="438" y="515" type="curve" smooth="yes"/>
			<point x="425" y="436"/>
			<point x="363" y="385"/>
			<point x="278" y="385" type="curve" smooth="yes"/>
			<point x="228" y="385" type="line"/>
		</contour>
		<contour>
			<point x="195" y="-5" type="curve" smooth="yes"/>
			<point x="225" y="-5" type="line" smooth="yes"/>
			<point x="260" y="-5"/>
			<point x="289" y="21"/>
			<point x="295" y="56" type="curve" smooth="yes"/>
			<point x="300" y="90"/>
			<point x="282" y="115"/>
			<point x="244" y="115" type="curve" smooth="yes"/>
			<point x="214" y="115" type="line" smooth="yes"/>
			<point x="179" y="115"/>
			<point x="150" y="90"/>
			<point x="145" y="55" type="curve" smooth="yes"/>
			<point x="139" y="20"/>
			<point x="160" y="-5"/>
		</contour>
	</outline>
</glyph>
<glyph name="at" format="2">
	<advance width="600"/>
	<unicode hex="0040"/>
	<outline>
		<contour>
			<point x="252" y="-180" type="curve" smooth="yes"/>
			<point x="322" y="-180" type="line"/>
			<point x="334" y="-105" type="line"/>
			<point x="264" y="-105" type="line" smooth="yes"/>
			<point x="141" y="-105"/>
			<point x="77" y="-23"/>
			<point x="98" y="110" type="curve" smooth="yes"/>
			<point x="152" y="450" type="line" smooth="yes"/>
			<point x="174" y="589"/>
			<point x="257" y="670"/>
			<point x="377" y="670" type="curve" smooth="yes"/>
			<point x="484" y="670"/>
			<point x="532" y="608"/>
			<point x="514" y="495" type="curve" smooth="yes"/>
			<point x="514" y="490" type="line"/>
			<point x="513" y="420" type="line"/>
			<point x="488" y="420" type="line"/>
			<point x="499" y="399" type="line"/>
			<point x="507" y="451"/>
			<point x="471" y="485"/>
			<point x="407" y="485" type="curve" smooth="yes"/>
			<point x="320" y="485"/>
			<point x="264" y="431"/>
			<point x="248" y="330" type="curve" smooth="yes"/>
			<point x="229" y="210" type="line" smooth="yes"/>
			<point x="213" y="109"/>
			<point x="252" y="55"/>
			<point x="339" y="55" type="curve" smooth="yes"/>
			<point x="403" y="55"/>
			<point x="450" y="89"/>
			<point x="458" y="140" type="curve"/>
			<point x="436" y="120" type="line"/>
			<point x="464" y="120" type="line"/>
			<point x="455" y="65" type="line"/>
			<point x="526" y="65" type="line"/>
			<point x="594" y="495" type="line" smooth="yes"/>
			<point x="618" y="647"/>
			<point x="540" y="740"/>
			<point x="388" y="740" type="curve" smooth="yes"/>
			<point x="220" y="740"/>
			<point x="101" y="630"/>
			<point x="72" y="450" type="curve" smooth="yes"/>
			<point x="18" y="110" type="line" smooth="yes"/>
			<point x="-10" y="-67"/>
			<point x="81" y="-180"/>
		</contour>
		<contour>
			<point x="375" y="118" type="curve" smooth="yes"/>
			<point x="321" y="118"/>
			<point x="299" y="147"/>
			<point x="309" y="210" type="curve" smooth="yes"/>
			<point x="328" y="330" type="line" smooth="yes"/>
			<point x="338" y="393"/>
			<point x="368" y="422"/>
			<point x="423" y="422" type="curve" smooth="yes"/>
			<point x="478" y="422"/>
			<point x="498" y="394"/>
			<point x="488" y="331" type="curve" smooth="yes"/>
			<point x="471" y="220" type="line" smooth="yes"/>
			<point x="460" y="151"/>
			<point x="430" y="118"/>
		</contour>
	</outline>
</glyph>
<glyph name="A" format="2">
	<advance width="600"/>
	<unicode hex="0041"/>
	<outline>
		<contour>
			<point x="6" y="0" type="line"/>
			<point x="100" y="0" type="line"/>
			<point x="179" y="194" type="line"/>
			<point x="400" y="194" type="line"/>
			<point x="417" y="0" type="line"/>
			<point x="506" y="0" type="line"/>
			<point x="433" y="730" type="line"/>
			<point x="312" y="730" type="line"/>
		</contour>
		<contour>
			<point x="209" y="270" type="line"/>
			<point x="301" y="496" type="line" smooth="yes"/>
			<point x="335" y="580"/>
			<point x="353" y="640"/>
			<point x="359" y="658" type="curve"/>
			<point x="359" y="640"/>
			<point x="364" y="580"/>
			<point x="372" y="495" type="curve" smooth="yes"/>
			<point x="393" y="270" type="line"/>
		</contour>
	</outline>
</glyph>
<glyph name="B" format="2">
	<advance width="600"/>
	<unicode hex="0042"/>
	<outline>
		<contour>
			<point x="50" y="0" type="line"/>
			<point x="271" y="0" type="line" smooth="yes"/>
			<point x="404" y="0"/>
			<point x="498" y="78"/>
			<point x="518" y="203" type="curve" smooth="yes"/>
			<point x="537" y="320"/>
			<point x="473" y="395"/>
			<point x="358" y="393" type="curve"/>
			<point x="356" y="378" type="line"/>
			<point x="462" y="376"/>
			<point x="542" y="440"/>
			<point x="558" y="541" type="curve" smooth="yes"/>
			<point x="576" y="659"/>
			<point x="508" y="730"/>
			<point x="375" y="730" type="curve" smooth="yes"/>
			<point x="166" y="730" type="line"/>
		</contour>
		<contour>
			<point x="274" y="81" type="curve" smooth="yes"/>
			<point x="151" y="81" type="line"/>
			<point x="192" y="341" type="line"/>
			<point x="315" y="341" type="line" smooth="yes"/>
			<point x="399" y="341"/>
			<point x="442" y="286"/>
			<point x="430" y="206" type="curve" smooth="yes"/>
			<point x="417" y="129"/>
			<point x="358" y="81"/>
		</contour>
		<contour>
			<point x="324" y="419" type="curve" smooth="yes"/>
			<point x="204" y="419" type="line"/>
			<point x="241" y="649" type="line"/>
			<point x="362" y="649" type="line" smooth="yes"/>
			<point x="439" y="649"/>
			<point x="479" y="605"/>
			<point x="468" y="534" type="curve" smooth="yes"/>
			<point x="456" y="463"/>
			<point x="401" y="419"/>
		</contour>
	</outline>
</glyph>
<glyph name="D" format="2">
	<advance width="600"/>
	<unicode hex="0044"/>
	<outline>
		<contour>
			<point x="50" y="0" type="line"/>
			<point x="235" y="0" type="line" smooth="yes"/>
			<point x="376" y="0"/>
			<point x="480" y="86"/>
			<point x="501" y="220" type="curve" smooth="yes"/>
			<point x="547" y="511" type="line" smooth="yes"/>
			<point x="568" y="644"/>
			<point x="491" y="730"/>
			<point x="351" y="730" type="curve" smooth="yes"/>
			<point x="166" y="730" type="line"/>
		</contour>
		<contour>
			<point x="248" y="80" type="curve" smooth="yes"/>
			<point x="153" y="80" type="line"/>
			<point x="243" y="650" type="line"/>
			<point x="338" y="650" type="line" smooth="yes"/>
			<point x="426" y="650"/>
			<point x="471" y="598"/>
			<point x="457" y="511" type="curve" smooth="yes"/>
			<point x="411" y="220" type="line" smooth="yes"/>
			<point x="397" y="132"/>
			<point x="336" y="80"/>
		</contour>
	</outline>
</glyph>
<glyph name="E" format="2">
	<advance width="600"/>
	<unicode hex="0045"/>
	<outline>
		<contour>
			<point x="56" y="0" type="line"/>
			<point x="476" y="0" type="line"/>
			<point x="489" y="81" type="line"/>
			<point x="158" y="81" type="line"/>
			<point x="199" y="341" type="line"/>
			<point x="495" y="341" type="line"/>
			<point x="508" y="422" type="line"/>
			<point x="212" y="422" type="line"/>
			<point x="248" y="649" type="line"/>
			<point x="579" y="649" type="line"/>
			<point x="592" y="730" type="line"/>
			<point x="172" y="730" type="line"/>
		</contour>
	</outline>
</glyph>
<glyph name="F" format="2">
	<advance width="600"/>
	<unicode hex="0046"/>
	<outline>
		<contour>
			<point x="51" y="0" type="line"/>
			<point x="141" y="0" type="line"/>
			<point x="192" y="323" type="line"/>
			<point x="506" y="323" type="line"/>
			<point x="519" y="405" type="line"/>
			<point x="203" y="405" type="line"/>
			<point x="242" y="649" type="line"/>
			<point x="584" y="649" type="line"/>
			<point x="597" y="731" type="line"/>
			<point x="167" y="731" type="line"/>
		</contour>
	</outline>
</glyph>
<glyph name="G" format="2">
	<advance width="600"/>
	<unicode hex="0047"/>
	<outline>
		<contour>
			<point x="258" y="-10" type="curve" smooth="yes"/>
			<point x="389" y="-10"/>
			<point x="483" y="71"/>
			<point x="504" y="200" type="curve" smooth="yes"/>
			<point x="531" y="370" type="line"/>
			<point x="295" y="370" type="line"/>
			<point x="282" y="290" type="line"/>
			<point x="428" y="290" type="line"/>
			<point x="414" y="200" type="line" smooth="yes"/>
			<point x="401" y="117"/>
			<point x="349" y="70"/>
			<point x="271" y="70" type="curve" smooth="yes"/>
			<point x="192" y="70"/>
			<point x="155" y="117"/>
			<point x="168" y="200" type="curve" smooth="yes"/>
			<point x="220" y="531" type="line" smooth="yes"/>
			<point x="233" y="613"/>
			<point x="285" y="660"/>
			<point x="365" y="660" type="curve" smooth="yes"/>
			<point x="443" y="660"/>
			<point x="479" y="613"/>
			<point x="466" y="530" type="curve"/>
			<point x="556" y="530" type="line"/>
			<point x="576" y="659"/>
			<point x="508" y="740"/>
			<point x="377" y="740" type="curve" smooth="yes"/>
			<point x="244" y="740"/>
			<point x="151" y="661"/>
			<point x="130" y="530" type="curve" smooth="yes"/>
			<point x="78" y="200" type="line" smooth="yes"/>
			<point x="57" y="69"/>
			<point x="125" y="-10"/>
		</contour>
	</outline>
</glyph>
<glyph name="H" format="2">
	<advance width="600"/>
	<unicode hex="0048"/>
	<outline>
		<contour>
			<point x="50" y="0" type="line"/>
			<point x="140" y="0" type="line"/>
			<point x="193" y="336" type="line"/>
			<point x="425" y="336" type="line"/>
			<point x="372" y="0" type="line"/>
			<point x="462" y="0" type="line"/>
			<point x="578" y="730" type="line"/>
			<point x="488" y="730" type="line"/>
			<point x="438" y="418" type="line"/>
			<point x="206" y="418" type="line"/>
			<point x="256" y="730" type="line"/>
			<point x="166" y="730" type="line"/>
		</contour>
	</outline>
</glyph>
<glyph name="I" format="2">
	<advance width="600"/>
	<unicode hex="0049"/>
	<outline>
		<contour>
			<point x="53" y="0" type="line"/>
			<point x="459" y="0" type="line"/>
			<point x="472" y="81" type="line"/>
			<point x="315" y="81" type="line"/>
			<point x="405" y="649" type="line"/>
			<point x="562" y="649" type="line"/>
			<point x="575" y="730" type="line"/>
			<point x="169" y="730" type="line"/>
			<point x="156" y="649" type="line"/>
			<point x="313" y="649" type="line"/>
			<point x="223" y="81" type="line"/>
			<point x="66" y="81" type="line"/>
		</contour>
	</outline>
</glyph>
<glyph name="J" format="2">
	<advance width="600"/>
	<unicode hex="004A"/>
	<outline>
		<contour>
			<point x="225" y="-10" type="curve" smooth="yes"/>
			<point x="364" y="-10"/>
			<point x="464" y="74"/>
			<point x="485" y="210" type="curve" smooth="yes"/>
			<point x="567" y="730" type="line"/>
			<point x="302" y="730" type="line"/>
			<point x="289" y="648" type="line"/>
			<point x="464" y="648" type="line"/>
			<point x="395" y="210" type="line" smooth="yes"/>
			<point x="381" y="121"/>
			<point x="323" y="70"/>
			<point x="238" y="70" type="curve" smooth="yes"/>
			<point x="152" y="70"/>
			<point x="111" y="121"/>
			<point x="125" y="210" type="curve"/>
			<point x="35" y="210" type="line"/>
			<point x="13" y="74"/>
			<point x="85" y="-10"/>
		</contour>
	</outline>
</glyph>
<glyph name="K" format="2">
	<advance width="600"/>
	<unicode hex="004B"/>
	<outline>
		<contour>
			<point x="50" y="0" type="line"/>
			<point x="140" y="0" type="line"/>
			<point x="194" y="338" type="line"/>
			<point x="301" y="338" type="line"/>
			<point x="416" y="0" type="line"/>
			<point x="516" y="0" type="line"/>
			<point x="384" y="376" type="line"/>
			<point x="622" y="730" type="line"/>
			<point x="521" y="730" type="line"/>
			<point x="306" y="417" type="line"/>
			<point x="206" y="417" type="line"/>
			<point x="256" y="730" type="line"/>
			<point x="166" y="730" type="line"/>
		</contour>
	</outline>
</glyph>
<glyph name="L" format="2">
	<advance width="600"/>
	<unicode hex="004C"/>
	<outline>
		<contour>
			<point x="66" y="0" type="line"/>
			<point x="491" y="0" type="line"/>
			<point x="504" y="82" type="line"/>
			<point x="169" y="82" type="line"/>
			<point x="272" y="730" type="line"/>
			<point x="182" y="730" type="line"/>
		</contour>
	</outline>
</glyph>
<glyph name="M" format="2">
	<advance width="600"/>
	<unicode hex="004D"/>
	<outline>
		<contour>
			<point x="32" y="0" type="line"/>
			<point x="120" y="0" type="line"/>
			<point x="162" y="265" type="line" smooth="yes"/>
			<point x="190" y="445"/>
			<point x="200" y="685"/>
			<point x="200" y="685" type="curve"/>
			<point x="261" y="320" type="line"/>
			<point x="356" y="320" type="line"/>
			<point x="532" y="685" type="line"/>
			<point x="532" y="685"/>
			<point x="461" y="435"/>
			<point x="434" y="265" type="curve" smooth="yes"/>
			<point x="392" y="0" type="line"/>
			<point x="480" y="0" type="line"/>
			<point x="596" y="730" type="line"/>
			<point x="478" y="730" type="line"/>
			<point x="368" y="495" type="line" smooth="yes"/>
			<point x="340" y="435"/>
			<point x="319" y="382"/>
			<point x="320" y="382" type="curve"/>
			<point x="320" y="382"/>
			<point x="314" y="435"/>
			<point x="304" y="494" type="curve" smooth="yes"/>
			<point x="266" y="730" type="line"/>
			<point x="148" y="730" type="line"/>
		</contour>
	</outline>
</glyph>
<glyph name="N" format="2">
	<advance width="600"/>
	<unicode hex="004E"/>
	<outline>
		<contour>
			<point x="46" y="0" type="line"/>
			<point x="133" y="0" type="line"/>
			<point x="198" y="410" type="line" smooth="yes"/>
			<point x="214" y="510"/>
			<point x="223" y="625"/>
			<point x="223" y="625" type="curve"/>
			<point x="346" y="0" type="line"/>
			<point x="466" y="0" type="line"/>
			<point x="582" y="730" type="line"/>
			<point x="495" y="730" type="line"/>
			<point x="430" y="320" type="line" smooth="yes"/>
			<point x="414" y="220"/>
			<point x="406" y="105"/>
			<point x="406" y="105" type="curve"/>
			<point x="282" y="730" type="line"/>
			<point x="162" y="730" type="line"/>
		</contour>
	</outline>
</glyph>
<glyph name="O" format="2">
	<advance width="600"/>
	<unicode hex="004F"/>
	<outline>
		<contour>
			<point x="254" y="-10" type="curve" smooth="yes"/>
			<point x="391" y="-10"/>
			<point x="476" y="63"/>
			<point x="498" y="200" type="curve" smooth="yes"/>
			<point x="550" y="531" type="line" smooth="yes"/>
			<point x="571" y="661"/>
			<point x="504" y="740"/>
			<point x="373" y="740" type="curve" smooth="yes"/>
			<point x="238" y="740"/>
			<point x="151" y="664"/>
			<point x="130" y="530" type="curve" smooth="yes"/>
			<point x="78" y="200" type="line" smooth="yes"/>
			<point x="57" y="69"/>
			<point x="124" y="-10"/>
		</contour>
		<contour>
			<point x="267" y="70" type="curve" smooth="yes"/>
			<point x="189" y="70"/>
			<point x="154" y="115"/>
			<point x="168" y="200" type="curve" smooth="yes"/>
			<point x="220" y="530" type="line" smooth="yes"/>
			<point x="233" y="614"/>
			<point x="282" y="660"/>
			<point x="361" y="660" type="curve" smooth="yes"/>
			<point x="438" y="660"/>
			<point x="473" y="615"/>
			<point x="460" y="530" type="curve" smooth="yes"/>
			<point x="408" y="200" type="line" smooth="yes"/>
			<point x="395" y="117"/>
			<point x="344" y="70"/>
		</contour>
	</outline>
</glyph>
<glyph name="P" format="2">
	<advance width="600"/>
	<unicode hex="0050"/>
	<outline>
		<contour>
			<point x="50" y="0" type="line"/>
			<point x="140" y="0" type="line"/>
			<point x="188" y="300" type="line"/>
			<point x="331" y="300" type="line" smooth="yes"/>
			<point x="466" y="300"/>
			<point x="567" y="384"/>
			<point x="588" y="515" type="curve" smooth="yes"/>
			<point x="608" y="646"/>
			<point x="535" y="730"/>
			<point x="399" y="730" type="curve" smooth="yes"/>
			<point x="166" y="730" type="line"/>
		</contour>
		<contour>
			<point x="343" y="380" type="curve" smooth="yes"/>
			<point x="200" y="380" type="line"/>
			<point x="243" y="650" type="line"/>
			<point x="386" y="650" type="line" smooth="yes"/>
			<point x="465" y="650"/>
			<point x="508" y="597"/>
			<point x="495" y="515" type="curve" smooth="yes"/>
			<point x="482" y="433"/>
			<point x="422" y="380"/>
		</contour>
	</outline>
</glyph>
<glyph name="Q" format="2">
	<advance width="600"/>
	<unicode hex="0051"/>
	<outline>
		<contour>
			<point x="349" y="-180" type="line"/>
			<point x="453" y="-180" type="line"/>
			<point x="367" y="13" type="line"/>
			<point x="442" y="46"/>
			<point x="494" y="115"/>
			<point x="508" y="205" type="curve" smooth="yes"/>
			<point x="559" y="525" type="line" smooth="yes"/>
			<point x="580" y="656"/>
			<point x="508" y="740"/>
			<point x="373" y="740" type="curve" smooth="yes"/>
			<point x="238" y="740"/>
			<point x="140" y="656"/>
			<point x="119" y="525" type="curve" smooth="yes"/>
			<point x="68" y="205" type="line" smooth="yes"/>
			<point x="48" y="74"/>
			<point x="119" y="-10"/>
			<point x="254" y="-10" type="curve" smooth="yes"/>
			<point x="268" y="-10"/>
			<point x="280" y="-9"/>
			<point x="280" y="-9" type="curve"/>
			<point x="271" y="-3" type="line"/>
		</contour>
		<contour>
			<point x="267" y="70" type="curve" smooth="yes"/>
			<point x="188" y="70"/>
			<point x="145" y="123"/>
			<point x="158" y="205" type="curve" smooth="yes"/>
			<point x="209" y="525" type="line" smooth="yes"/>
			<point x="222" y="607"/>
			<point x="282" y="660"/>
			<point x="361" y="660" type="curve" smooth="yes"/>
			<point x="440" y="660"/>
			<point x="482" y="607"/>
			<point x="469" y="525" type="curve" smooth="yes"/>
			<point x="418" y="205" type="line" smooth="yes"/>
			<point x="405" y="123"/>
			<point x="346" y="70"/>
		</contour>
	</outline>
</glyph>
<glyph name="R" format="2">
	<advance width="600"/>
	<unicode hex="0052"/>
	<outline>
		<contour>
			<point x="50" y="0" type="line"/>
			<point x="140" y="0" type="line"/>
			<point x="189" y="310" type="line"/>
			<point x="304" y="310" type="line"/>
			<point x="395" y="0" type="line"/>
			<point x="501" y="0" type="line"/>
			<point x="399" y="320" type="line"/>
			<point x="491" y="347"/>
			<point x="558" y="421"/>
			<point x="573" y="520" type="curve" smooth="yes"/>
			<point x="593" y="645"/>
			<point x="520" y="730"/>
			<point x="390" y="730" type="curve" smooth="yes"/>
			<point x="166" y="730" type="line"/>
		</contour>
		<contour>
			<point x="336" y="390" type="curve" smooth="yes"/>
			<point x="202" y="390" type="line"/>
			<point x="243" y="650" type="line"/>
			<point x="377" y="650" type="line" smooth="yes"/>
			<point x="451" y="650"/>
			<point x="493" y="598"/>
			<point x="480" y="520" type="curve" smooth="yes"/>
			<point x="468" y="442"/>
			<point x="411" y="390"/>
		</contour>
	</outline>
</glyph>
<glyph name="S" format="2">
	<advance width="600"/>
	<unicode hex="0053"/>
	<outline>
		<contour>
			<point x="258" y="-10" type="curve" smooth="yes"/>
			<point x="396" y="-10"/>
			<point x="494" y="66"/>
			<point x="514" y="190" type="curve" smooth="yes"/>
			<point x="530" y="288"/>
			<point x="484" y="362"/>
			<point x="390" y="394" type="curve" smooth="yes"/>
			<point x="295" y="426" type="line" smooth="yes"/>
			<point x="241" y="444"/>
			<point x="216" y="491"/>
			<point x="226" y="554" type="curve" smooth="yes"/>
			<point x="236" y="620"/>
			<point x="290" y="661"/>
			<point x="366" y="661" type="curve" smooth="yes"/>
			<point x="445" y="661"/>
			<point x="483" y="617"/>
			<point x="471" y="545" type="curve"/>
			<point x="561" y="545" type="line"/>
			<point x="578" y="663"/>
			<point x="507" y="741"/>
			<point x="379" y="741" type="curve" smooth="yes"/>
			<point x="248" y="741"/>
			<point x="153" y="666"/>
			<point x="134" y="546" type="curve" smooth="yes"/>
			<point x="119" y="450"/>
			<point x="166" y="375"/>
			<point x="259" y="344" type="curve" smooth="yes"/>
			<point x="354" y="313" type="line" smooth="yes"/>
			<point x="407" y="296"/>
			<point x="433" y="249"/>
			<point x="424" y="188" type="curve" smooth="yes"/>
			<point x="412" y="116"/>
			<point x="353" y="70"/>
			<point x="271" y="70" type="curve" smooth="yes"/>
			<point x="181" y="70"/>
			<point x="136" y="116"/>
			<point x="148" y="190" type="curve"/>
			<point x="58" y="190" type="line"/>
			<point x="41" y="66"/>
			<point x="115" y="-10"/>
		</contour>
	</outline>
</glyph>
<glyph name="T" format="2">
	<advance width="600"/>
	<unicode hex="0054"/>
	<outline>
		<contour>
			<point x="211" y="0" type="line"/>
			<point x="301" y="0" type="line"/>
			<point x="404" y="649" type="line"/>
			<point x="609" y="649" type="line"/>
			<point x="622" y="731" type="line"/>
			<point x="122" y="731" type="line"/>
			<point x="109" y="649" type="line"/>
			<point x="314" y="649" type="line"/>
		</contour>
	</outline>
</glyph>
<glyph name="U" format="2">
	<advance width="600"/>
	<unicode hex="0055"/>
	<outline>
		<contour>
			<point x="254" y="-10" type="curve" smooth="yes"/>
			<point x="391" y="-10"/>
			<point x="478" y="69"/>
			<point x="499" y="200" type="curve" smooth="yes"/>
			<point x="583" y="730" type="line"/>
			<point x="493" y="730" type="line"/>
			<point x="409" y="200" type="line" smooth="yes"/>
			<point x="396" y="120"/>
			<point x="347" y="70"/>
			<point x="267" y="70" type="curve" smooth="yes"/>
			<point x="186" y="70"/>
			<point x="154" y="120"/>
			<point x="167" y="200" type="curve" smooth="yes"/>
			<point x="251" y="730" type="line"/>
			<point x="161" y="730" type="line"/>
			<point x="77" y="200" type="line" smooth="yes"/>
			<point x="56" y="70"/>
			<point x="118" y="-10"/>
		</contour>
	</outline>
</glyph>
<glyph name="V" format="2">
	<advance width="600"/>
	<unicode hex="0056"/>
	<outline>
		<contour>
			<point x="194" y="0" type="line"/>
			<point x="317" y="0" type="line"/>
			<point x="622" y="730" type="line"/>
			<point x="528" y="730" type="line"/>
			<point x="326" y="234" type="line" smooth="yes"/>
			<point x="288" y="140"/>
			<point x="267" y="70"/>
			<point x="267" y="70" type="curve"/>
			<point x="267" y="70"/>
			<point x="266" y="140"/>
			<point x="257" y="235" type="curve" smooth="yes"/>
			<point x="212" y="730" type="line"/>
			<point x="122" y="730" type="line"/>
		</contour>
	</outline>
</glyph>
<glyph name="W" format="2">
	<advance width="600"/>
	<unicode hex="0057"/>
	<outline>
		<contour>
			<point x="65" y="0" type="line"/>
			<point x="178" y="0" type="line"/>
			<point x="332" y="550" type="line" smooth="yes"/>
			<point x="349" y="612"/>
			<point x="364" y="667"/>
			<point x="364" y="667" type="curve"/>
			<point x="364" y="667"/>
			<point x="360" y="612"/>
			<point x="357" y="550" type="curve" smooth="yes"/>
			<point x="332" y="0" type="line"/>
			<point x="445" y="0" type="line"/>
			<point x="647" y="730" type="line"/>
			<point x="565" y="730" type="line"/>
			<point x="422" y="190" type="line" smooth="yes"/>
			<point x="406" y="130"/>
			<point x="391" y="65"/>
			<point x="391" y="65" type="curve"/>
			<point x="391" y="65"/>
			<point x="395" y="130"/>
			<point x="397" y="190" type="curve" smooth="yes"/>
			<point x="421" y="730" type="line"/>
			<point x="326" y="730" type="line"/>
			<point x="172" y="190" type="line" smooth="yes"/>
			<point x="155" y="130"/>
			<point x="139" y="65"/>
			<point x="139" y="65" type="curve"/>
			<point x="139" y="65"/>
			<point x="147" y="130"/>
			<point x="150" y="190" type="curve" smooth="yes"/>
			<point x="181" y="730" type="line"/>
			<point x="97" y="730" type="line"/>
		</contour>
	</outline>
</glyph>
<glyph name="X" format="2">
	<advance width="600"/>
	<unicode hex="0058"/>
	<outline>
		<contour>
			<point x="-4" y="0" type="line"/>
			<point x="100" y="0" type="line"/>
			<point x="263" y="233" type="line" smooth="yes"/>
			<point x="284" y="263"/>
			<point x="307" y="300"/>
			<point x="307" y="300" type="curve"/>
			<point x="307" y="300"/>
			<point x="317" y="263"/>
			<point x="329" y="232" type="curve" smooth="yes"/>
			<point x="417" y="0" type="line"/>
			<point x="516" y="0" type="line"/>
			<point x="366" y="376" type="line"/>
			<point x="621" y="730" type="line"/>
			<point x="518" y="730" type="line"/>
			<point x="368" y="514" type="line" smooth="yes"/>
			<point x="346" y="482"/>
			<point x="325" y="447"/>
			<point x="325" y="447" type="curve"/>
			<point x="325" y="447"/>
			<point x="313" y="483"/>
			<point x="301" y="514" type="curve" smooth="yes"/>
			<point x="223" y="730" type="line"/>
			<point x="123" y="730" type="line"/>
			<point x="265" y="370" type="line"/>
		</contour>
	</outline>
</glyph>
<glyph name="Y" format="2">
	<advance width="600"/>
	<unicode hex="0059"/>
	<outline>
		<contour>
			<point x="211" y="0" type="line"/>
			<point x="301" y="0" type="line"/>
			<point x="344" y="273" type="line"/>
			<point x="637" y="730" type="line"/>
			<point x="543" y="730" type="line"/>
			<point x="353" y="430" type="line" smooth="yes"/>
			<point x="325" y="385"/>
			<point x="313" y="362"/>
			<point x="313" y="362" type="curve"/>
			<point x="313" y="362"/>
			<point x="311" y="385"/>
			<point x="296" y="430" type="curve" smooth="yes"/>
			<point x="199" y="730" type="line"/>
			<point x="107" y="730" type="line"/>
			<point x="254" y="273" type="line"/>
		</contour>
	</outline>
</glyph>
<glyph name="Z" format="2">
	<advance width="600"/>
	<unicode hex="005A"/>
	<outline>
		<contour>
			<point x="41" y="0" type="line"/>
			<point x="471" y="0" type="line"/>
			<point x="484" y="82" type="line"/>
			<point x="145" y="82" type="line"/>
			<point x="562" y="640" type="line"/>
			<point x="577" y="730" type="line"/>
			<point x="162" y="730" type="line"/>
			<point x="149" y="648" type="line"/>
			<point x="473" y="649" type="line"/>
			<point x="55" y="90" type="line"/>
		</contour>
	</outline>
</glyph>
<glyph name="bracketleft" format="2">
	<advance width="600"/>
	<unicode hex="005B"/>
	<outline>
		<contour>
			<point x="149" y="-110" type="line"/>
			<point x="394" y="-110" type="line"/>
			<point x="406" y="-30" type="line"/>
			<point x="251" y="-30" type="line"/>
			<point x="375" y="750" type="line"/>
			<point x="530" y="750" type="line"/>
			<point x="542" y="830" type="line"/>
			<point x="297" y="830" type="line"/>
		</contour>
	</outline>
</glyph>
<glyph name="bracketright" format="2">
	<advance width="600"/>
	<unicode hex="005D"/>
	<outline>
		<contour>
			<point x="89" y="-110" type="line"/>
			<point x="334" y="-110" type="line"/>
			<point x="482" y="830" type="line"/>
			<point x="237" y="830" type="line"/>
			<point x="225" y="750" type="line"/>
			<point x="380" y="750" type="line"/>
			<point x="256" y="-30" type="line"/>
			<point x="101" y="-30" type="line"/>
		</contour>
	</outline>
</glyph>
<glyph name="asciicircum" format="2">
	<advance width="600"/>
	<unicode hex="005E"/>
	<outline>
		<contour>
			<point x="90" y="340" type="line"/>
			<point x="174" y="340" type="line"/>
			<point x="330" y="598" type="line" smooth="yes"/>
			<point x="351" y="633"/>
			<point x="365" y="665"/>
			<point x="365" y="665" type="curve"/>
			<point x="366" y="665"/>
			<point x="371" y="633"/>
			<point x="381" y="598" type="curve" smooth="yes"/>
			<point x="452" y="340" type="line"/>
			<point x="530" y="340" type="line"/>
			<point x="415" y="730" type="line"/>
			<point x="331" y="730" type="line"/>
		</contour>
	</outline>
</glyph>
<glyph name="underscore" format="2">
	<advance width="600"/>
	<unicode hex="005F"/>
	<outline>
		<contour>
			<point x="0" y="-100" type="line"/>
			<point x="480" y="-100" type="line"/>
			<point x="492" y="-25" type="line"/>
			<point x="12" y="-25" type="line"/>
		</contour>
	</outline>
</glyph>
<glyph name="grave" format="2">
	<advance width="600"/>
	<unicode hex="0060"/>
	<outline>
		<contour>
			<point x="358" y="645" type="line"/>
			<point x="453" y="645" type="line"/>
			<point x="360" y="785" type="line"/>
			<point x="260" y="785" type="line"/>
		</contour>
	</outline>
</glyph>
<glyph name="a" format="2">
	<advance width="600"/>
	<unicode hex="0061"/>
	<outline>
		<contour>
			<point x="215" y="-10" type="curve" smooth="yes"/>
			<point x="304" y="-10"/>
			<point x="367" y="41"/>
			<point x="380" y="126" type="curve"/>
			<point x="362" y="116" type="line"/>
			<point x="378" y="116" type="line"/>
			<point x="367" y="47"/>
			<point x="406" y="0"/>
			<point x="476" y="0" type="curve" smooth="yes"/>
			<point x="532" y="0" type="line"/>
			<point x="543" y="71" type="line"/>
			<point x="499" y="71" type="line" smooth="yes"/>
			<point x="476" y="71"/>
			<point x="463" y="91"/>
			<point x="468" y="120" type="curve" smooth="yes"/>
			<point x="537" y="550" type="line"/>
			<point x="447" y="550" type="line"/>
			<point x="430" y="445" type="line"/>
			<point x="412" y="445" type="line"/>
			<point x="427" y="424" type="line"/>
			<point x="440" y="510"/>
			<point x="395" y="560"/>
			<point x="306" y="560" type="curve" smooth="yes"/>
			<point x="198" y="560"/>
			<point x="121" y="484"/>
			<point x="101" y="356" type="curve" smooth="yes"/>
			<point x="76" y="195" type="line" smooth="yes"/>
			<point x="56" y="65"/>
			<point x="107" y="-10"/>
		</contour>
		<contour>
			<point x="258" y="66" type="curve" smooth="yes"/>
			<point x="185" y="66"/>
			<point x="154" y="112"/>
			<point x="167" y="200" type="curve" smooth="yes"/>
			<point x="190" y="350" type="line" smooth="yes"/>
			<point x="203" y="437"/>
			<point x="249" y="484"/>
			<point x="323" y="484" type="curve" smooth="yes"/>
			<point x="395" y="484"/>
			<point x="428" y="436"/>
			<point x="415" y="350" type="curve" smooth="yes"/>
			<point x="392" y="200" type="line" smooth="yes"/>
			<point x="379" y="114"/>
			<point x="331" y="66"/>
		</contour>
	</outline>
</glyph>
<glyph name="b" format="2">
	<advance width="600"/>
	<unicode hex="0062"/>
	<outline>
		<contour>
			<point x="286" y="-10" type="curve" smooth="yes"/>
			<point x="396" y="-10"/>
			<point x="477" y="68"/>
			<point x="497" y="194" type="curve" smooth="yes"/>
			<point x="522" y="355" type="line" smooth="yes"/>
			<point x="542" y="482"/>
			<point x="488" y="560"/>
			<point x="377" y="560" type="curve" smooth="yes"/>
			<point x="286" y="560"/>
			<point x="220" y="507"/>
			<point x="208" y="424" type="curve"/>
			<point x="229" y="445" type="line"/>
			<point x="209" y="445" type="line"/>
			<point x="230" y="570" type="line"/>
			<point x="256" y="730" type="line"/>
			<point x="166" y="730" type="line"/>
			<point x="50" y="0" type="line"/>
			<point x="140" y="0" type="line"/>
			<point x="157" y="105" type="line"/>
			<point x="175" y="105" type="line"/>
			<point x="160" y="126" type="line"/>
			<point x="147" y="42"/>
			<point x="195" y="-10"/>
		</contour>
		<contour>
			<point x="269" y="68" type="curve" smooth="yes"/>
			<point x="195" y="68"/>
			<point x="159" y="117"/>
			<point x="172" y="200" type="curve" smooth="yes"/>
			<point x="195" y="350" type="line" smooth="yes"/>
			<point x="209" y="433"/>
			<point x="260" y="482"/>
			<point x="334" y="482" type="curve" smooth="yes"/>
			<point x="410" y="482"/>
			<point x="445" y="435"/>
			<point x="431" y="350" type="curve" smooth="yes"/>
			<point x="408" y="200" type="line" smooth="yes"/>
			<point x="394" y="115"/>
			<point x="345" y="68"/>
		</contour>
	</outline>
</glyph>
<glyph name="c" format="2">
	<advance width="600"/>
	<unicode hex="0063"/>
	<outline>
		<contour>
			<point x="258" y="-10" type="curve" smooth="yes"/>
			<point x="385" y="-10"/>
			<point x="478" y="63"/>
			<point x="501" y="180" type="curve"/>
			<point x="411" y="180" type="line"/>
			<point x="395" y="110"/>
			<point x="345" y="70"/>
			<point x="271" y="70" type="curve" smooth="yes"/>
			<point x="192" y="70"/>
			<point x="155" y="117"/>
			<point x="168" y="200" type="curve" smooth="yes"/>
			<point x="192" y="351" type="line" smooth="yes"/>
			<point x="205" y="433"/>
			<point x="257" y="480"/>
			<point x="336" y="480" type="curve" smooth="yes"/>
			<point x="410" y="480"/>
			<point x="448" y="440"/>
			<point x="441" y="370" type="curve"/>
			<point x="531" y="370" type="line"/>
			<point x="545" y="487"/>
			<point x="476" y="560"/>
			<point x="349" y="560" type="curve" smooth="yes"/>
			<point x="216" y="560"/>
			<point x="122" y="481"/>
			<point x="101" y="350" type="curve" smooth="yes"/>
			<point x="78" y="200" type="line" smooth="yes"/>
			<point x="57" y="69"/>
			<point x="125" y="-10"/>
		</contour>
	</outline>
</glyph>
<glyph name="d" format="2">
	<advance width="600"/>
	<unicode hex="0064"/>
	<outline>
		<contour>
			<point x="222" y="-10" type="curve" smooth="yes"/>
			<point x="314" y="-10"/>
			<point x="379" y="42"/>
			<point x="392" y="126" type="curve"/>
			<point x="371" y="105" type="line"/>
			<point x="389" y="105" type="line"/>
			<point x="372" y="0" type="line"/>
			<point x="462" y="0" type="line"/>
			<point x="578" y="730" type="line"/>
			<point x="488" y="730" type="line"/>
			<point x="462" y="570" type="line"/>
			<point x="444" y="445" type="line"/>
			<point x="424" y="445" type="line"/>
			<point x="439" y="424" type="line"/>
			<point x="452" y="507"/>
			<point x="403" y="560"/>
			<point x="312" y="560" type="curve" smooth="yes"/>
			<point x="202" y="560"/>
			<point x="122" y="482"/>
			<point x="102" y="355" type="curve" smooth="yes"/>
			<point x="77" y="194" type="line" smooth="yes"/>
			<point x="57" y="68"/>
			<point x="113" y="-10"/>
		</contour>
		<contour>
			<point x="265" y="68" type="curve" smooth="yes"/>
			<point x="189" y="68"/>
			<point x="154" y="115"/>
			<point x="168" y="200" type="curve" smooth="yes"/>
			<point x="191" y="350" type="line" smooth="yes"/>
			<point x="205" y="435"/>
			<point x="254" y="482"/>
			<point x="330" y="482" type="curve" smooth="yes"/>
			<point x="404" y="482"/>
			<point x="441" y="433"/>
			<point x="427" y="350" type="curve" smooth="yes"/>
			<point x="404" y="200" type="line" smooth="yes"/>
			<point x="391" y="117"/>
			<point x="339" y="68"/>
		</contour>
	</outline>
</glyph>
<glyph name="e" format="2">
	<advance width="600"/>
	<unicode hex="0065"/>
	<outline>
		<contour>
			<point x="254" y="-10" type="curve" smooth="yes"/>
			<point x="371" y="-10"/>
			<point x="459" y="48"/>
			<point x="486" y="140" type="curve"/>
			<point x="396" y="140" type="line"/>
			<point x="378" y="91"/>
			<point x="335" y="66"/>
			<point x="266" y="66" type="curve" smooth="yes"/>
			<point x="184" y="66"/>
			<point x="152" y="113"/>
			<point x="166" y="200" type="curve" smooth="yes"/>
			<point x="174" y="253" type="line"/>
			<point x="506" y="253" type="line"/>
			<point x="521" y="350" type="line" smooth="yes"/>
			<point x="542" y="477"/>
			<point x="475" y="560"/>
			<point x="345" y="560" type="curve" smooth="yes"/>
			<point x="215" y="560"/>
			<point x="122" y="477"/>
			<point x="101" y="350" type="curve" smooth="yes"/>
			<point x="78" y="200" type="line" smooth="yes"/>
			<point x="58" y="73"/>
			<point x="124" y="-10"/>
		</contour>
		<contour>
			<point x="433" y="350" type="curve" smooth="yes"/>
			<point x="428" y="313" type="line"/>
			<point x="436" y="321" type="line"/>
			<point x="185" y="321" type="line"/>
			<point x="189" y="350" type="line" smooth="yes"/>
			<point x="203" y="437"/>
			<point x="251" y="485"/>
			<point x="333" y="485" type="curve" smooth="yes"/>
			<point x="415" y="485"/>
			<point x="447" y="437"/>
		</contour>
	</outline>
</glyph>
<glyph name="f" format="2">
	<advance width="600"/>
	<unicode hex="0066"/>
	<outline>
		<contour>
			<point x="-58" y="-180" type="line"/>
			<point x="16" y="-180" type="line" smooth="yes"/>
			<point x="151" y="-180"/>
			<point x="250" y="-98"/>
			<point x="271" y="31" type="curve" smooth="yes"/>
			<point x="338" y="457" type="line"/>
			<point x="563" y="457" type="line"/>
			<point x="576" y="539" type="line"/>
			<point x="351" y="539" type="line"/>
			<point x="360" y="593" type="line" smooth="yes"/>
			<point x="366" y="628"/>
			<point x="388" y="648"/>
			<point x="424" y="648" type="curve" smooth="yes"/>
			<point x="594" y="648" type="line"/>
			<point x="607" y="730" type="line"/>
			<point x="437" y="730" type="line" smooth="yes"/>
			<point x="348" y="730"/>
			<point x="283" y="677"/>
			<point x="270" y="592" type="curve" smooth="yes"/>
			<point x="261" y="539" type="line"/>
			<point x="101" y="539" type="line"/>
			<point x="88" y="457" type="line"/>
			<point x="248" y="457" type="line"/>
			<point x="181" y="31" type="line" smooth="yes"/>
			<point x="168" y="-51"/>
			<point x="113" y="-97"/>
			<point x="30" y="-97" type="curve" smooth="yes"/>
			<point x="-44" y="-97" type="line"/>
		</contour>
	</outline>
</glyph>
<glyph name="g" format="2">
	<advance width="600"/>
	<unicode hex="0067"/>
	<outline>
		<contour>
			<point x="88" y="-180" type="line"/>
			<point x="262" y="-180" type="line" smooth="yes"/>
			<point x="369" y="-180"/>
			<point x="442" y="-119"/>
			<point x="458" y="-20" type="curve" smooth="yes"/>
			<point x="548" y="550" type="line"/>
			<point x="461" y="550" type="line"/>
			<point x="449" y="475" type="line"/>
			<point x="414" y="475" type="line"/>
			<point x="435" y="430" type="line"/>
			<point x="448" y="512"/>
			<point x="403" y="560"/>
			<point x="313" y="560" type="curve" smooth="yes"/>
			<point x="203" y="560"/>
			<point x="122" y="482"/>
			<point x="102" y="356" type="curve" smooth="yes"/>
			<point x="84" y="240" type="line" smooth="yes"/>
			<point x="64" y="113"/>
			<point x="119" y="35"/>
			<point x="230" y="35" type="curve" smooth="yes"/>
			<point x="320" y="35"/>
			<point x="380" y="83"/>
			<point x="393" y="165" type="curve"/>
			<point x="358" y="120" type="line"/>
			<point x="393" y="120" type="line"/>
			<point x="379" y="50" type="line"/>
			<point x="368" y="-20" type="line" smooth="yes"/>
			<point x="359" y="-73"/>
			<point x="330" y="-98"/>
			<point x="276" y="-98" type="curve" smooth="yes"/>
			<point x="101" y="-98" type="line"/>
		</contour>
		<contour>
			<point x="272" y="113" type="curve" smooth="yes"/>
			<point x="196" y="113"/>
			<point x="161" y="160"/>
			<point x="175" y="245" type="curve" smooth="yes"/>
			<point x="191" y="350" type="line" smooth="yes"/>
			<point x="205" y="435"/>
			<point x="254" y="482"/>
			<point x="330" y="482" type="curve" smooth="yes"/>
			<point x="404" y="482"/>
			<point x="441" y="433"/>
			<point x="427" y="350" type="curve" smooth="yes"/>
			<point x="411" y="245" type="line" smooth="yes"/>
			<point x="398" y="162"/>
			<point x="346" y="113"/>
		</contour>
	</outline>
</glyph>
<glyph name="h" format="2">
	<advance width="600"/>
	<unicode hex="0068"/>
	<outline>
		<contour>
			<point x="50" y="0" type="line"/>
			<point x="140" y="0" type="line"/>
			<point x="195" y="350" type="line" smooth="yes"/>
			<point x="209" y="435"/>
			<point x="261" y="484"/>
			<point x="335" y="484" type="curve" smooth="yes"/>
			<point x="408" y="484"/>
			<point x="443" y="438"/>
			<point x="431" y="360" type="curve" smooth="yes"/>
			<point x="374" y="0" type="line"/>
			<point x="464" y="0" type="line"/>
			<point x="523" y="370" type="line" smooth="yes"/>
			<point x="541" y="487"/>
			<point x="483" y="560"/>
			<point x="373" y="560" type="curve" smooth="yes"/>
			<point x="282" y="560"/>
			<point x="221" y="510"/>
			<point x="207" y="424" type="curve"/>
			<point x="229" y="445" type="line"/>
			<point x="210" y="445" type="line"/>
			<point x="227" y="550" type="line"/>
			<point x="256" y="730" type="line"/>
			<point x="166" y="730" type="line"/>
		</contour>
	</outline>
</glyph>
<glyph name="i" format="2">
	<advance width="600"/>
	<unicode hex="0069"/>
	<outline>
		<contour>
			<point x="36" y="0" type="line"/>
			<point x="506" y="0" type="line"/>
			<point x="519" y="82" type="line"/>
			<point x="334" y="82" type="line"/>
			<point x="408" y="550" type="line"/>
			<point x="148" y="550" type="line"/>
			<point x="135" y="468" type="line"/>
			<point x="305" y="468" type="line"/>
			<point x="244" y="82" type="line"/>
			<point x="49" y="82" type="line"/>
		</contour>
		<contour>
			<point x="358" y="645" type="curve" smooth="yes"/>
			<point x="378" y="645" type="line" smooth="yes"/>
			<point x="417" y="645"/>
			<point x="447" y="668"/>
			<point x="453" y="704" type="curve" smooth="yes"/>
			<point x="458" y="740"/>
			<point x="436" y="765"/>
			<point x="397" y="765" type="curve" smooth="yes"/>
			<point x="377" y="765" type="line" smooth="yes"/>
			<point x="338" y="765"/>
			<point x="308" y="740"/>
			<point x="303" y="704" type="curve" smooth="yes"/>
			<point x="297" y="667"/>
			<point x="319" y="645"/>
		</contour>
	</outline>
</glyph>
<glyph name="j" format="2">
	<advance width="600"/>
	<unicode hex="006A"/>
	<outline>
		<contour>
			<point x="12" y="-180" type="line"/>
			<point x="141" y="-180" type="line" smooth="yes"/>
			<point x="284" y="-180"/>
			<point x="374" y="-105"/>
			<point x="396" y="31" type="curve" smooth="yes"/>
			<point x="478" y="550" type="line"/>
			<point x="158" y="550" type="line"/>
			<point x="145" y="468" type="line"/>
			<point x="375" y="468" type="line"/>
			<point x="306" y="31" type="line" smooth="yes"/>
			<point x="293" y="-51"/>
			<point x="238" y="-97"/>
			<point x="155" y="-97" type="curve" smooth="yes"/>
			<point x="26" y="-97" type="line"/>
		</contour>
		<contour>
			<point x="433" y="645" type="curve" smooth="yes"/>
			<point x="453" y="645" type="line" smooth="yes"/>
			<point x="492" y="645"/>
			<point x="522" y="668"/>
			<point x="528" y="704" type="curve" smooth="yes"/>
			<point x="533" y="740"/>
			<point x="511" y="765"/>
			<point x="472" y="765" type="curve" smooth="yes"/>
			<point x="452" y="765" type="line" smooth="yes"/>
			<point x="413" y="765"/>
			<point x="383" y="740"/>
			<point x="378" y="704" type="curve" smooth="yes"/>
			<point x="372" y="667"/>
			<point x="394" y="645"/>
		</contour>
	</outline>
</glyph>
<glyph name="k" format="2">
	<advance width="600"/>
	<unicode hex="006B"/>
	<outline>
		<contour>
			<point x="53" y="0" type="line"/>
			<point x="143" y="0" type="line"/>
			<point x="182" y="245" type="line"/>
			<point x="280" y="245" type="line"/>
			<point x="401" y="0" type="line"/>
			<point x="502" y="0" type="line"/>
			<point x="360" y="284" type="line"/>
			<point x="587" y="550" type="line"/>
			<point x="482" y="550" type="line"/>
			<point x="286" y="323" type="line"/>
			<point x="194" y="323" type="line"/>
			<point x="259" y="730" type="line"/>
			<point x="169" y="730" type="line"/>
		</contour>
	</outline>
</glyph>
<glyph name="l" format="2">
	<advance width="600"/>
	<unicode hex="006C"/>
	<outline>
		<contour>
			<point x="321" y="0" type="curve" smooth="yes"/>
			<point x="506" y="0" type="line"/>
			<point x="519" y="82" type="line"/>
			<point x="334" y="82" type="line" smooth="yes"/>
			<point x="291" y="82"/>
			<point x="268" y="110"/>
			<point x="276" y="155" type="curve" smooth="yes"/>
			<point x="367" y="730" type="line"/>
			<point x="112" y="730" type="line"/>
			<point x="99" y="648" type="line"/>
			<point x="264" y="648" type="line"/>
			<point x="186" y="155" type="line" smooth="yes"/>
			<point x="171" y="61"/>
			<point x="224" y="0"/>
		</contour>
	</outline>
</glyph>
<glyph name="m" format="2">
	<advance width="600"/>
	<unicode hex="006D"/>
	<outline>
		<contour>
			<point x="22" y="0" type="line"/>
			<point x="105" y="0" type="line"/>
			<point x="172" y="420" type="line" smooth="yes"/>
			<point x="179" y="465"/>
			<point x="202" y="491"/>
			<point x="239" y="491" type="curve" smooth="yes"/>
			<point x="276" y="491"/>
			<point x="294" y="465"/>
			<point x="286" y="419" type="curve" smooth="yes"/>
			<point x="220" y="0" type="line"/>
			<point x="292" y="0" type="line"/>
			<point x="359" y="420" type="line" smooth="yes"/>
			<point x="366" y="465"/>
			<point x="391" y="491"/>
			<point x="428" y="491" type="curve" smooth="yes"/>
			<point x="465" y="491"/>
			<point x="480" y="464"/>
			<point x="473" y="419" type="curve" smooth="yes"/>
			<point x="407" y="0" type="line"/>
			<point x="490" y="0" type="line"/>
			<point x="556" y="418" type="line" smooth="yes"/>
			<point x="570" y="503"/>
			<point x="538" y="560"/>
			<point x="470" y="560" type="curve" smooth="yes"/>
			<point x="414" y="560"/>
			<point x="370" y="521"/>
			<point x="361" y="460" type="curve"/>
			<point x="384" y="484" type="line"/>
			<point x="342" y="484" type="line"/>
			<point x="360" y="430" type="line"/>
			<point x="373" y="513"/>
			<point x="346" y="560"/>
			<point x="285" y="560" type="curve" smooth="yes"/>
			<point x="229" y="560"/>
			<point x="188" y="521"/>
			<point x="178" y="460" type="curve"/>
			<point x="196" y="484" type="line"/>
			<point x="178" y="484" type="line"/>
			<point x="188" y="550" type="line"/>
			<point x="109" y="550" type="line"/>
		</contour>
	</outline>
</glyph>
<glyph name="o" format="2">
	<advance width="600"/>
	<unicode hex="006F"/>
	<outline>
		<contour>
			<point x="254" y="-10" type="curve" smooth="yes"/>
			<point x="391" y="-10"/>
			<point x="476" y="63"/>
			<point x="498" y="200" type="curve" smooth="yes"/>
			<point x="522" y="351" type="line" smooth="yes"/>
			<point x="542" y="481"/>
			<point x="475" y="560"/>
			<point x="345" y="560" type="curve" smooth="yes"/>
			<point x="214" y="560"/>
			<point x="122" y="481"/>
			<point x="101" y="350" type="curve" smooth="yes"/>
			<point x="78" y="200" type="line" smooth="yes"/>
			<point x="57" y="69"/>
			<point x="124" y="-10"/>
		</contour>
		<contour>
			<point x="267" y="70" type="curve" smooth="yes"/>
			<point x="189" y="70"/>
			<point x="154" y="115"/>
			<point x="168" y="200" type="curve" smooth="yes"/>
			<point x="191" y="350" type="line" smooth="yes"/>
			<point x="205" y="435"/>
			<point x="254" y="480"/>
			<point x="332" y="480" type="curve" smooth="yes"/>
			<point x="410" y="480"/>
			<point x="445" y="435"/>
			<point x="431" y="350" type="curve" smooth="yes"/>
			<point x="408" y="200" type="line" smooth="yes"/>
			<point x="395" y="117"/>
			<point x="344" y="70"/>
		</contour>
	</outline>
</glyph>
<glyph name="p" format="2">
	<advance width="600"/>
	<unicode hex="0070"/>
	<outline>
		<contour>
			<point x="21" y="-180" type="line"/>
			<point x="111" y="-180" type="line"/>
			<point x="137" y="-20" type="line"/>
			<point x="155" y="105" type="line"/>
			<point x="175" y="105" type="line"/>
			<point x="160" y="126" type="line"/>
			<point x="147" y="43"/>
			<point x="196" y="-10"/>
			<point x="287" y="-10" type="curve" smooth="yes"/>
			<point x="397" y="-10"/>
			<point x="477" y="68"/>
			<point x="497" y="195" type="curve" smooth="yes"/>
			<point x="522" y="356" type="line" smooth="yes"/>
			<point x="542" y="482"/>
			<point x="486" y="560"/>
			<point x="377" y="560" type="curve" smooth="yes"/>
			<point x="285" y="560"/>
			<point x="221" y="508"/>
			<point x="207" y="424" type="curve"/>
			<point x="228" y="445" type="line"/>
			<point x="210" y="445" type="line"/>
			<point x="227" y="550" type="line"/>
			<point x="137" y="550" type="line"/>
		</contour>
		<contour>
			<point x="269" y="68" type="curve" smooth="yes"/>
			<point x="195" y="68"/>
			<point x="159" y="117"/>
			<point x="172" y="200" type="curve" smooth="yes"/>
			<point x="195" y="350" type="line" smooth="yes"/>
			<point x="209" y="433"/>
			<point x="260" y="482"/>
			<point x="334" y="482" type="curve" smooth="yes"/>
			<point x="410" y="482"/>
			<point x="445" y="435"/>
			<point x="431" y="350" type="curve" smooth="yes"/>
			<point x="408" y="200" type="line" smooth="yes"/>
			<point x="394" y="115"/>
			<point x="345" y="68"/>
		</contour>
	</outline>
</glyph>
<glyph name="q" format="2">
	<advance width="600"/>
	<unicode hex="0071"/>
	<outline>
		<contour>
			<point x="343" y="-180" type="line"/>
			<point x="433" y="-180" type="line"/>
			<point x="549" y="550" type="line"/>
			<point x="459" y="550" type="line"/>
			<point x="442" y="445" type="line"/>
			<point x="424" y="445" type="line"/>
			<point x="439" y="424" type="line"/>
			<point x="452" y="508"/>
			<point x="404" y="560"/>
			<point x="313" y="560" type="curve" smooth="yes"/>
			<point x="203" y="560"/>
			<point x="122" y="482"/>
			<point x="102" y="356" type="curve" smooth="yes"/>
			<point x="77" y="195" type="line" smooth="yes"/>
			<point x="57" y="68"/>
			<point x="112" y="-10"/>
			<point x="222" y="-10" type="curve" smooth="yes"/>
			<point x="313" y="-10"/>
			<point x="379" y="43"/>
			<point x="392" y="126" type="curve"/>
			<point x="370" y="105" type="line"/>
			<point x="390" y="105" type="line"/>
			<point x="369" y="-20" type="line"/>
		</contour>
		<contour>
			<point x="265" y="68" type="curve" smooth="yes"/>
			<point x="189" y="68"/>
			<point x="154" y="115"/>
			<point x="168" y="200" type="curve" smooth="yes"/>
			<point x="191" y="350" type="line" smooth="yes"/>
			<point x="205" y="435"/>
			<point x="254" y="482"/>
			<point x="330" y="482" type="curve" smooth="yes"/>
			<point x="404" y="482"/>
			<point x="441" y="433"/>
			<point x="427" y="350" type="curve" smooth="yes"/>
			<point x="404" y="200" type="line" smooth="yes"/>
			<point x="391" y="117"/>
			<point x="339" y="68"/>
		</contour>
	</outline>
</glyph>
<glyph name="r" format="2">
	<advance width="600"/>
	<unicode hex="0072"/>
	<outline>
		<contour>
			<point x="68" y="0" type="line"/>
			<point x="158" y="0" type="line"/>
			<point x="213" y="350" type="line" smooth="yes"/>
			<point x="227" y="435"/>
			<point x="280" y="484"/>
			<point x="356" y="484" type="curve" smooth="yes"/>
			<point x="433" y="484"/>
			<point x="468" y="436"/>
			<point x="454" y="350" type="curve" smooth="yes"/>
			<point x="450" y="325" type="line"/>
			<point x="540" y="325" type="line"/>
			<point x="546" y="358" type="line" smooth="yes"/>
			<point x="565" y="482"/>
			<point x="505" y="560"/>
			<point x="389" y="560" type="curve" smooth="yes"/>
			<point x="288" y="560"/>
			<point x="227" y="499"/>
			<point x="208" y="380" type="curve"/>
			<point x="247" y="445" type="line"/>
			<point x="226" y="445" type="line"/>
			<point x="243" y="550" type="line"/>
			<point x="155" y="550" type="line"/>
		</contour>
	</outline>
</glyph>
<glyph name="s" format="2">
	<advance width="600"/>
	<unicode hex="0073"/>
	<outline>
		<contour>
			<point x="232" y="-10" type="curve" smooth="yes"/>
			<point x="274" y="-10" type="line" smooth="yes"/>
			<point x="404" y="-10"/>
			<point x="479" y="53"/>
			<point x="496" y="155" type="curve" smooth="yes"/>
			<point x="511" y="251"/>
			<point x="466" y="298"/>
			<point x="351" y="317" type="curve" smooth="yes"/>
			<point x="279" y="329" type="line" smooth="yes"/>
			<point x="223" y="338"/>
			<point x="201" y="357"/>
			<point x="208" y="402" type="curve" smooth="yes"/>
			<point x="216" y="452"/>
			<point x="250" y="480"/>
			<point x="318" y="480" type="curve" smooth="yes"/>
			<point x="356" y="480" type="line" smooth="yes"/>
			<point x="410" y="480"/>
			<point x="439" y="456"/>
			<point x="442" y="421" type="curve"/>
			<point x="532" y="421" type="line"/>
			<point x="532" y="505"/>
			<point x="474" y="560"/>
			<point x="369" y="560" type="curve" smooth="yes"/>
			<point x="331" y="560" type="line" smooth="yes"/>
			<point x="206" y="560"/>
			<point x="133" y="501"/>
			<point x="118" y="403" type="curve" smooth="yes"/>
			<point x="103" y="310"/>
			<point x="148" y="263"/>
			<point x="253" y="246" type="curve" smooth="yes"/>
			<point x="325" y="234" type="line" smooth="yes"/>
			<point x="384" y="224"/>
			<point x="412" y="198"/>
			<point x="405" y="151" type="curve" smooth="yes"/>
			<point x="397" y="103"/>
			<point x="358" y="70"/>
			<point x="287" y="70" type="curve" smooth="yes"/>
			<point x="245" y="70" type="line" smooth="yes"/>
			<point x="186" y="70"/>
			<point x="154" y="96"/>
			<point x="152" y="135" type="curve"/>
			<point x="62" y="135" type="line"/>
			<point x="58" y="47"/>
			<point x="119" y="-10"/>
		</contour>
	</outline>
</glyph>
<glyph name="t" format="2">
	<advance width="600"/>
	<unicode hex="0074"/>
	<outline>
		<contour>
			<point x="316" y="0" type="curve" smooth="yes"/>
			<point x="466" y="0" type="line"/>
			<point x="479" y="82" type="line"/>
			<point x="329" y="82" type="line" smooth="yes"/>
			<point x="288" y="82"/>
			<point x="272" y="102"/>
			<point x="279" y="145" type="curve" smooth="yes"/>
			<point x="330" y="468" type="line"/>
			<point x="550" y="468" type="line"/>
			<point x="563" y="550" type="line"/>
			<point x="343" y="550" type="line"/>
			<point x="367" y="700" type="line"/>
			<point x="277" y="700" type="line"/>
			<point x="253" y="550" type="line"/>
			<point x="98" y="550" type="line"/>
			<point x="85" y="468" type="line"/>
			<point x="240" y="468" type="line"/>
			<point x="189" y="145" type="line" smooth="yes"/>
			<point x="174" y="53"/>
			<point x="221" y="0"/>
		</contour>
	</outline>
</glyph>
<glyph name="u" format="2">
	<advance width="600"/>
	<unicode hex="0075"/>
	<outline>
		<contour>
			<point x="253" y="-10" type="curve" smooth="yes"/>
			<point x="380" y="-10"/>
			<point x="474" y="71"/>
			<point x="495" y="200" type="curve" smooth="yes"/>
			<point x="550" y="550" type="line"/>
			<point x="460" y="550" type="line"/>
			<point x="405" y="200" type="line" smooth="yes"/>
			<point x="392" y="117"/>
			<point x="341" y="69"/>
			<point x="266" y="69" type="curve" smooth="yes"/>
			<point x="192" y="69"/>
			<point x="158" y="117"/>
			<point x="171" y="200" type="curve" smooth="yes"/>
			<point x="226" y="550" type="line"/>
			<point x="136" y="550" type="line"/>
			<point x="81" y="200" type="line" smooth="yes"/>
			<point x="60" y="71"/>
			<point x="126" y="-10"/>
		</contour>
	</outline>
</glyph>
<glyph name="v" format="2">
	<advance width="600"/>
	<unicode hex="0076"/>
	<outline>
		<contour>
			<point x="195" y="0" type="line"/>
			<point x="317" y="0" type="line"/>
			<point x="583" y="550" type="line"/>
			<point x="489" y="550" type="line"/>
			<point x="316" y="180" type="line" smooth="yes"/>
			<point x="288" y="120"/>
			<point x="267" y="69"/>
			<point x="267" y="69" type="curve"/>
			<point x="267" y="69"/>
			<point x="261" y="120"/>
			<point x="251" y="180" type="curve" smooth="yes"/>
			<point x="192" y="550" type="line"/>
			<point x="103" y="550" type="line"/>
		</contour>
	</outline>
</glyph>
<glyph name="w" format="2">
	<advance width="600"/>
	<unicode hex="0077"/>
	<outline>
		<contour>
			<point x="79" y="0" type="line"/>
			<point x="178" y="0" type="line"/>
			<point x="300" y="380" type="line" smooth="yes"/>
			<point x="316" y="431"/>
			<point x="332" y="485"/>
			<point x="332" y="485" type="curve"/>
			<point x="332" y="485"/>
			<point x="331" y="431"/>
			<point x="331" y="380" type="curve" smooth="yes"/>
			<point x="330" y="0" type="line"/>
			<point x="429" y="0" type="line"/>
			<point x="608" y="550" type="line"/>
			<point x="531" y="550" type="line"/>
			<point x="412" y="160" type="line" smooth="yes"/>
			<point x="400" y="120"/>
			<point x="383" y="65"/>
			<point x="383" y="65" type="curve"/>
			<point x="383" y="65"/>
			<point x="384" y="120"/>
			<point x="384" y="160" type="curve" smooth="yes"/>
			<point x="383" y="550" type="line"/>
			<point x="300" y="550" type="line"/>
			<point x="176" y="160" type="line" smooth="yes"/>
			<point x="164" y="120"/>
			<point x="147" y="65"/>
			<point x="147" y="65" type="curve"/>
			<point x="147" y="65"/>
			<point x="150" y="120"/>
			<point x="150" y="160" type="curve" smooth="yes"/>
			<point x="156" y="550" type="line"/>
			<point x="78" y="550" type="line"/>
		</contour>
	</outline>
</glyph>
<glyph name="x" format="2">
	<advance width="600"/>
	<unicode hex="0078"/>
	<outline>
		<contour>
			<point x="11" y="0" type="line"/>
			<point x="119" y="0" type="line"/>
			<point x="262" y="180" type="line" smooth="yes"/>
			<point x="278" y="201"/>
			<point x="295" y="229"/>
			<point x="295" y="229" type="curve"/>
			<point x="295" y="229"/>
			<point x="305" y="200"/>
			<point x="314" y="180" type="curve" smooth="yes"/>
			<point x="399" y="0" type="line"/>
			<point x="501" y="0" type="line"/>
			<point x="357" y="282" type="line"/>
			<point x="577" y="550" type="line"/>
			<point x="469" y="550" type="line"/>
			<point x="337" y="380" type="line" smooth="yes"/>
			<point x="321" y="360"/>
			<point x="308" y="335"/>
			<point x="308" y="335" type="curve"/>
			<point x="308" y="335"/>
			<point x="299" y="360"/>
			<point x="290" y="380" type="curve" smooth="yes"/>
			<point x="212" y="550" type="line"/>
			<point x="110" y="550" type="line"/>
			<point x="246" y="283" type="line"/>
		</contour>
	</outline>
</glyph>
<glyph name="y" format="2">
	<advance width="600"/>
	<unicode hex="0079"/>
	<outline>
		<contour>
			<point x="88" y="-180" type="line"/>
			<point x="262" y="-180" type="line" smooth="yes"/>
			<point x="368" y="-180"/>
			<point x="442" y="-119"/>
			<point x="458" y="-20" type="curve" smooth="yes"/>
			<point x="548" y="550" type="line"/>
			<point x="461" y="550" type="line"/>
			<point x="411" y="245" type="line" smooth="yes"/>
			<point x="398" y="162"/>
			<point x="346" y="113"/>
			<point x="272" y="113" type="curve" smooth="yes"/>
			<point x="196" y="113"/>
			<point x="161" y="160"/>
			<point x="175" y="245" type="curve" smooth="yes"/>
			<point x="223" y="550" type="line"/>
			<point x="133" y="550" type="line"/>
			<point x="84" y="240" type="line" smooth="yes"/>
			<point x="64" y="113"/>
			<point x="119" y="35"/>
			<point x="230" y="35" type="curve" smooth="yes"/>
			<point x="320" y="35"/>
			<point x="380" y="83"/>
			<point x="393" y="165" type="curve"/>
			<point x="358" y="120" type="line"/>
			<point x="393" y="120" type="line"/>
			<point x="379" y="50" type="line"/>
			<point x="377" y="36"/>
			<point x="370" y="-5"/>
			<point x="368" y="-20" type="curve" smooth="yes"/>
			<point x="359" y="-73"/>
			<point x="330" y="-98"/>
			<point x="276" y="-98" type="curve" smooth="yes"/>
			<point x="101" y="-98" type="line"/>
		</contour>
	</outline>
</glyph>
<glyph name="z" format="2">
	<advance width="600"/>
	<unicode hex="007A"/>
	<outline>
		<contour>
			<point x="46" y="0" type="line"/>
			<point x="466" y="0" type="line"/>
			<point x="479" y="81" type="line"/>
			<point x="158" y="81" type="line"/>
			<point x="528" y="461" type="line"/>
			<point x="542" y="550" type="line"/>
			<point x="141" y="550" type="line"/>
			<point x="128" y="469" type="line"/>
			<point x="424" y="469" type="line"/>
			<point x="60" y="89" type="line"/>
		</contour>
	</outline>
</glyph>
<glyph name="braceleft" format="2">
	<advance width="600"/>
	<unicode hex="007B"/>
	<outline>
		<contour>
			<point x="409" y="-110" type="curve" smooth="yes"/>
			<point x="454" y="-110" type="line"/>
			<point x="466" y="-30" type="line"/>
			<point x="421" y="-30" type="line" smooth="yes"/>
			<point x="358" y="-30"/>
			<point x="327" y="-1"/>
			<point x="340" y="56" type="curve" smooth="yes"/>
			<point x="376" y="220" type="line" smooth="yes"/>
			<point x="395" y="306"/>
			<point x="353" y="363"/>
			<point x="268" y="363" type="curve"/>
			<point x="268" y="358" type="line"/>
			<point x="352" y="358"/>
			<point x="412" y="413"/>
			<point x="420" y="500" type="curve" smooth="yes"/>
			<point x="436" y="664" type="line" smooth="yes"/>
			<point x="442" y="721"/>
			<point x="482" y="750"/>
			<point x="545" y="750" type="curve" smooth="yes"/>
			<point x="590" y="750" type="line"/>
			<point x="602" y="830" type="line"/>
			<point x="557" y="830" type="line" smooth="yes"/>
			<point x="439" y="830"/>
			<point x="356" y="769"/>
			<point x="346" y="664" type="curve" smooth="yes"/>
			<point x="330" y="500" type="line" smooth="yes"/>
			<point x="323" y="429"/>
			<point x="301" y="400"/>
			<point x="214" y="400" type="curve" smooth="yes"/>
			<point x="104" y="400" type="line"/>
			<point x="92" y="320" type="line"/>
			<point x="202" y="320" type="line" smooth="yes"/>
			<point x="288" y="320"/>
			<point x="301" y="291"/>
			<point x="286" y="220" type="curve" smooth="yes"/>
			<point x="250" y="56" type="line" smooth="yes"/>
			<point x="227" y="-49"/>
			<point x="291" y="-110"/>
		</contour>
	</outline>
</glyph>
<glyph name="bar" format="2">
	<advance width="600"/>
	<unicode hex="007C"/>
	<outline>
		<contour>
			<point x="194" y="-110" type="line"/>
			<point x="284" y="-110" type="line"/>
			<point x="432" y="830" type="line"/>
			<point x="342" y="830" type="line"/>
		</contour>
	</outline>
</glyph>
<glyph name="braceright" format="2">
	<advance width="600"/>
	<unicode hex="007D"/>
	<guideline x="-88" y="830" angle="0"/>
	<guideline x="-88" y="-110" angle="0"/>
	<outline>
		<contour>
			<point x="24" y="-110" type="line"/>
			<point x="69" y="-110" type="line" smooth="yes"/>
			<point x="187" y="-110"/>
			<point x="269" y="-49"/>
			<point x="280" y="56" type="curve" smooth="yes"/>
			<point x="296" y="220" type="line" smooth="yes"/>
			<point x="303" y="291"/>
			<point x="326" y="320"/>
			<point x="412" y="320" type="curve" smooth="yes"/>
			<point x="522" y="320" type="line"/>
			<point x="534" y="400" type="line"/>
			<point x="424" y="400" type="line" smooth="yes"/>
			<point x="337" y="400"/>
			<point x="325" y="429"/>
			<point x="340" y="500" type="curve" smooth="yes"/>
			<point x="376" y="664" type="line" smooth="yes"/>
			<point x="399" y="769"/>
			<point x="335" y="830"/>
			<point x="217" y="830" type="curve" smooth="yes"/>
			<point x="172" y="830" type="line"/>
			<point x="160" y="750" type="line"/>
			<point x="205" y="750" type="line" smooth="yes"/>
			<point x="268" y="750"/>
			<point x="298" y="721"/>
			<point x="286" y="664" type="curve" smooth="yes"/>
			<point x="250" y="500" type="line" smooth="yes"/>
			<point x="231" y="413"/>
			<point x="273" y="358"/>
			<point x="358" y="358" type="curve"/>
			<point x="358" y="363" type="line"/>
			<point x="274" y="363"/>
			<point x="214" y="306"/>
			<point x="206" y="220" type="curve" smooth="yes"/>
			<point x="190" y="56" type="line" smooth="yes"/>
			<point x="184" y="-1"/>
			<point x="144" y="-30"/>
			<point x="81" y="-30" type="curve" smooth="yes"/>
			<point x="36" y="-30" type="line"/>
		</contour>
	</outline>
</glyph>
<glyph name="asciitilde" format="2">
	<advance width="600"/>
	<unicode hex="007E"/>
	<outline>
		<contour>
			<point x="411" y="250" type="curve" smooth="yes"/>
			<point x="486" y="250"/>
			<point x="538" y="299"/>
			<point x="551" y="380" type="curve" smooth="yes"/>
			<point x="562" y="450" type="line"/>
			<point x="477" y="450" type="line"/>
			<point x="466" y="380" type="line" smooth="yes"/>
			<point x="460" y="344"/>
			<point x="440" y="325"/>
			<point x="410" y="325" type="curve" smooth="yes"/>
			<point x="342" y="325"/>
			<point x="338" y="455"/>
			<point x="213" y="455" type="curve" smooth="yes"/>
			<point x="138" y="455"/>
			<point x="85" y="406"/>
			<point x="72" y="325" type="curve" smooth="yes"/>
			<point x="61" y="255" type="line"/>
			<point x="146" y="255" type="line"/>
			<point x="157" y="325" type="line" smooth="yes"/>
			<point x="163" y="361"/>
			<point x="183" y="380"/>
			<point x="213" y="380" type="curve" smooth="yes"/>
			<point x="281" y="380"/>
			<point x="286" y="250"/>
		</contour>
	</outline>
</glyph>
<glyph name="exclamdown" format="2">
	<advance width="600"/>
	<unicode hex="00A1"/>
	<outline>
		<contour>
			<point x="174" y="-180" type="line"/>
			<point x="280" y="-180" type="line"/>
			<point x="300" y="-55" type="line"/>
			<point x="341" y="336" type="line"/>
			<point x="277" y="336" type="line"/>
			<point x="194" y="-55" type="line"/>
		</contour>
		<contour>
			<point x="315" y="436" type="curve" smooth="yes"/>
			<point x="335" y="436" type="line" smooth="yes"/>
			<point x="374" y="436"/>
			<point x="404" y="461"/>
			<point x="410" y="497" type="curve" smooth="yes"/>
			<point x="416" y="534"/>
			<point x="393" y="556"/>
			<point x="354" y="556" type="curve" smooth="yes"/>
			<point x="334" y="556" type="line" smooth="yes"/>
			<point x="295" y="556"/>
			<point x="265" y="533"/>
			<point x="259" y="497" type="curve" smooth="yes"/>
			<point x="254" y="461"/>
			<point x="276" y="436"/>
		</contour>
	</outline>
</glyph>
<glyph name="sterling" format="2">
	<advance width="600"/>
	<unicode hex="00A3"/>
	<outline>
		<contour>
			<point x="47" y="100" type="curve"/>
			<point x="31" y="0" type="line"/>
			<point x="491" y="0" type="line"/>
			<point x="504" y="80" type="line"/>
			<point x="134" y="80" type="line"/>
			<point x="134" y="80"/>
			<point x="254" y="144"/>
			<point x="273" y="263" type="curve" smooth="yes"/>
			<point x="298" y="422"/>
			<point x="204" y="446"/>
			<point x="220" y="550" type="curve" smooth="yes"/>
			<point x="231" y="620"/>
			<point x="281" y="660"/>
			<point x="360" y="660" type="curve" smooth="yes"/>
			<point x="433" y="660"/>
			<point x="474" y="617"/>
			<point x="463" y="550" type="curve"/>
			<point x="558" y="550" type="line"/>
			<point x="575" y="669"/>
			<point x="505" y="740"/>
			<point x="373" y="740" type="curve" smooth="yes"/>
			<point x="242" y="740"/>
			<point x="148" y="668"/>
			<point x="130" y="555" type="curve" smooth="yes"/>
			<point x="110" y="429"/>
			<point x="203" y="398"/>
			<point x="180" y="254" type="curve" smooth="yes"/>
			<point x="169" y="186"/>
			<point x="47" y="100"/>
		</contour>
		<contour>
			<point x="79" y="305" type="line"/>
			<point x="439" y="305" type="line"/>
			<point x="452" y="385" type="line"/>
			<point x="92" y="385" type="line"/>
		</contour>
	</outline>
</glyph>
<glyph name="yen" format="2">
	<advance width="600"/>
	<unicode hex="00A5"/>
	<outline>
		<contour>
			<point x="59" y="270" type="line"/>
			<point x="539" y="270" type="line"/>
			<point x="551" y="345" type="line"/>
			<point x="71" y="345" type="line"/>
		</contour>
		<contour>
			<point x="35" y="120" type="line"/>
			<point x="515" y="120" type="line"/>
			<point x="527" y="195" type="line"/>
			<point x="47" y="195" type="line"/>
		</contour>
		<component base="Y"/>
	</outline>
</glyph>
<glyph name="brokenbar" format="2">
	<advance width="600"/>
	<unicode hex="00A6"/>
	<outline>
		<contour>
			<point x="282" y="450" type="line"/>
			<point x="372" y="450" type="line"/>
			<point x="432" y="830" type="line"/>
			<point x="342" y="830" type="line"/>
		</contour>
		<contour>
			<point x="194" y="-110" type="line"/>
			<point x="284" y="-110" type="line"/>
			<point x="344" y="270" type="line"/>
			<point x="254" y="270" type="line"/>
		</contour>
	</outline>
</glyph>
<glyph name="section" format="2">
	<advance width="600"/>
	<unicode hex="00A7"/>
	<outline>
		<contour>
			<point x="217" y="-154" type="curve" smooth="yes"/>
			<point x="247" y="-154" type="line" smooth="yes"/>
			<point x="378" y="-154"/>
			<point x="465" y="-89"/>
			<point x="481" y="15" type="curve" smooth="yes"/>
			<point x="504" y="155"/>
			<point x="370" y="163"/>
			<point x="370" y="163" type="curve"/>
			<point x="371" y="170" type="line"/>
			<point x="451" y="170"/>
			<point x="514" y="231"/>
			<point x="526" y="308" type="curve" smooth="yes"/>
			<point x="539" y="389"/>
			<point x="491" y="450"/>
			<point x="398" y="470" type="curve" smooth="yes"/>
			<point x="311" y="489" type="line" smooth="yes"/>
			<point x="253" y="502"/>
			<point x="222" y="535"/>
			<point x="229" y="578" type="curve" smooth="yes"/>
			<point x="236" y="628"/>
			<point x="282" y="660"/>
			<point x="350" y="660" type="curve" smooth="yes"/>
			<point x="380" y="660" type="line" smooth="yes"/>
			<point x="432" y="660"/>
			<point x="468" y="634"/>
			<point x="472" y="595" type="curve"/>
			<point x="567" y="595" type="line"/>
			<point x="567" y="682"/>
			<point x="497" y="740"/>
			<point x="392" y="740" type="curve" smooth="yes"/>
			<point x="362" y="740" type="line" smooth="yes"/>
			<point x="237" y="740"/>
			<point x="153" y="677"/>
			<point x="138" y="579" type="curve" smooth="yes"/>
			<point x="115" y="434"/>
			<point x="240" y="436"/>
			<point x="240" y="436" type="curve"/>
			<point x="239" y="429" type="line"/>
			<point x="164" y="422"/>
			<point x="99" y="361"/>
			<point x="87" y="285" type="curve" smooth="yes"/>
			<point x="75" y="207"/>
			<point x="126" y="142"/>
			<point x="215" y="124" type="curve" smooth="yes"/>
			<point x="304" y="105" type="line" smooth="yes"/>
			<point x="368" y="91"/>
			<point x="398" y="60"/>
			<point x="390" y="12" type="curve" smooth="yes"/>
			<point x="382" y="-40"/>
			<point x="335" y="-74"/>
			<point x="259" y="-74" type="curve" smooth="yes"/>
			<point x="229" y="-74" type="line" smooth="yes"/>
			<point x="173" y="-74"/>
			<point x="133" y="-44"/>
			<point x="128" y="0" type="curve"/>
			<point x="33" y="0" type="line"/>
			<point x="33" y="-92"/>
			<point x="108" y="-154"/>
		</contour>
		<contour>
			<point x="315" y="185" type="curve" smooth="yes"/>
			<point x="242" y="200" type="line" smooth="yes"/>
			<point x="197" y="209"/>
			<point x="172" y="249"/>
			<point x="181" y="300" type="curve" smooth="yes"/>
			<point x="191" y="368"/>
			<point x="241" y="421"/>
			<point x="298" y="409" type="curve" smooth="yes"/>
			<point x="369" y="394" type="line" smooth="yes"/>
			<point x="415" y="384"/>
			<point x="441" y="346"/>
			<point x="433" y="299" type="curve" smooth="yes"/>
			<point x="422" y="228"/>
			<point x="373" y="173"/>
		</contour>
	</outline>
</glyph>
<glyph name="dieresis" format="2">
	<advance width="600"/>
	<unicode hex="00A8"/>
	<outline>
		<contour>
			<point x="462" y="640" type="curve" smooth="yes"/>
			<point x="497" y="640"/>
			<point x="526" y="665"/>
			<point x="532" y="700" type="curve" smooth="yes"/>
			<point x="537" y="735"/>
			<point x="516" y="760"/>
			<point x="481" y="760" type="curve" smooth="yes"/>
			<point x="447" y="760"/>
			<point x="417" y="735"/>
			<point x="412" y="700" type="curve" smooth="yes"/>
			<point x="406" y="665"/>
			<point x="428" y="640"/>
		</contour>
		<contour>
			<point x="252" y="640" type="curve" smooth="yes"/>
			<point x="287" y="640"/>
			<point x="316" y="665"/>
			<point x="322" y="700" type="curve" smooth="yes"/>
			<point x="327" y="735"/>
			<point x="306" y="760"/>
			<point x="271" y="760" type="curve" smooth="yes"/>
			<point x="237" y="760"/>
			<point x="207" y="735"/>
			<point x="202" y="700" type="curve" smooth="yes"/>
			<point x="196" y="665"/>
			<point x="218" y="640"/>
		</contour>
	</outline>
</glyph>
<glyph name="copyright" format="2">
	<advance width="600"/>
	<unicode hex="00A9"/>
	<outline>
		<contour>
			<point x="273" y="110" type="curve" smooth="yes"/>
			<point x="426" y="110"/>
			<point x="544" y="206"/>
			<point x="566" y="350" type="curve" smooth="yes"/>
			<point x="590" y="500" type="line" smooth="yes"/>
			<point x="613" y="644"/>
			<point x="526" y="740"/>
			<point x="373" y="740" type="curve" smooth="yes"/>
			<point x="220" y="740"/>
			<point x="103" y="644"/>
			<point x="80" y="500" type="curve" smooth="yes"/>
			<point x="56" y="350" type="line" smooth="yes"/>
			<point x="34" y="206"/>
			<point x="120" y="110"/>
		</contour>
		<contour>
			<point x="281" y="160" type="curve" smooth="yes"/>
			<point x="162" y="160"/>
			<point x="93" y="236"/>
			<point x="111" y="350" type="curve" smooth="yes"/>
			<point x="135" y="500" type="line" smooth="yes"/>
			<point x="153" y="614"/>
			<point x="246" y="690"/>
			<point x="365" y="690" type="curve" smooth="yes"/>
			<point x="485" y="690"/>
			<point x="553" y="614"/>
			<point x="535" y="500" type="curve" smooth="yes"/>
			<point x="511" y="350" type="line" smooth="yes"/>
			<point x="493" y="236"/>
			<point x="401" y="160"/>
		</contour>
		<contour>
			<point x="300" y="245" type="curve" smooth="yes"/>
			<point x="374" y="245"/>
			<point x="431" y="291"/>
			<point x="442" y="360" type="curve"/>
			<point x="377" y="360" type="line"/>
			<point x="371" y="324"/>
			<point x="344" y="300"/>
			<point x="309" y="300" type="curve" smooth="yes"/>
			<point x="273" y="300"/>
			<point x="252" y="324"/>
			<point x="258" y="360" type="curve" smooth="yes"/>
			<point x="279" y="490" type="line" smooth="yes"/>
			<point x="284" y="526"/>
			<point x="312" y="550"/>
			<point x="348" y="550" type="curve" smooth="yes"/>
			<point x="384" y="550"/>
			<point x="403" y="526"/>
			<point x="398" y="490" type="curve"/>
			<point x="463" y="490" type="line"/>
			<point x="474" y="559"/>
			<point x="431" y="605"/>
			<point x="357" y="605" type="curve" smooth="yes"/>
			<point x="282" y="605"/>
			<point x="225" y="559"/>
			<point x="214" y="490" type="curve" smooth="yes"/>
			<point x="193" y="360" type="line" smooth="yes"/>
			<point x="182" y="291"/>
			<point x="225" y="245"/>
		</contour>
	</outline>
</glyph>
<glyph name="ordfeminine" format="2">
	<advance width="600"/>
	<unicode hex="00AA"/>
	<outline>
		<contour>
			<point x="401" y="455" type="line"/>
			<point x="448" y="455" type="line"/>
			<point x="479" y="650" type="line" smooth="yes"/>
			<point x="488" y="706"/>
			<point x="449" y="740"/>
			<point x="378" y="740" type="curve" smooth="yes"/>
			<point x="312" y="740"/>
			<point x="266" y="711"/>
			<point x="251" y="660" type="curve"/>
			<point x="301" y="660" type="line"/>
			<point x="308" y="684"/>
			<point x="337" y="700"/>
			<point x="372" y="700" type="curve" smooth="yes"/>
			<point x="412" y="700"/>
			<point x="434" y="681"/>
			<point x="429" y="650" type="curve" smooth="yes"/>
			<point x="407" y="510" type="line"/>
			<point x="410" y="510" type="line"/>
		</contour>
		<contour>
			<point x="301" y="450" type="curve" smooth="yes"/>
			<point x="347" y="450"/>
			<point x="387" y="473"/>
			<point x="407" y="510" type="curve"/>
			<point x="418" y="510" type="line"/>
			<point x="425" y="555" type="line"/>
			<point x="414" y="555" type="line"/>
			<point x="407" y="513"/>
			<point x="372" y="488"/>
			<point x="320" y="488" type="curve" smooth="yes"/>
			<point x="282" y="488"/>
			<point x="261" y="506"/>
			<point x="266" y="536" type="curve" smooth="yes"/>
			<point x="270" y="564"/>
			<point x="293" y="581"/>
			<point x="328" y="581" type="curve" smooth="yes"/>
			<point x="429" y="581" type="line"/>
			<point x="435" y="621" type="line"/>
			<point x="334" y="621" type="line" smooth="yes"/>
			<point x="269" y="621"/>
			<point x="224" y="588"/>
			<point x="216" y="536" type="curve" smooth="yes"/>
			<point x="208" y="484"/>
			<point x="241" y="450"/>
		</contour>
	</outline>
</glyph>
<glyph name="guillemotleft" format="2">
	<advance width="600"/>
	<unicode hex="00AB"/>
	<outline>
		<contour>
			<point x="424" y="40" type="line"/>
			<point x="525" y="40" type="line"/>
			<point x="363" y="277" type="line"/>
			<point x="608" y="520" type="line"/>
			<point x="498" y="520" type="line"/>
			<point x="260" y="280" type="line"/>
		</contour>
		<contour>
			<point x="194" y="40" type="line"/>
			<point x="295" y="40" type="line"/>
			<point x="133" y="277" type="line"/>
			<point x="378" y="520" type="line"/>
			<point x="268" y="520" type="line"/>
			<point x="30" y="280" type="line"/>
		</contour>
	</outline>
</glyph>
<glyph name="logicalnot" format="2">
	<advance width="600"/>
	<unicode hex="00AC"/>
	<outline>
		<contour>
			<point x="433" y="205" type="line"/>
			<point x="518" y="205" type="line"/>
			<point x="552" y="415" type="line"/>
			<point x="92" y="415" type="line"/>
			<point x="79" y="335" type="line"/>
			<point x="454" y="335" type="line"/>
		</contour>
	</outline>
</glyph>
<glyph name="registered" format="2">
	<advance width="600"/>
	<unicode hex="00AE"/>
	<outline>
		<contour>
			<point x="273" y="110" type="curve" smooth="yes"/>
			<point x="426" y="110"/>
			<point x="544" y="206"/>
			<point x="566" y="350" type="curve" smooth="yes"/>
			<point x="590" y="500" type="line" smooth="yes"/>
			<point x="613" y="644"/>
			<point x="526" y="740"/>
			<point x="373" y="740" type="curve" smooth="yes"/>
			<point x="220" y="740"/>
			<point x="103" y="644"/>
			<point x="80" y="500" type="curve" smooth="yes"/>
			<point x="56" y="350" type="line" smooth="yes"/>
			<point x="34" y="206"/>
			<point x="120" y="110"/>
		</contour>
		<contour>
			<point x="359" y="250" type="line"/>
			<point x="423" y="250" type="line"/>
			<point x="380" y="403" type="line"/>
			<point x="319" y="403" type="line"/>
		</contour>
		<contour>
			<point x="281" y="160" type="curve" smooth="yes"/>
			<point x="162" y="160"/>
			<point x="93" y="236"/>
			<point x="111" y="350" type="curve"/>
			<point x="135" y="500" type="line" smooth="yes"/>
			<point x="153" y="614"/>
			<point x="246" y="690"/>
			<point x="365" y="690" type="curve" smooth="yes"/>
			<point x="485" y="690"/>
			<point x="553" y="614"/>
			<point x="535" y="500" type="curve" smooth="yes"/>
			<point x="511" y="350" type="line" smooth="yes"/>
			<point x="493" y="236"/>
			<point x="401" y="160"/>
		</contour>
		<contour>
			<point x="186" y="250" type="line"/>
			<point x="246" y="250" type="line"/>
			<point x="268" y="390" type="line"/>
			<point x="322" y="390" type="line" smooth="yes"/>
			<point x="394" y="390"/>
			<point x="445" y="431"/>
			<point x="455" y="495" type="curve" smooth="yes"/>
			<point x="466" y="559"/>
			<point x="427" y="600"/>
			<point x="355" y="600" type="curve" smooth="yes"/>
			<point x="241" y="600" type="line"/>
		</contour>
		<contour>
			<point x="330" y="440" type="curve" smooth="yes"/>
			<point x="276" y="440" type="line"/>
			<point x="293" y="550" type="line"/>
			<point x="347" y="550" type="line" smooth="yes"/>
			<point x="382" y="550"/>
			<point x="400" y="530"/>
			<point x="394" y="495" type="curve" smooth="yes"/>
			<point x="389" y="460"/>
			<point x="365" y="440"/>
		</contour>
	</outline>
</glyph>
<glyph name="macron" format="2">
	<advance width="600"/>
	<unicode hex="00AF"/>
	<outline>
		<contour>
			<point x="231" y="665" type="line"/>
			<point x="491" y="665" type="line"/>
			<point x="503" y="740" type="line"/>
			<point x="243" y="740" type="line"/>
		</contour>
	</outline>
</glyph>
<glyph name="degree" format="2">
	<advance width="600"/>
	<unicode hex="00B0"/>
	<outline>
		<contour>
			<point x="327" y="450" type="curve" smooth="yes"/>
			<point x="417" y="450"/>
			<point x="486" y="508"/>
			<point x="500" y="595" type="curve" smooth="yes"/>
			<point x="514" y="682"/>
			<point x="463" y="740"/>
			<point x="373" y="740" type="curve" smooth="yes"/>
			<point x="283" y="740"/>
			<point x="214" y="682"/>
			<point x="200" y="595" type="curve" smooth="yes"/>
			<point x="186" y="508"/>
			<point x="237" y="450"/>
		</contour>
		<contour>
			<point x="334" y="501" type="curve" smooth="yes"/>
			<point x="281" y="501"/>
			<point x="251" y="539"/>
			<point x="260" y="595" type="curve" smooth="yes"/>
			<point x="269" y="652"/>
			<point x="311" y="690"/>
			<point x="364" y="690" type="curve" smooth="yes"/>
			<point x="419" y="690"/>
			<point x="449" y="652"/>
			<point x="440" y="595" type="curve" smooth="yes"/>
			<point x="431" y="539"/>
			<point x="389" y="501"/>
		</contour>
	</outline>
</glyph>
<glyph name="plusminus" format="2">
	<advance width="600"/>
	<unicode hex="00B1"/>
	<outline>
		<contour>
			<point x="26" y="0" type="line"/>
			<point x="486" y="0" type="line"/>
			<point x="497" y="70" type="line"/>
			<point x="311" y="70" type="line"/>
			<point x="347" y="295" type="line"/>
			<point x="538" y="295" type="line"/>
			<point x="550" y="375" type="line"/>
			<point x="359" y="375" type="line"/>
			<point x="390" y="570" type="line"/>
			<point x="302" y="570" type="line"/>
			<point x="271" y="375" type="line"/>
			<point x="80" y="375" type="line"/>
			<point x="68" y="295" type="line"/>
			<point x="259" y="295" type="line"/>
			<point x="223" y="70" type="line"/>
			<point x="37" y="70" type="line"/>
		</contour>
	</outline>
</glyph>
<glyph name="uni00B2" format="2">
	<advance width="600"/>
	<unicode hex="00B2"/>
	<outline>
		<contour>
			<point x="187" y="405" type="line"/>
			<point x="476" y="405" type="line"/>
			<point x="486" y="469" type="line"/>
			<point x="271" y="469" type="line"/>
			<point x="411" y="562" type="line" smooth="yes"/>
			<point x="465" y="598"/>
			<point x="504" y="651"/>
			<point x="511" y="698" type="curve" smooth="yes"/>
			<point x="524" y="785"/>
			<point x="477" y="840"/>
			<point x="387" y="840" type="curve" smooth="yes"/>
			<point x="301" y="840"/>
			<point x="236" y="784"/>
			<point x="218" y="696" type="curve"/>
			<point x="288" y="696" type="line"/>
			<point x="296" y="746"/>
			<point x="330" y="777"/>
			<point x="377" y="777" type="curve" smooth="yes"/>
			<point x="424" y="777"/>
			<point x="450" y="746"/>
			<point x="442" y="696" type="curve" smooth="yes"/>
			<point x="437" y="666"/>
			<point x="414" y="635"/>
			<point x="381" y="613" type="curve" smooth="yes"/>
			<point x="200" y="492" type="line"/>
		</contour>
	</outline>
</glyph>
<glyph name="uni00B3" format="2">
	<advance width="600"/>
	<unicode hex="00B3"/>
	<outline>
		<contour>
			<point x="303" y="395" type="curve" smooth="yes"/>
			<point x="394" y="395"/>
			<point x="460" y="449"/>
			<point x="473" y="535" type="curve" smooth="yes"/>
			<point x="485" y="617"/>
			<point x="438" y="669"/>
			<point x="350" y="669" type="curve"/>
			<point x="346" y="640" type="line"/>
			<point x="481" y="753" type="line"/>
			<point x="493" y="831" type="line"/>
			<point x="253" y="831" type="line"/>
			<point x="243" y="767" type="line"/>
			<point x="425" y="767" type="line"/>
			<point x="319" y="680" type="line"/>
			<point x="308" y="611" type="line"/>
			<point x="338" y="611" type="line" smooth="yes"/>
			<point x="384" y="611"/>
			<point x="409" y="582"/>
			<point x="401" y="535" type="curve" smooth="yes"/>
			<point x="393" y="488"/>
			<point x="360" y="458"/>
			<point x="313" y="458" type="curve" smooth="yes"/>
			<point x="264" y="458"/>
			<point x="239" y="488"/>
			<point x="246" y="535" type="curve"/>
			<point x="177" y="535" type="line"/>
			<point x="164" y="449"/>
			<point x="212" y="395"/>
		</contour>
	</outline>
</glyph>
<glyph name="acute" format="2">
	<advance width="600"/>
	<unicode hex="00B4"/>
	<outline>
		<contour>
			<point x="263" y="645" type="line"/>
			<point x="353" y="645" type="line"/>
			<point x="500" y="785" type="line"/>
			<point x="400" y="785" type="line"/>
		</contour>
	</outline>
</glyph>
<glyph name="uni00B5" format="2">
	<advance width="600"/>
	<unicode hex="00B5"/>
	<outline>
		<contour>
			<point x="18" y="-180" type="line"/>
			<point x="107" y="-180" type="line"/>
			<point x="122" y="-13" type="line" smooth="yes"/>
			<point x="125" y="18"/>
			<point x="120" y="67"/>
			<point x="118" y="67" type="curve"/>
			<point x="122" y="67" type="line"/>
			<point x="122" y="67"/>
			<point x="134" y="-10"/>
			<point x="264" y="-10" type="curve" smooth="yes"/>
			<point x="391" y="-10"/>
			<point x="477" y="66"/>
			<point x="497" y="194" type="curve" smooth="yes"/>
			<point x="554" y="550" type="line"/>
			<point x="464" y="550" type="line"/>
			<point x="407" y="194" type="line" smooth="yes"/>
			<point x="394" y="114"/>
			<point x="350" y="69"/>
			<point x="266" y="69" type="curve" smooth="yes"/>
			<point x="183" y="69"/>
			<point x="154" y="114"/>
			<point x="167" y="194" type="curve" smooth="yes"/>
			<point x="224" y="550" type="line"/>
			<point x="134" y="550" type="line"/>
		</contour>
	</outline>
</glyph>
<glyph name="paragraph" format="2">
	<advance width="600"/>
	<unicode hex="00B6"/>
	<outline>
		<contour>
			<point x="260" y="310" type="curve"/>
			<point x="182" y="-180" type="line"/>
			<point x="262" y="-180" type="line"/>
			<point x="407" y="730" type="line"/>
			<point x="327" y="730" type="line" smooth="yes"/>
			<point x="213" y="730"/>
			<point x="126" y="662"/>
			<point x="110" y="560" type="curve" smooth="yes"/>
			<point x="97" y="480" type="line" smooth="yes"/>
			<point x="81" y="378"/>
			<point x="146" y="310"/>
		</contour>
		<contour>
			<point x="352" y="-180" type="line"/>
			<point x="432" y="-180" type="line"/>
			<point x="577" y="730" type="line"/>
			<point x="497" y="730" type="line"/>
		</contour>
	</outline>
</glyph>
<glyph name="cedilla" format="2">
	<advance width="600"/>
	<unicode hex="00B8"/>
	<outline>
		<contour>
			<point x="129" y="-203" type="line"/>
			<point x="214" y="-203" type="line" smooth="yes"/>
			<point x="286" y="-203"/>
			<point x="340" y="-166"/>
			<point x="347" y="-120" type="curve" smooth="yes"/>
			<point x="358" y="-49"/>
			<point x="241" y="-35"/>
			<point x="241" y="-35" type="curve"/>
			<point x="271" y="26" type="line"/>
			<point x="214" y="26" type="line"/>
			<point x="164" y="-69" type="line"/>
			<point x="231" y="-69"/>
			<point x="266" y="-89"/>
			<point x="262" y="-112" type="curve" smooth="yes"/>
			<point x="259" y="-130"/>
			<point x="237" y="-148"/>
			<point x="208" y="-148" type="curve" smooth="yes"/>
			<point x="138" y="-148" type="line"/>
		</contour>
	</outline>
</glyph>
<glyph name="uni00B9" format="2">
	<advance width="600"/>
	<unicode hex="00B9"/>
	<outline>
		<contour>
			<point x="176" y="405" type="line"/>
			<point x="481" y="405" type="line"/>
			<point x="491" y="469" type="line"/>
			<point x="387" y="469" type="line"/>
			<point x="445" y="830" type="line"/>
			<point x="350" y="830" type="line"/>
			<point x="241" y="759" type="line"/>
			<point x="229" y="680" type="line"/>
			<point x="365" y="767" type="line"/>
			<point x="317" y="469" type="line"/>
			<point x="186" y="469" type="line"/>
		</contour>
	</outline>
</glyph>
<glyph name="ordmasculine" format="2">
	<advance width="600"/>
	<unicode hex="00BA"/>
	<outline>
		<contour>
			<point x="326" y="445" type="curve" smooth="yes"/>
			<point x="395" y="445"/>
			<point x="448" y="487"/>
			<point x="458" y="550" type="curve" smooth="yes"/>
			<point x="471" y="630" type="line" smooth="yes"/>
			<point x="481" y="693"/>
			<point x="441" y="735"/>
			<point x="372" y="735" type="curve" smooth="yes"/>
			<point x="303" y="735"/>
			<point x="251" y="693"/>
			<point x="241" y="630" type="curve" smooth="yes"/>
			<point x="228" y="550" type="line" smooth="yes"/>
			<point x="218" y="487"/>
			<point x="257" y="445"/>
		</contour>
		<contour>
			<point x="333" y="485" type="curve" smooth="yes"/>
			<point x="294" y="485"/>
			<point x="272" y="511"/>
			<point x="278" y="550" type="curve" smooth="yes"/>
			<point x="291" y="630" type="line" smooth="yes"/>
			<point x="297" y="669"/>
			<point x="327" y="695"/>
			<point x="366" y="695" type="curve" smooth="yes"/>
			<point x="405" y="695"/>
			<point x="427" y="669"/>
			<point x="421" y="630" type="curve" smooth="yes"/>
			<point x="408" y="550" type="line" smooth="yes"/>
			<point x="402" y="511"/>
			<point x="372" y="485"/>
		</contour>
	</outline>
</glyph>
<glyph name="guillemotright" format="2">
	<advance width="600"/>
	<unicode hex="00BB"/>
	<outline>
		<contour>
			<point x="224" y="40" type="line"/>
			<point x="332" y="40" type="line"/>
			<point x="570" y="280" type="line"/>
			<point x="406" y="520" type="line"/>
			<point x="305" y="520" type="line"/>
			<point x="465" y="285" type="line"/>
		</contour>
		<contour>
			<point x="-6" y="40" type="line"/>
			<point x="102" y="40" type="line"/>
			<point x="340" y="280" type="line"/>
			<point x="176" y="520" type="line"/>
			<point x="75" y="520" type="line"/>
			<point x="235" y="285" type="line"/>
		</contour>
	</outline>
</glyph>
<glyph name="onequarter" format="2">
	<advance width="600"/>
	<unicode hex="00BC"/>
	<outline>
		<contour>
			<point x="446" y="0" type="line"/>
			<point x="506" y="0" type="line"/>
			<point x="539" y="209" type="line"/>
			<point x="479" y="209" type="line"/>
			<point x="465" y="120" type="line"/>
			<point x="350" y="120" type="line"/>
			<point x="352" y="136" type="line"/>
			<point x="517" y="325" type="line"/>
			<point x="448" y="325" type="line"/>
			<point x="294" y="150" type="line"/>
			<point x="282" y="70" type="line"/>
			<point x="457" y="70" type="line"/>
		</contour>
		<contour>
			<point x="50" y="405" type="line"/>
			<point x="325" y="405" type="line"/>
			<point x="333" y="455" type="line"/>
			<point x="236" y="455" type="line"/>
			<point x="280" y="730" type="line"/>
			<point x="195" y="730" type="line"/>
			<point x="115" y="669" type="line"/>
			<point x="104" y="599" type="line"/>
			<point x="174" y="653" type="line" smooth="yes"/>
			<point x="197" y="671"/>
			<point x="213" y="691"/>
			<point x="213" y="691" type="curve"/>
			<point x="176" y="455" type="line"/>
			<point x="58" y="455" type="line"/>
		</contour>
		<component base="fraction"/>
	</outline>
</glyph>
<glyph name="onehalf" format="2">
	<advance width="600"/>
	<unicode hex="00BD"/>
	<outline>
		<contour>
			<point x="48" y="0" type="line"/>
			<point x="109" y="0" type="line"/>
			<point x="580" y="730" type="line"/>
			<point x="519" y="730" type="line"/>
		</contour>
		<contour>
			<point x="271" y="0" type="line"/>
			<point x="526" y="0" type="line"/>
			<point x="534" y="50" type="line"/>
			<point x="425" y="50" type="line" smooth="yes"/>
			<point x="385" y="50"/>
			<point x="349" y="42"/>
			<point x="349" y="42" type="curve"/>
			<point x="350" y="52" type="line"/>
			<point x="451" y="104" type="line" smooth="yes"/>
			<point x="511" y="135"/>
			<point x="549" y="177"/>
			<point x="556" y="218" type="curve" smooth="yes"/>
			<point x="566" y="285"/>
			<point x="523" y="330"/>
			<point x="448" y="330" type="curve" smooth="yes"/>
			<point x="376" y="330"/>
			<point x="319" y="285"/>
			<point x="305" y="216" type="curve"/>
			<point x="365" y="216" type="line"/>
			<point x="371" y="255"/>
			<point x="401" y="280"/>
			<point x="440" y="280" type="curve" smooth="yes"/>
			<point x="479" y="280"/>
			<point x="501" y="255"/>
			<point x="495" y="216" type="curve" smooth="yes"/>
			<point x="491" y="187"/>
			<point x="463" y="160"/>
			<point x="412" y="133" type="curve" smooth="yes"/>
			<point x="281" y="64" type="line"/>
		</contour>
		<contour>
			<point x="50" y="405" type="line"/>
			<point x="325" y="405" type="line"/>
			<point x="333" y="455" type="line"/>
			<point x="236" y="455" type="line"/>
			<point x="280" y="730" type="line"/>
			<point x="195" y="730" type="line"/>
			<point x="115" y="669" type="line"/>
			<point x="104" y="599" type="line"/>
			<point x="174" y="653" type="line" smooth="yes"/>
			<point x="197" y="671"/>
			<point x="213" y="691"/>
			<point x="213" y="691" type="curve"/>
			<point x="176" y="455" type="line"/>
			<point x="58" y="455" type="line"/>
		</contour>
	</outline>
</glyph>
<glyph name="threequarters" format="2">
	<advance width="600"/>
	<unicode hex="00BE"/>
	<outline>
		<contour>
			<point x="446" y="0" type="line"/>
			<point x="506" y="0" type="line"/>
			<point x="539" y="209" type="line"/>
			<point x="479" y="209" type="line"/>
			<point x="465" y="120" type="line"/>
			<point x="350" y="120" type="line"/>
			<point x="352" y="136" type="line"/>
			<point x="517" y="325" type="line"/>
			<point x="448" y="325" type="line"/>
			<point x="294" y="150" type="line"/>
			<point x="282" y="70" type="line"/>
			<point x="457" y="70" type="line"/>
		</contour>
		<contour>
			<point x="173" y="400" type="curve" smooth="yes"/>
			<point x="249" y="400"/>
			<point x="307" y="442"/>
			<point x="317" y="505" type="curve" smooth="yes"/>
			<point x="327" y="568"/>
			<point x="283" y="610"/>
			<point x="210" y="610" type="curve"/>
			<point x="207" y="592" type="line"/>
			<point x="328" y="675" type="line"/>
			<point x="336" y="730" type="line"/>
			<point x="121" y="730" type="line"/>
			<point x="113" y="680" type="line"/>
			<point x="269" y="680" type="line"/>
			<point x="178" y="617" type="line"/>
			<point x="169" y="560" type="line"/>
			<point x="199" y="560" type="line" smooth="yes"/>
			<point x="238" y="560"/>
			<point x="262" y="538"/>
			<point x="257" y="505" type="curve" smooth="yes"/>
			<point x="252" y="472"/>
			<point x="221" y="450"/>
			<point x="181" y="450" type="curve" smooth="yes"/>
			<point x="140" y="450"/>
			<point x="116" y="472"/>
			<point x="122" y="505" type="curve"/>
			<point x="62" y="505" type="line"/>
			<point x="52" y="442"/>
			<point x="96" y="400"/>
		</contour>
		<component base="fraction"/>
	</outline>
</glyph>
<glyph name="questiondown" format="2">
	<advance width="600"/>
	<unicode hex="00BF"/>
	<outline>
		<contour>
			<point x="269" y="-170" type="curve" smooth="yes"/>
			<point x="394" y="-170" type="line"/>
			<point x="408" y="-85" type="line"/>
			<point x="283" y="-85" type="line" smooth="yes"/>
			<point x="196" y="-85"/>
			<point x="150" y="-38"/>
			<point x="162" y="40" type="curve" smooth="yes"/>
			<point x="175" y="118"/>
			<point x="235" y="165"/>
			<point x="321" y="165" type="curve" smooth="yes"/>
			<point x="371" y="165" type="line"/>
			<point x="400" y="345" type="line"/>
			<point x="310" y="345" type="line"/>
			<point x="293" y="240" type="line"/>
			<point x="179" y="234"/>
			<point x="90" y="154"/>
			<point x="72" y="40" type="curve" smooth="yes"/>
			<point x="52" y="-89"/>
			<point x="127" y="-170"/>
		</contour>
		<contour>
			<point x="360" y="435" type="curve" smooth="yes"/>
			<point x="380" y="435" type="line" smooth="yes"/>
			<point x="419" y="435"/>
			<point x="449" y="460"/>
			<point x="455" y="497" type="curve" smooth="yes"/>
			<point x="460" y="533"/>
			<point x="438" y="555"/>
			<point x="399" y="555" type="curve" smooth="yes"/>
			<point x="379" y="555" type="line" smooth="yes"/>
			<point x="340" y="555"/>
			<point x="310" y="532"/>
			<point x="304" y="496" type="curve" smooth="yes"/>
			<point x="299" y="460"/>
			<point x="321" y="435"/>
		</contour>
	</outline>
</glyph>
<glyph name="AE" format="2">
	<advance width="600"/>
	<unicode hex="00C6"/>
	<outline>
		<contour>
			<point x="-14" y="0" type="line"/>
			<point x="77" y="0" type="line"/>
			<point x="149" y="203" type="line"/>
			<point x="290" y="203" type="line"/>
			<point x="258" y="0" type="line"/>
			<point x="526" y="0" type="line"/>
			<point x="539" y="82" type="line"/>
			<point x="357" y="82" type="line"/>
			<point x="398" y="338" type="line"/>
			<point x="555" y="338" type="line"/>
			<point x="568" y="420" type="line"/>
			<point x="411" y="420" type="line"/>
			<point x="447" y="648" type="line"/>
			<point x="629" y="648" type="line"/>
			<point x="642" y="730" type="line"/>
			<point x="247" y="730" type="line"/>
		</contour>
		<contour>
			<point x="175" y="278" type="line"/>
			<point x="305" y="648" type="line"/>
			<point x="361" y="648" type="line"/>
			<point x="302" y="278" type="line"/>
		</contour>
	</outline>
</glyph>
<glyph name="multiply" format="2">
	<advance width="600"/>
	<unicode hex="00D7"/>
	<outline>
		<contour>
			<point x="131" y="136" type="line"/>
			<point x="295" y="278" type="line"/>
			<point x="414" y="136" type="line"/>
			<point x="474" y="188" type="line"/>
			<point x="354" y="329" type="line"/>
			<point x="522" y="474" type="line"/>
			<point x="479" y="526" type="line"/>
			<point x="311" y="381" type="line"/>
			<point x="192" y="522" type="line"/>
			<point x="133" y="471" type="line"/>
			<point x="251" y="329" type="line"/>
			<point x="88" y="188" type="line"/>
		</contour>
	</outline>
</glyph>
<glyph name="Oslash" format="2">
	<advance width="600"/>
	<unicode hex="00D8"/>
	<outline>
		<contour>
			<point x="-15" y="-40" type="line"/>
			<point x="69" y="-40" type="line"/>
			<point x="640" y="750" type="line"/>
			<point x="556" y="750" type="line"/>
		</contour>
		<component base="O"/>
	</outline>
</glyph>
<glyph name="Thorn" format="2">
	<advance width="600"/>
	<unicode hex="00DE"/>
	<outline>
		<contour>
			<point x="46" y="0" type="line"/>
			<point x="136" y="0" type="line"/>
			<point x="165" y="180" type="line"/>
			<point x="318" y="180" type="line" smooth="yes"/>
			<point x="450" y="180"/>
			<point x="547" y="258"/>
			<point x="566" y="380" type="curve" smooth="yes"/>
			<point x="585" y="500"/>
			<point x="512" y="580"/>
			<point x="381" y="580" type="curve" smooth="yes"/>
			<point x="228" y="580" type="line"/>
			<point x="252" y="730" type="line"/>
			<point x="162" y="730" type="line"/>
		</contour>
		<contour>
			<point x="330" y="260" type="curve" smooth="yes"/>
			<point x="177" y="260" type="line"/>
			<point x="215" y="500" type="line"/>
			<point x="368" y="500" type="line" smooth="yes"/>
			<point x="444" y="500"/>
			<point x="485" y="454"/>
			<point x="473" y="380" type="curve" smooth="yes"/>
			<point x="461" y="306"/>
			<point x="407" y="260"/>
		</contour>
	</outline>
</glyph>
<glyph name="germandbls" format="2">
	<advance width="600"/>
	<unicode hex="00DF"/>
	<outline>
		<contour>
			<point x="-123" y="-180" type="line"/>
			<point x="-89" y="-180" type="line" smooth="yes"/>
			<point x="39" y="-180"/>
			<point x="123" y="-110"/>
			<point x="142" y="10" type="curve" smooth="yes"/>
			<point x="226" y="534" type="line" smooth="yes"/>
			<point x="238" y="611"/>
			<point x="291" y="658"/>
			<point x="365" y="658" type="curve" smooth="yes"/>
			<point x="439" y="658"/>
			<point x="477" y="613"/>
			<point x="465" y="536" type="curve" smooth="yes"/>
			<point x="454" y="465"/>
			<point x="400" y="413"/>
			<point x="326" y="413" type="curve" smooth="yes"/>
			<point x="283" y="413" type="line"/>
			<point x="271" y="335" type="line"/>
			<point x="316" y="335" type="line" smooth="yes"/>
			<point x="397" y="335"/>
			<point x="439" y="288"/>
			<point x="426" y="211" type="curve" smooth="yes"/>
			<point x="414" y="134"/>
			<point x="356" y="82"/>
			<point x="276" y="82" type="curve" smooth="yes"/>
			<point x="219" y="82" type="line"/>
			<point x="206" y="0" type="line"/>
			<point x="273" y="0" type="line" smooth="yes"/>
			<point x="402" y="0"/>
			<point x="502" y="86"/>
			<point x="521" y="208" type="curve" smooth="yes"/>
			<point x="539" y="325"/>
			<point x="476" y="400"/>
			<point x="361" y="398" type="curve"/>
			<point x="359" y="383" type="line"/>
			<point x="465" y="381"/>
			<point x="546" y="453"/>
			<point x="562" y="554" type="curve" smooth="yes"/>
			<point x="581" y="674"/>
			<point x="506" y="740"/>
			<point x="378" y="740" type="curve" smooth="yes"/>
			<point x="252" y="740"/>
			<point x="156" y="658"/>
			<point x="136" y="534" type="curve" smooth="yes"/>
			<point x="52" y="10" type="line" smooth="yes"/>
			<point x="40" y="-65"/>
			<point x="1" y="-97"/>
			<point x="-75" y="-97" type="curve" smooth="yes"/>
			<point x="-109" y="-97" type="line"/>
		</contour>
	</outline>
</glyph>
<glyph name="ae" format="2">
	<advance width="600"/>
	<unicode hex="00E6"/>
	<outline>
		<contour>
			<point x="124" y="-10" type="curve" smooth="yes"/>
			<point x="241" y="-10"/>
			<point x="268" y="70"/>
			<point x="268" y="70" type="curve"/>
			<point x="272" y="70" type="line"/>
			<point x="272" y="70"/>
			<point x="271" y="-10"/>
			<point x="374" y="-10" type="curve" smooth="yes"/>
			<point x="461" y="-10"/>
			<point x="528" y="46"/>
			<point x="542" y="130" type="curve"/>
			<point x="457" y="130" type="line"/>
			<point x="450" y="91"/>
			<point x="419" y="67"/>
			<point x="377" y="67" type="curve" smooth="yes"/>
			<point x="337" y="67"/>
			<point x="315" y="100"/>
			<point x="323" y="150" type="curve" smooth="yes"/>
			<point x="339" y="255" type="line"/>
			<point x="561" y="255" type="line"/>
			<point x="584" y="400" type="line" smooth="yes"/>
			<point x="600" y="499"/>
			<point x="555" y="560"/>
			<point x="465" y="560" type="curve" smooth="yes"/>
			<point x="364" y="560"/>
			<point x="337" y="480"/>
			<point x="337" y="480" type="curve"/>
			<point x="333" y="480" type="line"/>
			<point x="333" y="480"/>
			<point x="332" y="560"/>
			<point x="225" y="560" type="curve" smooth="yes"/>
			<point x="145" y="560"/>
			<point x="83" y="504"/>
			<point x="70" y="420" type="curve"/>
			<point x="155" y="420" type="line"/>
			<point x="161" y="458"/>
			<point x="189" y="483"/>
			<point x="228" y="483" type="curve" smooth="yes"/>
			<point x="274" y="483"/>
			<point x="290" y="457"/>
			<point x="281" y="399" type="curve" smooth="yes"/>
			<point x="269" y="325" type="line"/>
			<point x="195" y="325" type="line" smooth="yes"/>
			<point x="102" y="325"/>
			<point x="34" y="272"/>
			<point x="21" y="190" type="curve" smooth="yes"/>
			<point x="12" y="130" type="line" smooth="yes"/>
			<point x="-2" y="44"/>
			<point x="41" y="-10"/>
		</contour>
		<contour>
			<point x="157" y="67" type="curve" smooth="yes"/>
			<point x="117" y="67"/>
			<point x="95" y="91"/>
			<point x="102" y="130" type="curve" smooth="yes"/>
			<point x="111" y="190" type="line" smooth="yes"/>
			<point x="117" y="230"/>
			<point x="145" y="255"/>
			<point x="186" y="255" type="curve" smooth="yes"/>
			<point x="258" y="255" type="line"/>
			<point x="242" y="150" type="line" smooth="yes"/>
			<point x="234" y="100"/>
			<point x="200" y="67"/>
		</contour>
		<contour>
			<point x="350" y="325" type="line"/>
			<point x="362" y="400" type="line" smooth="yes"/>
			<point x="370" y="450"/>
			<point x="401" y="483"/>
			<point x="443" y="483" type="curve" smooth="yes"/>
			<point x="487" y="483"/>
			<point x="507" y="450"/>
			<point x="499" y="400" type="curve" smooth="yes"/>
			<point x="487" y="325" type="line"/>
		</contour>
	</outline>
</glyph>
<glyph name="eth" format="2">
	<advance width="600"/>
	<unicode hex="00F0"/>
	<outline>
		<contour>
			<point x="253" y="-10" type="curve" smooth="yes"/>
			<point x="395" y="-10"/>
			<point x="498" y="80"/>
			<point x="521" y="223" type="curve" smooth="yes"/>
			<point x="534" y="304"/>
			<point x="515" y="404"/>
			<point x="466" y="493" type="curve" smooth="yes"/>
			<point x="335" y="730" type="line"/>
			<point x="238" y="730" type="line"/>
			<point x="377" y="480" type="line" smooth="yes"/>
			<point x="416" y="411"/>
			<point x="425" y="380"/>
			<point x="425" y="380" type="curve"/>
			<point x="411" y="380" type="line"/>
			<point x="411" y="380"/>
			<point x="386" y="436"/>
			<point x="306" y="436" type="curve" smooth="yes"/>
			<point x="179" y="436"/>
			<point x="81" y="348"/>
			<point x="60" y="215" type="curve" smooth="yes"/>
			<point x="39" y="82"/>
			<point x="118" y="-10"/>
		</contour>
		<contour>
			<point x="266" y="70" type="curve" smooth="yes"/>
			<point x="184" y="70"/>
			<point x="136" y="129"/>
			<point x="150" y="215" type="curve" smooth="yes"/>
			<point x="164" y="302"/>
			<point x="229" y="360"/>
			<point x="312" y="360" type="curve" smooth="yes"/>
			<point x="397" y="360"/>
			<point x="444" y="302"/>
			<point x="430" y="215" type="curve" smooth="yes"/>
			<point x="416" y="128"/>
			<point x="351" y="70"/>
		</contour>
		<contour>
			<point x="156" y="497" type="line"/>
			<point x="526" y="657" type="line"/>
			<point x="538" y="735" type="line"/>
			<point x="169" y="575" type="line"/>
		</contour>
	</outline>
</glyph>
<glyph name="divide" format="2">
	<advance width="600"/>
	<unicode hex="00F7"/>
	<outline>
		<contour>
			<point x="103" y="295" type="line"/>
			<point x="503" y="295" type="line"/>
			<point x="515" y="370" type="line"/>
			<point x="115" y="370" type="line"/>
		</contour>
		<contour>
			<point x="259" y="85" type="curve" smooth="yes"/>
			<point x="279" y="85" type="line" smooth="yes"/>
			<point x="318" y="85"/>
			<point x="348" y="108"/>
			<point x="354" y="144" type="curve" smooth="yes"/>
			<point x="360" y="180"/>
			<point x="337" y="205"/>
			<point x="298" y="205" type="curve" smooth="yes"/>
			<point x="278" y="205" type="line" smooth="yes"/>
			<point x="239" y="205"/>
			<point x="210" y="180"/>
			<point x="204" y="144" type="curve" smooth="yes"/>
			<point x="198" y="107"/>
			<point x="220" y="85"/>
		</contour>
		<contour>
			<point x="319" y="460" type="curve" smooth="yes"/>
			<point x="339" y="460" type="line" smooth="yes"/>
			<point x="378" y="460"/>
			<point x="407" y="483"/>
			<point x="413" y="519" type="curve" smooth="yes"/>
			<point x="419" y="555"/>
			<point x="397" y="580"/>
			<point x="358" y="580" type="curve" smooth="yes"/>
			<point x="338" y="580" type="line" smooth="yes"/>
			<point x="299" y="580"/>
			<point x="269" y="555"/>
			<point x="263" y="519" type="curve" smooth="yes"/>
			<point x="257" y="482"/>
			<point x="280" y="460"/>
		</contour>
	</outline>
</glyph>
<glyph name="oslash" format="2">
	<advance width="600"/>
	<unicode hex="00F8"/>
	<outline>
		<contour>
			<point x="-14" y="-30" type="line"/>
			<point x="76" y="-30" type="line"/>
			<point x="614" y="590" type="line"/>
			<point x="523" y="590" type="line"/>
		</contour>
		<component base="o"/>
	</outline>
</glyph>
<glyph name="dcroat" format="2">
	<advance width="600"/>
	<unicode hex="0111"/>
	<outline>
		<contour>
			<point x="222" y="-10" type="curve" smooth="yes"/>
			<point x="314" y="-10"/>
			<point x="379" y="42"/>
			<point x="392" y="126" type="curve"/>
			<point x="371" y="105" type="line"/>
			<point x="389" y="105" type="line"/>
			<point x="372" y="0" type="line"/>
			<point x="462" y="0" type="line"/>
			<point x="578" y="730" type="line"/>
			<point x="488" y="730" type="line"/>
			<point x="453" y="510" type="line"/>
			<point x="435" y="385" type="line"/>
			<point x="415" y="385" type="line"/>
			<point x="429" y="364" type="line"/>
			<point x="443" y="447"/>
			<point x="394" y="500"/>
			<point x="303" y="500" type="curve" smooth="yes"/>
			<point x="192" y="500"/>
			<point x="113" y="422"/>
			<point x="93" y="295" type="curve" smooth="yes"/>
			<point x="77" y="194" type="line" smooth="yes"/>
			<point x="57" y="68"/>
			<point x="113" y="-10"/>
		</contour>
		<contour>
			<point x="265" y="68" type="curve" smooth="yes"/>
			<point x="189" y="68"/>
			<point x="154" y="115"/>
			<point x="168" y="200" type="curve" smooth="yes"/>
			<point x="182" y="290" type="line" smooth="yes"/>
			<point x="195" y="375"/>
			<point x="245" y="422"/>
			<point x="321" y="422" type="curve" smooth="yes"/>
			<point x="395" y="422"/>
			<point x="431" y="373"/>
			<point x="418" y="290" type="curve" smooth="yes"/>
			<point x="404" y="200" type="line" smooth="yes"/>
			<point x="391" y="117"/>
			<point x="339" y="68"/>
		</contour>
		<contour>
			<point x="296" y="570" type="line"/>
			<point x="646" y="570" type="line"/>
			<point x="658" y="645" type="line"/>
			<point x="308" y="645" type="line"/>
		</contour>
	</outline>
</glyph>
<glyph name="dotlessi" format="2">
	<advance width="600"/>
	<unicode hex="0131"/>
	<outline>
		<contour>
			<point x="46" y="0" type="line"/>
			<point x="501" y="0" type="line"/>
			<point x="514" y="82" type="line"/>
			<point x="354" y="82" type="line"/>
			<point x="428" y="550" type="line"/>
			<point x="158" y="550" type="line"/>
			<point x="145" y="468" type="line"/>
			<point x="325" y="468" type="line"/>
			<point x="264" y="82" type="line"/>
			<point x="59" y="82" type="line"/>
		</contour>
	</outline>
</glyph>
<glyph name="IJ" format="2">
	<advance width="600"/>
	<unicode hex="0132"/>
	<outline>
		<contour>
			<point x="216" y="0" type="line"/>
			<point x="276" y="0" type="line" smooth="yes"/>
			<point x="413" y="0"/>
			<point x="502" y="72"/>
			<point x="523" y="201" type="curve" smooth="yes"/>
			<point x="605" y="720" type="line"/>
			<point x="370" y="720" type="line"/>
			<point x="357" y="640" type="line"/>
			<point x="502" y="640" type="line"/>
			<point x="433" y="201" type="line" smooth="yes"/>
			<point x="421" y="124"/>
			<point x="369" y="80"/>
			<point x="289" y="80" type="curve" smooth="yes"/>
			<point x="229" y="80" type="line"/>
		</contour>
		<contour>
			<point x="26" y="0" type="line"/>
			<point x="118" y="0" type="line"/>
			<point x="232" y="720" type="line"/>
			<point x="140" y="720" type="line"/>
		</contour>
	</outline>
</glyph>
<glyph name="ij" format="2">
	<advance width="600"/>
	<unicode hex="0133"/>
	<outline>
		<contour>
			<point x="140" y="-165" type="line"/>
			<point x="225" y="-165" type="line" smooth="yes"/>
			<point x="349" y="-165"/>
			<point x="442" y="-88"/>
			<point x="461" y="30" type="curve" smooth="yes"/>
			<point x="543" y="550" type="line"/>
			<point x="453" y="550" type="line"/>
			<point x="371" y="30" type="line" smooth="yes"/>
			<point x="360" y="-40"/>
			<point x="309" y="-83"/>
			<point x="238" y="-83" type="curve" smooth="yes"/>
			<point x="153" y="-83" type="line"/>
		</contour>
		<contour>
			<point x="61" y="0" type="line"/>
			<point x="151" y="0" type="line"/>
			<point x="238" y="550" type="line"/>
			<point x="148" y="550" type="line"/>
		</contour>
		<contour>
			<point x="198" y="645" type="curve" smooth="yes"/>
			<point x="218" y="645" type="line" smooth="yes"/>
			<point x="257" y="645"/>
			<point x="287" y="668"/>
			<point x="293" y="704" type="curve" smooth="yes"/>
			<point x="298" y="740"/>
			<point x="276" y="765"/>
			<point x="237" y="765" type="curve" smooth="yes"/>
			<point x="217" y="765" type="line" smooth="yes"/>
			<point x="178" y="765"/>
			<point x="148" y="740"/>
			<point x="142" y="703" type="curve" smooth="yes"/>
			<point x="137" y="667"/>
			<point x="159" y="645"/>
		</contour>
		<contour>
			<point x="498" y="645" type="curve" smooth="yes"/>
			<point x="518" y="645" type="line" smooth="yes"/>
			<point x="557" y="645"/>
			<point x="587" y="668"/>
			<point x="593" y="704" type="curve" smooth="yes"/>
			<point x="598" y="740"/>
			<point x="576" y="765"/>
			<point x="537" y="765" type="curve" smooth="yes"/>
			<point x="517" y="765" type="line" smooth="yes"/>
			<point x="478" y="765"/>
			<point x="448" y="740"/>
			<point x="442" y="703" type="curve" smooth="yes"/>
			<point x="437" y="667"/>
			<point x="459" y="645"/>
		</contour>
	</outline>
</glyph>
<glyph name="Lslash" format="2">
	<advance width="600"/>
	<unicode hex="0141"/>
	<outline>
		<contour>
			<point x="12" y="230" type="line"/>
			<point x="422" y="480" type="line"/>
			<point x="435" y="560" type="line"/>
			<point x="25" y="310" type="line"/>
		</contour>
		<component base="L"/>
	</outline>
</glyph>
<glyph name="lslash" format="2">
	<advance width="600"/>
	<unicode hex="0142"/>
	<outline>
		<contour>
			<point x="92" y="230" type="line"/>
			<point x="502" y="480" type="line"/>
			<point x="515" y="560" type="line"/>
			<point x="105" y="310" type="line"/>
		</contour>
		<component base="l"/>
	</outline>
</glyph>
<glyph name="napostrophe" format="2">
	<advance width="600"/>
	<unicode hex="0149"/>
	<outline>
		<contour>
			<point x="83" y="645" type="line"/>
			<point x="178" y="645" type="line"/>
			<point x="306" y="791" type="line"/>
			<point x="201" y="791" type="line"/>
		</contour>
		<component base="n"/>
	</outline>
</glyph>
<glyph name="Eng" format="2">
	<advance width="600"/>
	<unicode hex="014A"/>
	<outline>
		<contour>
			<point x="167" y="-180" type="line"/>
			<point x="232" y="-180" type="line" smooth="yes"/>
			<point x="356" y="-180"/>
			<point x="450" y="-103"/>
			<point x="468" y="15" type="curve" smooth="yes"/>
			<point x="582" y="730" type="line"/>
			<point x="582" y="730"/>
			<point x="512" y="730"/>
			<point x="495" y="730" type="curve"/>
			<point x="442" y="397" type="line" smooth="yes"/>
			<point x="426" y="297"/>
			<point x="418" y="181"/>
			<point x="418" y="181" type="curve"/>
			<point x="282" y="730" type="line"/>
			<point x="162" y="730" type="line"/>
			<point x="46" y="0" type="line"/>
			<point x="46" y="0"/>
			<point x="117" y="0"/>
			<point x="133" y="0" type="curve"/>
			<point x="198" y="410" type="line" smooth="yes"/>
			<point x="214" y="510"/>
			<point x="223" y="625"/>
			<point x="223" y="625" type="curve"/>
			<point x="378" y="15" type="line"/>
			<point x="367" y="-55"/>
			<point x="316" y="-98"/>
			<point x="245" y="-98" type="curve" smooth="yes"/>
			<point x="180" y="-98" type="line"/>
		</contour>
	</outline>
</glyph>
<glyph name="eng" format="2">
	<advance width="600"/>
	<unicode hex="014B"/>
	<outline>
		<contour>
			<point x="167" y="-180" type="line"/>
			<point x="230" y="-180" type="line" smooth="yes"/>
			<point x="354" y="-180"/>
			<point x="448" y="-103"/>
			<point x="466" y="15" type="curve" smooth="yes"/>
			<point x="523" y="370" type="line" smooth="yes"/>
			<point x="541" y="487"/>
			<point x="483" y="560"/>
			<point x="373" y="560" type="curve" smooth="yes"/>
			<point x="282" y="560"/>
			<point x="221" y="510"/>
			<point x="207" y="424" type="curve"/>
			<point x="229" y="445" type="line"/>
			<point x="210" y="445" type="line"/>
			<point x="227" y="550" type="line"/>
			<point x="137" y="550" type="line"/>
			<point x="50" y="0" type="line"/>
			<point x="140" y="0" type="line"/>
			<point x="195" y="350" type="line" smooth="yes"/>
			<point x="209" y="435"/>
			<point x="261" y="484"/>
			<point x="335" y="484" type="curve" smooth="yes"/>
			<point x="408" y="484"/>
			<point x="443" y="438"/>
			<point x="431" y="360" type="curve" smooth="yes"/>
			<point x="376" y="15" type="line" smooth="yes"/>
			<point x="365" y="-55"/>
			<point x="314" y="-98"/>
			<point x="243" y="-98" type="curve" smooth="yes"/>
			<point x="180" y="-98" type="line"/>
		</contour>
	</outline>
</glyph>
<glyph name="OE" format="2">
	<advance width="600"/>
	<unicode hex="0152"/>
	<outline>
		<contour>
			<point x="149" y="-10" type="curve" smooth="yes"/>
			<point x="244" y="-10"/>
			<point x="274" y="80"/>
			<point x="274" y="80" type="curve"/>
			<point x="279" y="80" type="line"/>
			<point x="266" y="0" type="line"/>
			<point x="531" y="0" type="line"/>
			<point x="544" y="82" type="line"/>
			<point x="367" y="82" type="line"/>
			<point x="407" y="336" type="line"/>
			<point x="559" y="336" type="line"/>
			<point x="572" y="418" type="line"/>
			<point x="420" y="418" type="line"/>
			<point x="457" y="648" type="line"/>
			<point x="634" y="648" type="line"/>
			<point x="647" y="730" type="line"/>
			<point x="382" y="730" type="line"/>
			<point x="369" y="650" type="line"/>
			<point x="364" y="650" type="line"/>
			<point x="364" y="650"/>
			<point x="363" y="740"/>
			<point x="268" y="740" type="curve" smooth="yes"/>
			<point x="172" y="740"/>
			<point x="102" y="667"/>
			<point x="83" y="550" type="curve" smooth="yes"/>
			<point x="25" y="180" type="line" smooth="yes"/>
			<point x="6" y="63"/>
			<point x="53" y="-10"/>
		</contour>
		<contour>
			<point x="187" y="70" type="curve" smooth="yes"/>
			<point x="131" y="70"/>
			<point x="104" y="112"/>
			<point x="115" y="180" type="curve" smooth="yes"/>
			<point x="173" y="550" type="line" smooth="yes"/>
			<point x="184" y="618"/>
			<point x="225" y="660"/>
			<point x="281" y="660" type="curve" smooth="yes"/>
			<point x="337" y="660"/>
			<point x="364" y="618"/>
			<point x="353" y="550" type="curve" smooth="yes"/>
			<point x="295" y="180" type="line" smooth="yes"/>
			<point x="284" y="112"/>
			<point x="243" y="70"/>
		</contour>
	</outline>
</glyph>
<glyph name="oe" format="2">
	<advance width="600"/>
	<unicode hex="0153"/>
	<outline>
		<contour>
			<point x="134" y="-10" type="curve" smooth="yes"/>
			<point x="244" y="-10"/>
			<point x="265" y="70"/>
			<point x="265" y="70" type="curve"/>
			<point x="269" y="70" type="line"/>
			<point x="269" y="70"/>
			<point x="264" y="-10"/>
			<point x="374" y="-10" type="curve" smooth="yes"/>
			<point x="448" y="-10"/>
			<point x="512" y="42"/>
			<point x="538" y="125" type="curve"/>
			<point x="453" y="125" type="line"/>
			<point x="441" y="90"/>
			<point x="411" y="67"/>
			<point x="377" y="67" type="curve" smooth="yes"/>
			<point x="336" y="67"/>
			<point x="315" y="99"/>
			<point x="323" y="150" type="curve" smooth="yes"/>
			<point x="339" y="250" type="line"/>
			<point x="561" y="250" type="line"/>
			<point x="584" y="400" type="line" smooth="yes"/>
			<point x="600" y="498"/>
			<point x="554" y="560"/>
			<point x="465" y="560" type="curve" smooth="yes"/>
			<point x="355" y="560"/>
			<point x="334" y="480"/>
			<point x="334" y="480" type="curve"/>
			<point x="330" y="480" type="line"/>
			<point x="330" y="480"/>
			<point x="335" y="560"/>
			<point x="225" y="560" type="curve" smooth="yes"/>
			<point x="136" y="560"/>
			<point x="70" y="498"/>
			<point x="54" y="400" type="curve" smooth="yes"/>
			<point x="15" y="150" type="line" smooth="yes"/>
			<point x="-1" y="52"/>
			<point x="45" y="-10"/>
		</contour>
		<contour>
			<point x="157" y="67" type="curve" smooth="yes"/>
			<point x="114" y="67"/>
			<point x="92" y="99"/>
			<point x="100" y="150" type="curve" smooth="yes"/>
			<point x="139" y="400" type="line" smooth="yes"/>
			<point x="147" y="451"/>
			<point x="179" y="483"/>
			<point x="222" y="483" type="curve" smooth="yes"/>
			<point x="263" y="483"/>
			<point x="284" y="451"/>
			<point x="276" y="400" type="curve" smooth="yes"/>
			<point x="237" y="150" type="line" smooth="yes"/>
			<point x="229" y="99"/>
			<point x="198" y="67"/>
		</contour>
		<contour>
			<point x="350" y="323" type="line"/>
			<point x="362" y="400" type="line" smooth="yes"/>
			<point x="370" y="451"/>
			<point x="401" y="483"/>
			<point x="442" y="483" type="curve" smooth="yes"/>
			<point x="485" y="483"/>
			<point x="507" y="451"/>
			<point x="499" y="400" type="curve" smooth="yes"/>
			<point x="487" y="323" type="line"/>
		</contour>
	</outline>
</glyph>
<glyph name="tcaron" format="2">
	<advance width="600"/>
	<unicode hex="0165"/>
	<outline>
		<contour>
			<point x="328" y="620" type="line"/>
			<point x="408" y="620" type="line"/>
			<point x="508" y="776" type="line"/>
			<point x="418" y="776" type="line"/>
		</contour>
		<component base="t"/>
	</outline>
</glyph>
<glyph name="Tbar" format="2">
	<advance width="600"/>
	<unicode hex="0166"/>
	<outline>
		<contour>
			<point x="113" y="295" type="line"/>
			<point x="493" y="295" type="line"/>
			<point x="505" y="370" type="line"/>
			<point x="125" y="370" type="line"/>
		</contour>
		<component base="T"/>
	</outline>
</glyph>
<glyph name="tbar" format="2">
	<advance width="600"/>
	<unicode hex="0167"/>
	<guideline x="452"/>
	<outline>
		<contour>
			<point x="79" y="239" type="line"/>
			<point x="469" y="239" type="line"/>
			<point x="481" y="314" type="line"/>
			<point x="91" y="314" type="line"/>
		</contour>
		<component base="t"/>
	</outline>
</glyph>
<glyph name="longs" format="2">
	<advance width="600"/>
	<unicode hex="017F"/>
	<outline>
		<contour>
			<point x="211" y="571" type="curve" smooth="yes"/>
			<point x="121" y="0" type="line"/>
			<point x="211" y="0" type="line"/>
			<point x="301" y="570" type="line" smooth="yes"/>
			<point x="309" y="618"/>
			<point x="346" y="650"/>
			<point x="393" y="650" type="curve" smooth="yes"/>
			<point x="569" y="650" type="line"/>
			<point x="582" y="730" type="line"/>
			<point x="406" y="730" type="line" smooth="yes"/>
			<point x="305" y="730"/>
			<point x="226" y="666"/>
		</contour>
	</outline>
</glyph>
<glyph name="uni018F" format="2">
	<advance width="600"/>
	<unicode hex="018F"/>
	<outline>
		<contour>
			<point x="254" y="-10" type="curve" smooth="yes"/>
			<point x="385" y="-10"/>
			<point x="478" y="73"/>
			<point x="498" y="200" type="curve" smooth="yes"/>
			<point x="550" y="530" type="line" smooth="yes"/>
			<point x="571" y="661"/>
			<point x="507" y="740"/>
			<point x="373" y="740" type="curve" smooth="yes"/>
			<point x="242" y="740"/>
			<point x="150" y="659"/>
			<point x="130" y="530" type="curve"/>
			<point x="220" y="530" type="line"/>
			<point x="233" y="613"/>
			<point x="282" y="660"/>
			<point x="361" y="660" type="curve" smooth="yes"/>
			<point x="440" y="660"/>
			<point x="473" y="613"/>
			<point x="460" y="531" type="curve" smooth="yes"/>
			<point x="439" y="400" type="line"/>
			<point x="109" y="400" type="line"/>
			<point x="78" y="200" type="line" smooth="yes"/>
			<point x="58" y="73"/>
			<point x="124" y="-10"/>
		</contour>
		<contour>
			<point x="266" y="65" type="curve" smooth="yes"/>
			<point x="184" y="65"/>
			<point x="154" y="113"/>
			<point x="168" y="200" type="curve" smooth="yes"/>
			<point x="190" y="338" type="line"/>
			<point x="181" y="330" type="line"/>
			<point x="428" y="330" type="line"/>
			<point x="408" y="200" type="line" smooth="yes"/>
			<point x="394" y="113"/>
			<point x="348" y="65"/>
		</contour>
	</outline>
</glyph>
<glyph name="florin" format="2">
	<advance width="600"/>
	<unicode hex="0192"/>
	<outline>
		<contour>
			<point x="-73" y="-180" type="line"/>
			<point x="32" y="-180" type="line" smooth="yes"/>
			<point x="156" y="-180"/>
			<point x="250" y="-103"/>
			<point x="268" y="15" type="curve" smooth="yes"/>
			<point x="331" y="413" type="line"/>
			<point x="556" y="413" type="line"/>
			<point x="569" y="495" type="line"/>
			<point x="344" y="495" type="line"/>
			<point x="359" y="590" type="line" smooth="yes"/>
			<point x="366" y="630"/>
			<point x="390" y="650"/>
			<point x="433" y="650" type="curve" smooth="yes"/>
			<point x="594" y="650" type="line"/>
			<point x="607" y="730" type="line"/>
			<point x="446" y="730" type="line" smooth="yes"/>
			<point x="349" y="730"/>
			<point x="284" y="679"/>
			<point x="270" y="591" type="curve" smooth="yes"/>
			<point x="254" y="495" type="line"/>
			<point x="94" y="495" type="line"/>
			<point x="81" y="413" type="line"/>
			<point x="241" y="413" type="line"/>
			<point x="178" y="15" type="line" smooth="yes"/>
			<point x="167" y="-55"/>
			<point x="116" y="-98"/>
			<point x="45" y="-98" type="curve" smooth="yes"/>
			<point x="-60" y="-98" type="line"/>
		</contour>
	</outline>
</glyph>
<glyph name="Ohorn" format="2">
	<advance width="600"/>
	<unicode hex="01A0"/>
	<outline>
		<contour>
			<point x="254" y="-10" type="curve" smooth="yes"/>
			<point x="385" y="-10"/>
			<point x="477" y="69"/>
			<point x="498" y="200" type="curve" smooth="yes"/>
			<point x="550" y="531" type="line" smooth="yes"/>
			<point x="571" y="661"/>
			<point x="504" y="740"/>
			<point x="373" y="740" type="curve" smooth="yes"/>
			<point x="243" y="740"/>
			<point x="151" y="661"/>
			<point x="130" y="530" type="curve" smooth="yes"/>
			<point x="78" y="200" type="line" smooth="yes"/>
			<point x="57" y="69"/>
			<point x="124" y="-10"/>
		</contour>
		<contour>
			<point x="267" y="70" type="curve" smooth="yes"/>
			<point x="189" y="70"/>
			<point x="154" y="115"/>
			<point x="168" y="200" type="curve" smooth="yes"/>
			<point x="220" y="530" type="line" smooth="yes"/>
			<point x="233" y="615"/>
			<point x="283" y="660"/>
			<point x="361" y="660" type="curve" smooth="yes"/>
			<point x="438" y="660"/>
			<point x="473" y="615"/>
			<point x="460" y="530" type="curve" smooth="yes"/>
			<point x="408" y="200" type="line" smooth="yes"/>
			<point x="394" y="115"/>
			<point x="345" y="70"/>
		</contour>
		<contour>
			<point x="455" y="625" type="line"/>
			<point x="497" y="625" type="line" smooth="yes"/>
			<point x="569" y="625"/>
			<point x="623" y="669"/>
			<point x="634" y="735" type="curve" smooth="yes"/>
			<point x="651" y="840" type="line"/>
			<point x="576" y="840" type="line"/>
			<point x="560" y="740" type="line" smooth="yes"/>
			<point x="555" y="708"/>
			<point x="533" y="690"/>
			<point x="502" y="690" type="curve" smooth="yes"/>
			<point x="465" y="690" type="line"/>
		</contour>
	</outline>
</glyph>
<glyph name="ohorn" format="2">
	<advance width="600"/>
	<unicode hex="01A1"/>
	<outline>
		<contour>
			<point x="254" y="-10" type="curve" smooth="yes"/>
			<point x="385" y="-10"/>
			<point x="477" y="69"/>
			<point x="498" y="200" type="curve" smooth="yes"/>
			<point x="522" y="351" type="line" smooth="yes"/>
			<point x="542" y="481"/>
			<point x="475" y="560"/>
			<point x="345" y="560" type="curve" smooth="yes"/>
			<point x="214" y="560"/>
			<point x="122" y="481"/>
			<point x="101" y="350" type="curve" smooth="yes"/>
			<point x="78" y="200" type="line" smooth="yes"/>
			<point x="57" y="69"/>
			<point x="124" y="-10"/>
		</contour>
		<contour>
			<point x="267" y="70" type="curve" smooth="yes"/>
			<point x="189" y="70"/>
			<point x="154" y="115"/>
			<point x="168" y="200" type="curve" smooth="yes"/>
			<point x="191" y="350" type="line" smooth="yes"/>
			<point x="205" y="435"/>
			<point x="254" y="480"/>
			<point x="332" y="480" type="curve" smooth="yes"/>
			<point x="410" y="480"/>
			<point x="445" y="435"/>
			<point x="431" y="350" type="curve" smooth="yes"/>
			<point x="408" y="200" type="line" smooth="yes"/>
			<point x="394" y="115"/>
			<point x="345" y="70"/>
		</contour>
		<contour>
			<point x="424" y="459" type="line"/>
			<point x="465" y="459" type="line" smooth="yes"/>
			<point x="533" y="459"/>
			<point x="586" y="501"/>
			<point x="596" y="564" type="curve" smooth="yes"/>
			<point x="611" y="660" type="line"/>
			<point x="536" y="660" type="line"/>
			<point x="522" y="569" type="line" smooth="yes"/>
			<point x="517" y="541"/>
			<point x="497" y="524"/>
			<point x="470" y="524" type="curve" smooth="yes"/>
			<point x="434" y="524" type="line"/>
		</contour>
	</outline>
</glyph>
<glyph name="uni0237" format="2">
	<advance width="600"/>
	<unicode hex="0237"/>
	<outline>
		<contour>
			<point x="12" y="-180" type="line"/>
			<point x="141" y="-180" type="line" smooth="yes"/>
			<point x="277" y="-180"/>
			<point x="375" y="-98"/>
			<point x="396" y="31" type="curve" smooth="yes"/>
			<point x="478" y="550" type="line"/>
			<point x="158" y="550" type="line"/>
			<point x="145" y="468" type="line"/>
			<point x="375" y="468" type="line"/>
			<point x="306" y="31" type="line" smooth="yes"/>
			<point x="293" y="-51"/>
			<point x="238" y="-97"/>
			<point x="155" y="-97" type="curve" smooth="yes"/>
			<point x="26" y="-97" type="line"/>
		</contour>
	</outline>
</glyph>
<glyph name="uni0259" format="2">
	<advance width="600"/>
	<unicode hex="0259"/>
	<outline>
		<contour>
			<point x="254" y="-10" type="curve" smooth="yes"/>
			<point x="385" y="-10"/>
			<point x="478" y="73"/>
			<point x="498" y="200" type="curve" smooth="yes"/>
			<point x="521" y="350" type="line" smooth="yes"/>
			<point x="542" y="477"/>
			<point x="475" y="560"/>
			<point x="345" y="560" type="curve" smooth="yes"/>
			<point x="228" y="560"/>
			<point x="140" y="502"/>
			<point x="113" y="410" type="curve"/>
			<point x="203" y="410" type="line"/>
			<point x="221" y="459"/>
			<point x="264" y="484"/>
			<point x="333" y="484" type="curve" smooth="yes"/>
			<point x="415" y="484"/>
			<point x="447" y="437"/>
			<point x="433" y="350" type="curve" smooth="yes"/>
			<point x="425" y="297" type="line"/>
			<point x="93" y="297" type="line"/>
			<point x="78" y="200" type="line" smooth="yes"/>
			<point x="58" y="73"/>
			<point x="124" y="-10"/>
		</contour>
		<contour>
			<point x="266" y="65" type="curve" smooth="yes"/>
			<point x="184" y="65"/>
			<point x="152" y="113"/>
			<point x="166" y="200" type="curve" smooth="yes"/>
			<point x="172" y="237" type="line"/>
			<point x="163" y="229" type="line"/>
			<point x="414" y="229" type="line"/>
			<point x="410" y="200" type="line" smooth="yes"/>
			<point x="396" y="113"/>
			<point x="348" y="65"/>
		</contour>
	</outline>
</glyph>
<glyph name="uni02B9" format="2">
	<advance width="600"/>
	<unicode hex="02B9"/>
	<outline>
		<contour>
			<point x="186" y="410" type="line"/>
			<point x="266" y="410" type="line"/>
			<point x="445" y="721" type="line"/>
			<point x="315" y="721" type="line"/>
		</contour>
	</outline>
</glyph>
<glyph name="uni02BA" format="2">
	<advance width="600"/>
	<unicode hex="02BA"/>
	<outline>
		<contour>
			<point x="351" y="409" type="line"/>
			<point x="431" y="409" type="line"/>
			<point x="610" y="720" type="line"/>
			<point x="480" y="720" type="line"/>
		</contour>
		<contour>
			<point x="76" y="409" type="line"/>
			<point x="156" y="409" type="line"/>
			<point x="335" y="720" type="line"/>
			<point x="205" y="720" type="line"/>
		</contour>
	</outline>
</glyph>
<glyph name="uni02BC" format="2">
	<advance width="600"/>
	<unicode hex="02BC"/>
	<outline>
		<contour>
			<point x="195" y="465" type="line"/>
			<point x="275" y="465" type="line"/>
			<point x="454" y="776" type="line"/>
			<point x="324" y="776" type="line"/>
		</contour>
	</outline>
</glyph>
<glyph name="circumflex" format="2">
	<advance width="600"/>
	<unicode hex="02C6"/>
	<outline>
		<contour>
			<point x="175" y="645" type="line"/>
			<point x="278" y="645" type="line"/>
			<point x="368" y="720" type="line"/>
			<point x="374" y="720" type="line"/>
			<point x="437" y="645" type="line"/>
			<point x="541" y="645" type="line"/>
			<point x="422" y="785" type="line"/>
			<point x="338" y="785" type="line"/>
		</contour>
	</outline>
</glyph>
<glyph name="caron" format="2">
	<advance width="600"/>
	<unicode hex="02C7"/>
	<outline>
		<contour>
			<point x="317" y="645" type="line"/>
			<point x="401" y="645" type="line"/>
			<point x="563" y="785" type="line"/>
			<point x="467" y="785" type="line"/>
			<point x="372" y="707" type="line"/>
			<point x="362" y="707" type="line"/>
			<point x="291" y="785" type="line"/>
			<point x="197" y="785" type="line"/>
		</contour>
	</outline>
</glyph>
<glyph name="breve" format="2">
	<advance width="600"/>
	<unicode hex="02D8"/>
	<outline>
		<contour>
			<point x="357" y="640" type="curve" smooth="yes"/>
			<point x="456" y="640"/>
			<point x="532" y="698"/>
			<point x="545" y="785" type="curve"/>
			<point x="474" y="785" type="line"/>
			<point x="466" y="732"/>
			<point x="425" y="699"/>
			<point x="366" y="699" type="curve" smooth="yes"/>
			<point x="308" y="699"/>
			<point x="278" y="732"/>
			<point x="286" y="785" type="curve"/>
			<point x="215" y="785" type="line"/>
			<point x="202" y="698"/>
			<point x="258" y="640"/>
		</contour>
	</outline>
</glyph>
<glyph name="dotaccent" format="2">
	<advance width="600"/>
	<unicode hex="02D9"/>
	<outline>
		<contour>
			<point x="338" y="641" type="curve" smooth="yes"/>
			<point x="358" y="641" type="line" smooth="yes"/>
			<point x="396" y="641"/>
			<point x="426" y="665"/>
			<point x="432" y="700" type="curve" smooth="yes"/>
			<point x="438" y="736"/>
			<point x="415" y="761"/>
			<point x="377" y="761" type="curve" smooth="yes"/>
			<point x="357" y="761" type="line" smooth="yes"/>
			<point x="318" y="761"/>
			<point x="288" y="736"/>
			<point x="282" y="700" type="curve" smooth="yes"/>
			<point x="276" y="665"/>
			<point x="299" y="641"/>
		</contour>
	</outline>
</glyph>
<glyph name="ring" format="2">
	<advance width="600"/>
	<unicode hex="02DA"/>
	<outline>
		<contour>
			<point x="352" y="605" type="curve" smooth="yes"/>
			<point x="424" y="605"/>
			<point x="478" y="645"/>
			<point x="488" y="705" type="curve" smooth="yes"/>
			<point x="497" y="765"/>
			<point x="456" y="805"/>
			<point x="384" y="805" type="curve" smooth="yes"/>
			<point x="312" y="805"/>
			<point x="257" y="765"/>
			<point x="248" y="705" type="curve" smooth="yes"/>
			<point x="238" y="645"/>
			<point x="280" y="605"/>
		</contour>
		<contour>
			<point x="359" y="656" type="curve" smooth="yes"/>
			<point x="324" y="656"/>
			<point x="303" y="676"/>
			<point x="308" y="705" type="curve" smooth="yes"/>
			<point x="312" y="735"/>
			<point x="340" y="755"/>
			<point x="375" y="755" type="curve" smooth="yes"/>
			<point x="413" y="755"/>
			<point x="433" y="739"/>
			<point x="428" y="705" type="curve" smooth="yes"/>
			<point x="423" y="676"/>
			<point x="396" y="656"/>
		</contour>
	</outline>
</glyph>
<glyph name="ogonek" format="2">
	<advance width="600"/>
	<unicode hex="02DB"/>
	<outline>
		<contour>
			<point x="231" y="-200" type="curve" smooth="yes"/>
			<point x="309" y="-200" type="line"/>
			<point x="319" y="-140" type="line"/>
			<point x="259" y="-140" type="line" smooth="yes"/>
			<point x="225" y="-140"/>
			<point x="207" y="-122"/>
			<point x="211" y="-93" type="curve" smooth="yes"/>
			<point x="216" y="-65"/>
			<point x="239" y="-36"/>
			<point x="290" y="1" type="curve" smooth="yes"/>
			<point x="303" y="10" type="line"/>
			<point x="228" y="10" type="line"/>
			<point x="158" y="-34"/>
			<point x="130" y="-72"/>
			<point x="124" y="-110" type="curve" smooth="yes"/>
			<point x="115" y="-164"/>
			<point x="157" y="-200"/>
		</contour>
	</outline>
</glyph>
<glyph name="tilde" format="2">
	<advance width="600"/>
	<unicode hex="02DC"/>
	<outline>
		<contour>
			<point x="429" y="650" type="curve" smooth="yes"/>
			<point x="483" y="650"/>
			<point x="525" y="685"/>
			<point x="534" y="745" type="curve" smooth="yes"/>
			<point x="539" y="775" type="line"/>
			<point x="474" y="775" type="line"/>
			<point x="469" y="745" type="line" smooth="yes"/>
			<point x="465" y="721"/>
			<point x="451" y="710"/>
			<point x="433" y="710" type="curve" smooth="yes"/>
			<point x="388" y="710"/>
			<point x="390" y="780"/>
			<point x="310" y="780" type="curve" smooth="yes"/>
			<point x="256" y="780"/>
			<point x="214" y="745"/>
			<point x="205" y="685" type="curve" smooth="yes"/>
			<point x="200" y="655" type="line"/>
			<point x="265" y="655" type="line"/>
			<point x="270" y="685" type="line" smooth="yes"/>
			<point x="273" y="709"/>
			<point x="287" y="720"/>
			<point x="305" y="720" type="curve" smooth="yes"/>
			<point x="350" y="720"/>
			<point x="349" y="650"/>
		</contour>
	</outline>
</glyph>
<glyph name="hungarumlaut" format="2">
	<advance width="600"/>
	<unicode hex="02DD"/>
	<outline>
		<contour>
			<point x="398" y="645" type="line"/>
			<point x="478" y="645" type="line"/>
			<point x="615" y="785" type="line"/>
			<point x="525" y="785" type="line"/>
		</contour>
		<contour>
			<point x="223" y="645" type="line"/>
			<point x="303" y="645" type="line"/>
			<point x="440" y="785" type="line"/>
			<point x="350" y="785" type="line"/>
		</contour>
	</outline>
</glyph>
<glyph name="hookabovecomb" format="2">
	<advance width="0"/>
	<unicode hex="0309"/>
	<outline>
		<contour>
			<point x="-224" y="708" type="curve" smooth="yes"/>
			<point x="-284" y="645" type="line"/>
			<point x="-199" y="645" type="line"/>
			<point x="-151" y="697" type="line" smooth="yes"/>
			<point x="-138" y="710"/>
			<point x="-128" y="731"/>
			<point x="-125" y="751" type="curve" smooth="yes"/>
			<point x="-118" y="797"/>
			<point x="-147" y="825"/>
			<point x="-198" y="825" type="curve" smooth="yes"/>
			<point x="-303" y="825" type="line"/>
			<point x="-314" y="760" type="line"/>
			<point x="-234" y="760" type="line" smooth="yes"/>
			<point x="-212" y="760"/>
			<point x="-203" y="754"/>
			<point x="-205" y="740" type="curve" smooth="yes"/>
			<point x="-206" y="730"/>
			<point x="-213" y="720"/>
		</contour>
	</outline>
</glyph>
<glyph name="uni031B" format="2">
	<advance width="0"/>
	<unicode hex="031B"/>
	<outline>
		<contour>
			<point x="-87" y="485" type="line"/>
			<point x="-63" y="485" type="line" smooth="yes"/>
			<point x="1" y="485"/>
			<point x="49" y="523"/>
			<point x="58" y="580" type="curve" smooth="yes"/>
			<point x="71" y="660" type="line"/>
			<point x="-4" y="660" type="line"/>
			<point x="-16" y="585" type="line" smooth="yes"/>
			<point x="-20" y="562"/>
			<point x="-34" y="550"/>
			<point x="-57" y="550" type="curve" smooth="yes"/>
			<point x="-77" y="550" type="line"/>
		</contour>
	</outline>
</glyph>
<glyph name="dotbelowcomb" format="2">
	<advance width="0"/>
	<unicode hex="0323"/>
	<outline>
		<contour>
			<point x="-396" y="-205" type="curve" smooth="yes"/>
			<point x="-376" y="-205" type="line" smooth="yes"/>
			<point x="-338" y="-205"/>
			<point x="-308" y="-181"/>
			<point x="-302" y="-146" type="curve" smooth="yes"/>
			<point x="-296" y="-110"/>
			<point x="-319" y="-85"/>
			<point x="-357" y="-85" type="curve" smooth="yes"/>
			<point x="-377" y="-85" type="line" smooth="yes"/>
			<point x="-416" y="-85"/>
			<point x="-446" y="-110"/>
			<point x="-452" y="-146" type="curve" smooth="yes"/>
			<point x="-458" y="-181"/>
			<point x="-435" y="-205"/>
		</contour>
	</outline>
</glyph>
<glyph name="uni0326" format="2">
	<advance width="0"/>
	<unicode hex="0326"/>
	<outline>
		<contour>
			<point x="-467" y="-240" type="line"/>
			<point x="-372" y="-240" type="line"/>
			<point x="-244" y="-94" type="line"/>
			<point x="-349" y="-94" type="line"/>
		</contour>
	</outline>
</glyph>
<glyph name="uni0336" format="2">
	<advance width="0"/>
	<unicode hex="0336"/>
	<outline>
		<contour>
			<point x="-628" y="290" type="line"/>
			<point x="32" y="290" type="line"/>
			<point x="43" y="360" type="line"/>
			<point x="-617" y="360" type="line"/>
		</contour>
	</outline>
</glyph>
<glyph name="uni0338" format="2">
	<advance width="0"/>
	<unicode hex="0338"/>
	<outline>
		<contour>
			<point x="-534" y="-60" type="line"/>
			<point x="-471" y="-60" type="line"/>
			<point x="-40" y="780" type="line"/>
			<point x="-103" y="780" type="line"/>
		</contour>
	</outline>
</glyph>
<glyph name="uni0374" format="2">
	<advance width="600"/>
	<unicode hex="0374"/>
	<outline>
		<contour>
			<point x="186" y="410" type="line"/>
			<point x="266" y="410" type="line"/>
			<point x="445" y="721" type="line"/>
			<point x="315" y="721" type="line"/>
		</contour>
	</outline>
</glyph>
<glyph name="uni0394" format="2">
	<advance width="600"/>
	<unicode hex="0394"/>
	<outline>
		<contour>
			<point x="6" y="0" type="line"/>
			<point x="98" y="0" type="line"/>
			<point x="299" y="496" type="line" smooth="yes"/>
			<point x="337" y="590"/>
			<point x="361" y="660"/>
			<point x="361" y="660" type="curve"/>
			<point x="361" y="660"/>
			<point x="362" y="590"/>
			<point x="371" y="495" type="curve" smooth="yes"/>
			<point x="415" y="0" type="line"/>
			<point x="506" y="0" type="line"/>
			<point x="433" y="730" type="line"/>
			<point x="312" y="730" type="line"/>
		</contour>
		<contour>
			<point x="65" y="0" type="line"/>
			<point x="455" y="0" type="line"/>
			<point x="468" y="80" type="line"/>
			<point x="78" y="80" type="line"/>
		</contour>
	</outline>
</glyph>
<glyph name="uni03A9" format="2">
	<advance width="600"/>
	<unicode hex="03A9"/>
	<outline>
		<contour>
			<point x="6" y="0" type="line"/>
			<point x="216" y="0" type="line"/>
			<point x="233" y="110" type="line"/>
			<point x="180" y="110"/>
			<point x="152" y="164"/>
			<point x="164" y="240" type="curve" smooth="yes"/>
			<point x="209" y="525" type="line" smooth="yes"/>
			<point x="222" y="607"/>
			<point x="282" y="660"/>
			<point x="361" y="660" type="curve" smooth="yes"/>
			<point x="440" y="660"/>
			<point x="482" y="607"/>
			<point x="469" y="525" type="curve" smooth="yes"/>
			<point x="424" y="240" type="line" smooth="yes"/>
			<point x="412" y="164"/>
			<point x="366" y="110"/>
			<point x="313" y="110" type="curve"/>
			<point x="296" y="0" type="line"/>
			<point x="507" y="0" type="line"/>
			<point x="520" y="80" type="line"/>
			<point x="374" y="80" type="line"/>
			<point x="375" y="86" type="line"/>
			<point x="375" y="86"/>
			<point x="492" y="100"/>
			<point x="515" y="245" type="curve" smooth="yes"/>
			<point x="559" y="525" type="line" smooth="yes"/>
			<point x="580" y="656"/>
			<point x="508" y="740"/>
			<point x="373" y="740" type="curve" smooth="yes"/>
			<point x="238" y="740"/>
			<point x="140" y="656"/>
			<point x="119" y="525" type="curve" smooth="yes"/>
			<point x="75" y="245" type="line" smooth="yes"/>
			<point x="52" y="100"/>
			<point x="164" y="85"/>
			<point x="164" y="85" type="curve"/>
			<point x="164" y="80" type="line"/>
			<point x="19" y="80" type="line"/>
		</contour>
	</outline>
</glyph>
<glyph name="lambda" format="2">
	<advance width="600"/>
	<unicode hex="03BB"/>
	<outline>
		<contour>
			<point x="6" y="0" type="line"/>
			<point x="104" y="0" type="line"/>
			<point x="292" y="357" type="line" smooth="yes"/>
			<point x="325" y="420"/>
			<point x="340" y="467"/>
			<point x="340" y="467" type="curve"/>
			<point x="340" y="467"/>
			<point x="339" y="420"/>
			<point x="350" y="357" type="curve" smooth="yes"/>
			<point x="408" y="0" type="line"/>
			<point x="506" y="0" type="line"/>
			<point x="359" y="730" type="line"/>
			<point x="263" y="730" type="line"/>
			<point x="307" y="541" type="line"/>
		</contour>
	</outline>
</glyph>
<glyph name="pi" format="2">
	<advance width="600"/>
	<unicode hex="03C0"/>
	<outline>
		<contour>
			<point x="507" y="-5" type="curve" smooth="yes"/>
			<point x="530" y="-5" type="line"/>
			<point x="544" y="79" type="line"/>
			<point x="516" y="79" type="line" smooth="yes"/>
			<point x="469" y="79"/>
			<point x="448" y="109"/>
			<point x="457" y="164" type="curve" smooth="yes"/>
			<point x="506" y="472" type="line"/>
			<point x="586" y="472" type="line"/>
			<point x="598" y="550" type="line"/>
			<point x="63" y="550" type="line"/>
			<point x="50" y="469" type="line"/>
			<point x="130" y="469" type="line"/>
			<point x="56" y="0" type="line"/>
			<point x="146" y="0" type="line"/>
			<point x="220" y="468" type="line"/>
			<point x="415" y="468" type="line"/>
			<point x="368" y="170" type="line" smooth="yes"/>
			<point x="351" y="64"/>
			<point x="406" y="-5"/>
		</contour>
	</outline>
</glyph>
<glyph name="uni0402" format="2">
	<advance width="600"/>
	<unicode hex="0402"/>
	<outline>
		<contour>
			<point x="187" y="-180" type="line"/>
			<point x="257" y="-180" type="line" smooth="yes"/>
			<point x="381" y="-180"/>
			<point x="475" y="-103"/>
			<point x="493" y="15" type="curve" smooth="yes"/>
			<point x="541" y="316" type="line" smooth="yes"/>
			<point x="558" y="425"/>
			<point x="507" y="495"/>
			<point x="413" y="495" type="curve" smooth="yes"/>
			<point x="355" y="495"/>
			<point x="299" y="469"/>
			<point x="237" y="413" type="curve" smooth="yes"/>
			<point x="219" y="396" type="line"/>
			<point x="259" y="651" type="line"/>
			<point x="379" y="651" type="line"/>
			<point x="392" y="730" type="line"/>
			<point x="72" y="730" type="line"/>
			<point x="59" y="651" type="line"/>
			<point x="169" y="651" type="line"/>
			<point x="66" y="0" type="line"/>
			<point x="156" y="0" type="line"/>
			<point x="205" y="310" type="line"/>
			<point x="257" y="357" type="line" smooth="yes"/>
			<point x="303" y="399"/>
			<point x="342" y="419"/>
			<point x="380" y="419" type="curve" smooth="yes"/>
			<point x="436" y="419"/>
			<point x="461" y="377"/>
			<point x="448" y="296" type="curve" smooth="yes"/>
			<point x="403" y="15" type="line" smooth="yes"/>
			<point x="392" y="-55"/>
			<point x="341" y="-98"/>
			<point x="270" y="-98" type="curve" smooth="yes"/>
			<point x="200" y="-98" type="line"/>
		</contour>
	</outline>
</glyph>
<glyph name="uni0404" format="2">
	<advance width="600"/>
	<unicode hex="0404"/>
	<outline>
		<contour>
			<point x="258" y="-10" type="curve" smooth="yes"/>
			<point x="389" y="-10"/>
			<point x="483" y="71"/>
			<point x="504" y="200" type="curve"/>
			<point x="414" y="200" type="line"/>
			<point x="401" y="117"/>
			<point x="349" y="70"/>
			<point x="271" y="70" type="curve" smooth="yes"/>
			<point x="192" y="70"/>
			<point x="155" y="117"/>
			<point x="168" y="200" type="curve" smooth="yes"/>
			<point x="220" y="531" type="line" smooth="yes"/>
			<point x="233" y="613"/>
			<point x="286" y="660"/>
			<point x="365" y="660" type="curve" smooth="yes"/>
			<point x="443" y="660"/>
			<point x="479" y="613"/>
			<point x="466" y="530" type="curve"/>
			<point x="556" y="530" type="line"/>
			<point x="576" y="659"/>
			<point x="508" y="740"/>
			<point x="377" y="740" type="curve" smooth="yes"/>
			<point x="244" y="740"/>
			<point x="151" y="661"/>
			<point x="130" y="530" type="curve" smooth="yes"/>
			<point x="78" y="200" type="line" smooth="yes"/>
			<point x="57" y="69"/>
			<point x="125" y="-10"/>
		</contour>
		<contour>
			<point x="166" y="327" type="line"/>
			<point x="413" y="327" type="line"/>
			<point x="426" y="409" type="line"/>
			<point x="179" y="409" type="line"/>
		</contour>
	</outline>
</glyph>
<glyph name="uni0409" format="2">
	<advance width="600"/>
	<unicode hex="0409"/>
	<outline>
		<contour>
			<point x="-50" y="-5" type="line"/>
			<point x="-35" y="-5" type="line" smooth="yes"/>
			<point x="50" y="-5"/>
			<point x="114" y="71"/>
			<point x="135" y="194" type="curve" smooth="yes"/>
			<point x="213" y="655" type="line"/>
			<point x="340" y="655" type="line"/>
			<point x="236" y="0" type="line"/>
			<point x="376" y="0" type="line" smooth="yes"/>
			<point x="472" y="0"/>
			<point x="546" y="62"/>
			<point x="561" y="155" type="curve" smooth="yes"/>
			<point x="580" y="275" type="line" smooth="yes"/>
			<point x="594" y="368"/>
			<point x="540" y="430"/>
			<point x="444" y="430" type="curve" smooth="yes"/>
			<point x="384" y="430" type="line"/>
			<point x="432" y="730" type="line"/>
			<point x="146" y="730" type="line"/>
			<point x="56" y="194" type="line" smooth="yes"/>
			<point x="43" y="120"/>
			<point x="15" y="75"/>
			<point x="-19" y="75" type="curve" smooth="yes"/>
			<point x="-37" y="75" type="line"/>
		</contour>
		<contour>
			<point x="388" y="75" type="curve" smooth="yes"/>
			<point x="328" y="75" type="line"/>
			<point x="372" y="355" type="line"/>
			<point x="432" y="355" type="line" smooth="yes"/>
			<point x="480" y="355"/>
			<point x="507" y="323"/>
			<point x="500" y="275" type="curve" smooth="yes"/>
			<point x="481" y="155" type="line" smooth="yes"/>
			<point x="473" y="107"/>
			<point x="436" y="75"/>
		</contour>
	</outline>
</glyph>
<glyph name="uni040A" format="2">
	<advance width="600"/>
	<unicode hex="040A"/>
	<outline>
		<contour>
			<point x="9" y="0" type="line"/>
			<point x="89" y="0" type="line"/>
			<point x="145" y="355" type="line"/>
			<point x="292" y="355" type="line"/>
			<point x="236" y="0" type="line"/>
			<point x="376" y="0" type="line" smooth="yes"/>
			<point x="474" y="0"/>
			<point x="546" y="60"/>
			<point x="561" y="155" type="curve" smooth="yes"/>
			<point x="580" y="275" type="line" smooth="yes"/>
			<point x="595" y="370"/>
			<point x="542" y="430"/>
			<point x="444" y="430" type="curve" smooth="yes"/>
			<point x="384" y="430" type="line"/>
			<point x="432" y="730" type="line"/>
			<point x="352" y="730" type="line"/>
			<point x="304" y="430" type="line"/>
			<point x="157" y="430" type="line"/>
			<point x="205" y="730" type="line"/>
			<point x="125" y="730" type="line"/>
		</contour>
		<contour>
			<point x="388" y="75" type="curve" smooth="yes"/>
			<point x="328" y="75" type="line"/>
			<point x="372" y="355" type="line"/>
			<point x="432" y="355" type="line" smooth="yes"/>
			<point x="482" y="355"/>
			<point x="508" y="325"/>
			<point x="500" y="275" type="curve" smooth="yes"/>
			<point x="481" y="155" type="line" smooth="yes"/>
			<point x="473" y="105"/>
			<point x="438" y="75"/>
		</contour>
	</outline>
</glyph>
<glyph name="uni040B" format="2">
	<advance width="600"/>
	<unicode hex="040B"/>
	<outline>
		<contour>
			<point x="66" y="0" type="line"/>
			<point x="156" y="0" type="line"/>
			<point x="205" y="310" type="line"/>
			<point x="257" y="357" type="line" smooth="yes"/>
			<point x="303" y="399"/>
			<point x="342" y="419"/>
			<point x="380" y="419" type="curve" smooth="yes"/>
			<point x="436" y="419"/>
			<point x="461" y="377"/>
			<point x="448" y="296" type="curve" smooth="yes"/>
			<point x="401" y="0" type="line"/>
			<point x="491" y="0" type="line"/>
			<point x="541" y="316" type="line" smooth="yes"/>
			<point x="558" y="425"/>
			<point x="507" y="495"/>
			<point x="413" y="495" type="curve" smooth="yes"/>
			<point x="355" y="495"/>
			<point x="299" y="469"/>
			<point x="237" y="413" type="curve" smooth="yes"/>
			<point x="219" y="396" type="line"/>
			<point x="259" y="651" type="line"/>
			<point x="379" y="651" type="line"/>
			<point x="392" y="730" type="line"/>
			<point x="72" y="730" type="line"/>
			<point x="59" y="651" type="line"/>
			<point x="169" y="651" type="line"/>
		</contour>
	</outline>
</glyph>
<glyph name="uni040F" format="2">
	<advance width="600"/>
	<unicode hex="040F"/>
	<outline>
		<contour>
			<point x="191" y="-125" type="line"/>
			<point x="281" y="-125" type="line"/>
			<point x="301" y="0" type="line"/>
			<point x="462" y="0" type="line"/>
			<point x="578" y="730" type="line"/>
			<point x="488" y="730" type="line"/>
			<point x="385" y="82" type="line"/>
			<point x="153" y="82" type="line"/>
			<point x="256" y="730" type="line"/>
			<point x="166" y="730" type="line"/>
			<point x="50" y="0" type="line"/>
			<point x="211" y="0" type="line"/>
		</contour>
	</outline>
</glyph>
<glyph name="uni0411" format="2">
	<advance width="600"/>
	<unicode hex="0411"/>
	<outline>
		<contour>
			<point x="50" y="0" type="line"/>
			<point x="261" y="0" type="line" smooth="yes"/>
			<point x="400" y="0"/>
			<point x="499" y="84"/>
			<point x="520" y="214" type="curve" smooth="yes"/>
			<point x="540" y="344"/>
			<point x="468" y="428"/>
			<point x="329" y="428" type="curve" smooth="yes"/>
			<point x="208" y="428" type="line"/>
			<point x="243" y="648" type="line"/>
			<point x="559" y="648" type="line"/>
			<point x="572" y="730" type="line"/>
			<point x="166" y="730" type="line"/>
		</contour>
		<contour>
			<point x="274" y="82" type="curve" smooth="yes"/>
			<point x="153" y="82" type="line"/>
			<point x="195" y="346" type="line"/>
			<point x="316" y="346" type="line" smooth="yes"/>
			<point x="398" y="346"/>
			<point x="440" y="296"/>
			<point x="427" y="214" type="curve" smooth="yes"/>
			<point x="414" y="132"/>
			<point x="356" y="82"/>
		</contour>
	</outline>
</glyph>
<glyph name="uni0413" format="2">
	<advance width="600"/>
	<unicode hex="0413"/>
	<outline>
		<contour>
			<point x="66" y="0" type="line"/>
			<point x="156" y="0" type="line"/>
			<point x="259" y="648" type="line"/>
			<point x="594" y="648" type="line"/>
			<point x="607" y="730" type="line"/>
			<point x="182" y="730" type="line"/>
		</contour>
	</outline>
</glyph>
<glyph name="uni0414" format="2">
	<advance width="600"/>
	<unicode hex="0414"/>
	<outline>
		<contour>
			<point x="-41" y="-140" type="line"/>
			<point x="39" y="-140" type="line"/>
			<point x="61" y="0" type="line"/>
			<point x="451" y="0" type="line"/>
			<point x="429" y="-140" type="line"/>
			<point x="509" y="-140" type="line"/>
			<point x="543" y="77" type="line"/>
			<point x="473" y="77" type="line"/>
			<point x="577" y="730" type="line"/>
			<point x="203" y="730" type="line"/>
			<point x="127" y="298" type="line" smooth="yes"/>
			<point x="104" y="169"/>
			<point x="38" y="77"/>
			<point x="38" y="77" type="curve"/>
			<point x="-7" y="77" type="line"/>
		</contour>
		<contour>
			<point x="132" y="77" type="line"/>
			<point x="132" y="77"/>
			<point x="191" y="157"/>
			<point x="215" y="298" type="curve" smooth="yes"/>
			<point x="276" y="650" type="line"/>
			<point x="474" y="650" type="line"/>
			<point x="383" y="77" type="line"/>
		</contour>
	</outline>
</glyph>
<glyph name="uni0416" format="2">
	<advance width="600"/>
	<unicode hex="0416"/>
	<outline>
		<contour>
			<point x="-32" y="0" type="line"/>
			<point x="58" y="0" type="line"/>
			<point x="228" y="342" type="line"/>
			<point x="272" y="342" type="line"/>
			<point x="218" y="0" type="line"/>
			<point x="294" y="0" type="line"/>
			<point x="348" y="342" type="line"/>
			<point x="395" y="342" type="line"/>
			<point x="455" y="0" type="line"/>
			<point x="544" y="0" type="line"/>
			<point x="475" y="375" type="line"/>
			<point x="650" y="730" type="line"/>
			<point x="558" y="730" type="line"/>
			<point x="403" y="406" type="line"/>
			<point x="358" y="406" type="line"/>
			<point x="410" y="730" type="line"/>
			<point x="334" y="730" type="line"/>
			<point x="282" y="406" type="line"/>
			<point x="238" y="406" type="line"/>
			<point x="183" y="730" type="line"/>
			<point x="94" y="730" type="line"/>
			<point x="159" y="378" type="line"/>
		</contour>
	</outline>
</glyph>
<glyph name="uni0417" format="2">
	<advance width="600"/>
	<unicode hex="0417"/>
	<outline>
		<contour>
			<point x="244" y="-10" type="curve" smooth="yes"/>
			<point x="392" y="-10"/>
			<point x="501" y="80"/>
			<point x="521" y="206" type="curve" smooth="yes"/>
			<point x="539" y="323"/>
			<point x="476" y="400"/>
			<point x="361" y="398" type="curve"/>
			<point x="359" y="383" type="line"/>
			<point x="465" y="381"/>
			<point x="546" y="454"/>
			<point x="562" y="555" type="curve" smooth="yes"/>
			<point x="581" y="674"/>
			<point x="502" y="740"/>
			<point x="362" y="740" type="curve" smooth="yes"/>
			<point x="226" y="740"/>
			<point x="124" y="659"/>
			<point x="105" y="535" type="curve"/>
			<point x="195" y="535" type="line"/>
			<point x="207" y="610"/>
			<point x="269" y="660"/>
			<point x="350" y="660" type="curve" smooth="yes"/>
			<point x="432" y="660"/>
			<point x="478" y="617"/>
			<point x="466" y="543" type="curve" smooth="yes"/>
			<point x="454" y="470"/>
			<point x="391" y="412"/>
			<point x="310" y="412" type="curve" smooth="yes"/>
			<point x="221" y="412" type="line"/>
			<point x="208" y="330" type="line"/>
			<point x="298" y="330" type="line" smooth="yes"/>
			<point x="387" y="330"/>
			<point x="437" y="278"/>
			<point x="425" y="200" type="curve" smooth="yes"/>
			<point x="412" y="123"/>
			<point x="347" y="70"/>
			<point x="257" y="70" type="curve" smooth="yes"/>
			<point x="175" y="70"/>
			<point x="125" y="114"/>
			<point x="128" y="185" type="curve"/>
			<point x="38" y="185" type="line"/>
			<point x="27" y="66"/>
			<point x="107" y="-10"/>
		</contour>
	</outline>
</glyph>
<glyph name="uni0418" format="2">
	<advance width="600"/>
	<unicode hex="0418"/>
	<outline>
		<contour>
			<point x="46" y="0" type="line"/>
			<point x="166" y="0" type="line"/>
			<point x="488" y="625" type="line"/>
			<point x="488" y="625"/>
			<point x="460" y="510"/>
			<point x="444" y="410" type="curve" smooth="yes"/>
			<point x="379" y="0" type="line"/>
			<point x="466" y="0" type="line"/>
			<point x="582" y="730" type="line"/>
			<point x="462" y="730" type="line"/>
			<point x="141" y="105" type="line"/>
			<point x="141" y="105"/>
			<point x="168" y="220"/>
			<point x="184" y="320" type="curve" smooth="yes"/>
			<point x="249" y="730" type="line"/>
			<point x="162" y="730" type="line"/>
		</contour>
	</outline>
</glyph>
<glyph name="uni041B" format="2">
	<advance width="600"/>
	<unicode hex="041B"/>
	<outline>
		<contour>
			<point x="-25" y="-5" type="line"/>
			<point x="-2" y="-5" type="line" smooth="yes"/>
			<point x="113" y="-5"/>
			<point x="178" y="75"/>
			<point x="208" y="254" type="curve" smooth="yes"/>
			<point x="276" y="648" type="line"/>
			<point x="475" y="648" type="line"/>
			<point x="372" y="0" type="line"/>
			<point x="462" y="0" type="line"/>
			<point x="578" y="730" type="line"/>
			<point x="200" y="730" type="line"/>
			<point x="118" y="254" type="line" smooth="yes"/>
			<point x="96" y="126"/>
			<point x="66" y="79"/>
			<point x="7" y="79" type="curve" smooth="yes"/>
			<point x="-11" y="79" type="line"/>
		</contour>
	</outline>
</glyph>
<glyph name="uni041F" format="2">
	<advance width="600"/>
	<unicode hex="041F"/>
	<outline>
		<contour>
			<point x="50" y="0" type="line"/>
			<point x="140" y="0" type="line"/>
			<point x="243" y="648" type="line"/>
			<point x="475" y="648" type="line"/>
			<point x="372" y="0" type="line"/>
			<point x="462" y="0" type="line"/>
			<point x="578" y="730" type="line"/>
			<point x="166" y="730" type="line"/>
		</contour>
	</outline>
</glyph>
<glyph name="uni0423" format="2">
	<advance width="600"/>
	<unicode hex="0423"/>
	<outline>
		<contour>
			<point x="147" y="0" type="line"/>
			<point x="243" y="0" type="line"/>
			<point x="622" y="730" type="line"/>
			<point x="524" y="730" type="line"/>
			<point x="352" y="373" type="line" smooth="yes"/>
			<point x="322" y="310"/>
			<point x="308" y="263"/>
			<point x="308" y="263" type="curve"/>
			<point x="308" y="263"/>
			<point x="307" y="310"/>
			<point x="294" y="373" type="curve" smooth="yes"/>
			<point x="220" y="730" type="line"/>
			<point x="122" y="730" type="line"/>
			<point x="251" y="189" type="line"/>
		</contour>
	</outline>
</glyph>
<glyph name="uni0424" format="2">
	<advance width="600"/>
	<unicode hex="0424"/>
	<outline>
		<contour>
			<point x="221" y="45" type="curve"/>
			<point x="210" y="-25" type="line"/>
			<point x="294" y="-25" type="line"/>
			<point x="305" y="45" type="line"/>
			<point x="428" y="45"/>
			<point x="522" y="127"/>
			<point x="542" y="253" type="curve" smooth="yes"/>
			<point x="579" y="487" type="line" smooth="yes"/>
			<point x="600" y="616"/>
			<point x="533" y="700"/>
			<point x="409" y="700" type="curve"/>
			<point x="420" y="770" type="line"/>
			<point x="336" y="770" type="line"/>
			<point x="325" y="700" type="line"/>
			<point x="201" y="700"/>
			<point x="108" y="616"/>
			<point x="87" y="487" type="curve" smooth="yes"/>
			<point x="50" y="253" type="line" smooth="yes"/>
			<point x="30" y="127"/>
			<point x="98" y="45"/>
		</contour>
		<contour>
			<point x="313" y="624" type="curve"/>
			<point x="233" y="121" type="line"/>
			<point x="158" y="121"/>
			<point x="121" y="171"/>
			<point x="134" y="253" type="curve" smooth="yes"/>
			<point x="171" y="487" type="line" smooth="yes"/>
			<point x="185" y="572"/>
			<point x="238" y="624"/>
		</contour>
		<contour>
			<point x="317" y="121" type="curve"/>
			<point x="397" y="624" type="line"/>
			<point x="472" y="624"/>
			<point x="509" y="572"/>
			<point x="495" y="487" type="curve" smooth="yes"/>
			<point x="458" y="253" type="line" smooth="yes"/>
			<point x="445" y="171"/>
			<point x="392" y="121"/>
		</contour>
	</outline>
</glyph>
<glyph name="uni0426" format="2">
	<advance width="600"/>
	<unicode hex="0426"/>
	<outline>
		<contour>
			<point x="419" y="-140" type="line"/>
			<point x="499" y="-140" type="line"/>
			<point x="534" y="80" type="line"/>
			<point x="459" y="80" type="line"/>
			<point x="562" y="730" type="line"/>
			<point x="472" y="730" type="line"/>
			<point x="369" y="80" type="line"/>
			<point x="153" y="80" type="line"/>
			<point x="256" y="730" type="line"/>
			<point x="166" y="730" type="line"/>
			<point x="50" y="0" type="line"/>
			<point x="441" y="0" type="line"/>
		</contour>
	</outline>
</glyph>
<glyph name="uni0427" format="2">
	<advance width="600"/>
	<unicode hex="0427"/>
	<outline>
		<contour>
			<point x="416" y="281" type="curve"/>
			<point x="371" y="0" type="line"/>
			<point x="461" y="0" type="line"/>
			<point x="577" y="730" type="line"/>
			<point x="487" y="730" type="line"/>
			<point x="428" y="361" type="line"/>
			<point x="428" y="361"/>
			<point x="393" y="351"/>
			<point x="307" y="351" type="curve" smooth="yes"/>
			<point x="228" y="351"/>
			<point x="185" y="402"/>
			<point x="197" y="481" type="curve" smooth="yes"/>
			<point x="237" y="730" type="line"/>
			<point x="147" y="730" type="line"/>
			<point x="107" y="481" type="line" smooth="yes"/>
			<point x="87" y="353"/>
			<point x="154" y="271"/>
			<point x="279" y="271" type="curve" smooth="yes"/>
			<point x="372" y="271"/>
			<point x="416" y="281"/>
		</contour>
	</outline>
</glyph>
<glyph name="uni0428" format="2">
	<advance width="600"/>
	<unicode hex="0428"/>
	<outline>
		<contour>
			<point x="22" y="0" type="line"/>
			<point x="492" y="0" type="line"/>
			<point x="608" y="730" type="line"/>
			<point x="525" y="730" type="line"/>
			<point x="420" y="68" type="line"/>
			<point x="304" y="68" type="line"/>
			<point x="409" y="730" type="line"/>
			<point x="337" y="730" type="line"/>
			<point x="232" y="68" type="line"/>
			<point x="115" y="68" type="line"/>
			<point x="220" y="730" type="line"/>
			<point x="136" y="730" type="line"/>
		</contour>
	</outline>
</glyph>
<glyph name="uni0429" format="2">
	<advance width="600"/>
	<unicode hex="0429"/>
	<outline>
		<contour>
			<point x="429" y="-140" type="line"/>
			<point x="509" y="-140" type="line"/>
			<point x="543" y="76" type="line"/>
			<point x="496" y="76" type="line"/>
			<point x="600" y="730" type="line"/>
			<point x="519" y="730" type="line"/>
			<point x="415" y="76" type="line"/>
			<point x="299" y="76" type="line"/>
			<point x="403" y="730" type="line"/>
			<point x="333" y="730" type="line"/>
			<point x="229" y="76" type="line"/>
			<point x="113" y="76" type="line"/>
			<point x="217" y="730" type="line"/>
			<point x="136" y="730" type="line"/>
			<point x="20" y="0" type="line"/>
			<point x="451" y="0" type="line"/>
		</contour>
	</outline>
</glyph>
<glyph name="uni042A" format="2">
	<advance width="600"/>
	<unicode hex="042A"/>
	<outline>
		<contour>
			<point x="91" y="0" type="line"/>
			<point x="286" y="0" type="line" smooth="yes"/>
			<point x="417" y="0"/>
			<point x="520" y="87"/>
			<point x="540" y="215" type="curve" smooth="yes"/>
			<point x="560" y="344"/>
			<point x="485" y="430"/>
			<point x="354" y="430" type="curve" smooth="yes"/>
			<point x="249" y="430" type="line"/>
			<point x="297" y="730" type="line"/>
			<point x="67" y="730" type="line"/>
			<point x="54" y="648" type="line"/>
			<point x="194" y="648" type="line"/>
		</contour>
		<contour>
			<point x="294" y="82" type="curve" smooth="yes"/>
			<point x="194" y="82" type="line"/>
			<point x="236" y="348" type="line"/>
			<point x="336" y="348" type="line" smooth="yes"/>
			<point x="415" y="348"/>
			<point x="460" y="295"/>
			<point x="447" y="215" type="curve" smooth="yes"/>
			<point x="434" y="135"/>
			<point x="373" y="82"/>
		</contour>
	</outline>
</glyph>
<glyph name="uni042B" format="2">
	<advance width="600"/>
	<unicode hex="042B"/>
	<outline>
		<contour>
			<point x="21" y="0" type="line"/>
			<point x="146" y="0" type="line" smooth="yes"/>
			<point x="268" y="0"/>
			<point x="353" y="71"/>
			<point x="372" y="189" type="curve" smooth="yes"/>
			<point x="380" y="240" type="line" smooth="yes"/>
			<point x="399" y="357"/>
			<point x="335" y="430"/>
			<point x="214" y="430" type="curve" smooth="yes"/>
			<point x="173" y="430" type="line"/>
			<point x="221" y="730" type="line"/>
			<point x="137" y="730" type="line"/>
		</contour>
		<contour>
			<point x="159" y="79" type="curve" smooth="yes"/>
			<point x="118" y="79" type="line"/>
			<point x="161" y="351" type="line"/>
			<point x="202" y="351" type="line" smooth="yes"/>
			<point x="271" y="351"/>
			<point x="305" y="310"/>
			<point x="294" y="240" type="curve" smooth="yes"/>
			<point x="286" y="190" type="line" smooth="yes"/>
			<point x="275" y="120"/>
			<point x="228" y="79"/>
		</contour>
		<contour>
			<point x="407" y="0" type="line"/>
			<point x="491" y="0" type="line"/>
			<point x="607" y="730" type="line"/>
			<point x="523" y="730" type="line"/>
		</contour>
	</outline>
</glyph>
<glyph name="uni042C" format="2">
	<advance width="600"/>
	<unicode hex="042C"/>
	<outline>
		<contour>
			<point x="50" y="0" type="line"/>
			<point x="286" y="0" type="line" smooth="yes"/>
			<point x="417" y="0"/>
			<point x="520" y="87"/>
			<point x="540" y="215" type="curve" smooth="yes"/>
			<point x="560" y="344"/>
			<point x="485" y="430"/>
			<point x="354" y="430" type="curve" smooth="yes"/>
			<point x="208" y="430" type="line"/>
			<point x="256" y="730" type="line"/>
			<point x="166" y="730" type="line"/>
		</contour>
		<contour>
			<point x="294" y="82" type="curve" smooth="yes"/>
			<point x="153" y="82" type="line"/>
			<point x="195" y="348" type="line"/>
			<point x="336" y="348" type="line" smooth="yes"/>
			<point x="415" y="348"/>
			<point x="460" y="295"/>
			<point x="447" y="215" type="curve" smooth="yes"/>
			<point x="434" y="135"/>
			<point x="373" y="82"/>
		</contour>
	</outline>
</glyph>
<glyph name="uni042D" format="2">
	<advance width="600"/>
	<unicode hex="042D"/>
	<outline>
		<contour>
			<point x="250" y="-10" type="curve" smooth="yes"/>
			<point x="389" y="-10"/>
			<point x="476" y="63"/>
			<point x="498" y="200" type="curve" smooth="yes"/>
			<point x="550" y="530" type="line" smooth="yes"/>
			<point x="571" y="661"/>
			<point x="503" y="740"/>
			<point x="369" y="740" type="curve" smooth="yes"/>
			<point x="239" y="740"/>
			<point x="144" y="659"/>
			<point x="124" y="530" type="curve"/>
			<point x="214" y="530" type="line"/>
			<point x="227" y="613"/>
			<point x="278" y="660"/>
			<point x="357" y="660" type="curve" smooth="yes"/>
			<point x="436" y="660"/>
			<point x="473" y="613"/>
			<point x="460" y="531" type="curve" smooth="yes"/>
			<point x="408" y="200" type="line" smooth="yes"/>
			<point x="395" y="117"/>
			<point x="342" y="70"/>
			<point x="263" y="70" type="curve" smooth="yes"/>
			<point x="185" y="70"/>
			<point x="149" y="117"/>
			<point x="162" y="200" type="curve"/>
			<point x="72" y="200" type="line"/>
			<point x="51" y="71"/>
			<point x="119" y="-10"/>
		</contour>
		<contour>
			<point x="203" y="327" type="line"/>
			<point x="450" y="327" type="line"/>
			<point x="463" y="409" type="line"/>
			<point x="216" y="409" type="line"/>
		</contour>
	</outline>
</glyph>
<glyph name="uni042E" format="2">
	<advance width="600"/>
	<unicode hex="042E"/>
	<outline>
		<contour>
			<point x="343" y="-10" type="curve" smooth="yes"/>
			<point x="449" y="-10"/>
			<point x="526" y="63"/>
			<point x="545" y="180" type="curve" smooth="yes"/>
			<point x="603" y="550" type="line" smooth="yes"/>
			<point x="622" y="667"/>
			<point x="568" y="740"/>
			<point x="462" y="740" type="curve" smooth="yes"/>
			<point x="358" y="740"/>
			<point x="284" y="668"/>
			<point x="265" y="550" type="curve" smooth="yes"/>
			<point x="244" y="415" type="line"/>
			<point x="165" y="415" type="line"/>
			<point x="215" y="730" type="line"/>
			<point x="132" y="730" type="line"/>
			<point x="16" y="0" type="line"/>
			<point x="99" y="0" type="line"/>
			<point x="152" y="335" type="line"/>
			<point x="231" y="335" type="line"/>
			<point x="207" y="180" type="line" smooth="yes"/>
			<point x="188" y="63"/>
			<point x="241" y="-10"/>
		</contour>
		<contour>
			<point x="356" y="68" type="curve" smooth="yes"/>
			<point x="299" y="68"/>
			<point x="274" y="108"/>
			<point x="286" y="180" type="curve" smooth="yes"/>
			<point x="344" y="550" type="line" smooth="yes"/>
			<point x="356" y="622"/>
			<point x="393" y="662"/>
			<point x="450" y="662" type="curve" smooth="yes"/>
			<point x="507" y="662"/>
			<point x="532" y="622"/>
			<point x="520" y="550" type="curve" smooth="yes"/>
			<point x="462" y="180" type="line" smooth="yes"/>
			<point x="450" y="108"/>
			<point x="412" y="68"/>
		</contour>
	</outline>
</glyph>
<glyph name="uni042F" format="2">
	<advance width="600"/>
	<unicode hex="042F"/>
	<outline>
		<contour>
			<point x="213" y="320" type="curve"/>
			<point x="12" y="0" type="line"/>
			<point x="116" y="0" type="line"/>
			<point x="304" y="310" type="line"/>
			<point x="420" y="310" type="line"/>
			<point x="371" y="0" type="line"/>
			<point x="461" y="0" type="line"/>
			<point x="577" y="730" type="line"/>
			<point x="353" y="730" type="line" smooth="yes"/>
			<point x="223" y="730"/>
			<point x="122" y="645"/>
			<point x="102" y="520" type="curve" smooth="yes"/>
			<point x="87" y="421"/>
			<point x="129" y="347"/>
		</contour>
		<contour>
			<point x="299" y="390" type="line"/>
			<point x="224" y="390"/>
			<point x="183" y="442"/>
			<point x="195" y="520" type="curve" smooth="yes"/>
			<point x="208" y="598"/>
			<point x="266" y="650"/>
			<point x="340" y="650" type="curve" smooth="yes"/>
			<point x="474" y="650" type="line"/>
			<point x="433" y="390" type="line"/>
		</contour>
	</outline>
</glyph>
